{
.appVersion = "895";
DisplayStrings = (
/Schwa.ss01
);
copyright = "Copyright (c) 2011-2016 The Montserrat Project Authors (julieta.ulanovsky@gmail.com)";
customParameters = (
{
name = fsType;
value = (
);
},
{
name = license;
value = "This Font Software is licensed under the SIL Open Font License, Version 1.1. This license is available with a FAQ at: http://scripts.sil.org/OFL";
},
{
name = licenseURL;
value = "http://scripts.sil.org/OFL";
}
);
date = "2016-04-08 19:15:31 +0000";
designer = "Julieta Ulanovsky";
designerURL = "http://www.zkysky.com.ar/";
familyName = Montserrat;
featurePrefixes = (
{
automatic = 1;
code = "languagesystem DFLT dflt;\012languagesystem latn dflt;\012languagesystem latn ROM;\012languagesystem latn MOL;\012languagesystem latn CAT;\012";
name = Languagesystems;
}
);
features = (
{
automatic = 1;
code = "feature locl;\012feature sups;\012feature numr;\012feature dnom;\012feature frac;\012feature ordn;\012feature lnum;\012feature pnum;\012feature tnum;\012feature onum;\012feature case;\012feature salt;\012feature ss01;\012";
name = aalt;
},
{
automatic = 1;
code = "script latn;\012language ROM;\012sub Scedilla by Scommaaccent;\012sub scedilla by scommaaccent;\012sub Tcedilla by Tcommaaccent;\012sub tcedilla by tcommaaccent;\012language MOL;\012sub Scedilla by Scommaaccent;\012sub scedilla by scommaaccent;\012sub Tcedilla by Tcommaaccent;\012sub tcedilla by tcommaaccent;\012language CAT;\012sub  l' periodcentered' l by ldot;\012sub  L' periodcentered' L by Ldot;\012";
name = locl;
},
{
automatic = 1;
code = "sub one by onesuperior;\012sub two by twosuperior;\012sub three by threesuperior;\012";
name = sups;
},
{
automatic = 1;
code = "sub zero by zero.numr;\012sub one by one.numr;\012sub two by two.numr;\012sub three by three.numr;\012sub four by four.numr;\012sub five by five.numr;\012sub six by six.numr;\012sub seven by seven.numr;\012sub eight by eight.numr;\012sub nine by nine.numr;\012";
name = numr;
},
{
automatic = 1;

glyphs = (
{
glyphname = A;
lastChange = "2016-08-01 01:22:09 +0000";
layers = (
{
anchors = (
{
name = ogonek;
position = "{733, 10}";
},
{
name = top;
position = "{343, 699}";
}
);
layerId = UUID0;
paths = (
{
closed = 1;
nodes = (
"10 0 LINE",
"34 0 LINE",
"341 676 LINE",
"653 0 LINE",
"676 0 LINE",
"352 699 LINE",
"330 699 LINE"
);
},
{
closed = 1;
nodes = (
"125 213 LINE",
"559 213 LINE",
"559 233 LINE",
"125 233 LINE"
);
}
);
width = 686;
},
{
anchors = (
{
name = ogonek;
position = "{809, 10}";
},
{
name = top;
position = "{400, 701}";
}
);
layerId = "5DA6E103-6A94-47F2-987D-4952DB8EA68E";
paths = (
{
closed = 1;
nodes = (
"-10 0 LINE",
"228 0 LINE",
"398 470 LINE",
"562 0 LINE",
"809 0 LINE",
"524 701 LINE",
"286 701 LINE"
);
},
{
closed = 1;
nodes = (
"190 99 LINE SMOOTH",
"592 99 LINE",
"592 265 LINE",
"190 265 LINE"
);
}
);
width = 799;
},
{
anchors = (
{
name = ogonek;
position = "{768.077, 10}";
},
{
name = top;
position = "{369.307, 699.923}";
}
);
layerId = "1C84A7F3-C40A-4DC1-B8B4-102D183C348F";
paths = (
{
closed = 1;
nodes = (
"0.769 0 LINE",
"123.539 0 LINE",
"367.307 580.923 LINE",
"611 0 LINE",
"737.385 0 LINE",
"431.385 699.923 LINE",
"309.692 699.923 LINE"
);
},
{
closed = 1;
nodes = (
"155.316 161.842 LINE",
"574.158 161.842 LINE",
"574.158 262.368 LINE",
"155.316 262.368 LINE"
);
}
);
width = 738;
}
);
leftKerningGroup = A;
rightKerningGroup = A;
unicode = 0041;
},
{
glyphname = A.ss01;
lastChange = "2016-08-01 01:22:09 +0000";
layers = (
{
anchors = (
{
name = ogonek;
position = "{697, 10}";
},
{
name = top;
position = "{387, 699}";
}
);
layerId = UUID0;
paths = (
{
closed = 1;
nodes = (
"110 0 LINE",
"130 0 LINE",
"130 224.775 LINE",
"644 224.775 LINE",
"644 0 LINE",
"664 0 LINE",
"664 415 LINE SMOOTH",
"664 594 OFFCURVE",
"562 699 OFFCURVE",
"387 699 CURVE SMOOTH",
"212 699 OFFCURVE",
"110 594 OFFCURVE",
"110 415 CURVE SMOOTH"
);
},
{
closed = 1;
nodes = (
"644 245 LINE",
"130 245 LINE",
"130 415 LINE SMOOTH",
"130 581 OFFCURVE",
"225 679 OFFCURVE",
"387 679 CURVE SMOOTH",
"549 679 OFFCURVE",
"644 581 OFFCURVE",
"644 415 CURVE SMOOTH"
);
}
);
width = 774;
},
{
anchors = (
{
name = ogonek;
position = "{723, 10}";
},
{
name = top;
position = "{380, 701}";
}
);
layerId = "5DA6E103-6A94-47F2-987D-4952DB8EA68E";
paths = (
{
closed = 1;
nodes = (
"40 0 LINE",
"272 0 LINE",
"272 149 LINE",
"487 149 LINE",
"487 0 LINE",
"719 0 LINE",
"719 402 LINE SMOOTH",
"719 588 OFFCURVE",
"585 710 OFFCURVE",
"377 710 CURVE SMOOTH",
"172 710 OFFCURVE",
"40 588 OFFCURVE",
"40 402 CURVE SMOOTH"
);
},
{
closed = 1;
nodes = (
"487 315 LINE",
"272 315 LINE",
"272 402 LINE SMOOTH",
"272 471 OFFCURVE",
"314 517 OFFCURVE",
"379 517 CURVE SMOOTH",
"444 517 OFFCURVE",
"487 471 OFFCURVE",
"487 402 CURVE SMOOTH"
);
}
);
width = 759;
},
{
anchors = (
{
name = ogonek;
position = "{727.316, 10}";
},
{
name = top;
position = "{383.211, 699.947}";
}
);
layerId = "1C84A7F3-C40A-4DC1-B8B4-102D183C348F";
paths = (
{
closed = 1;
nodes = (
"77.692 0 LINE",
"195.538 0 LINE",
"195.538 189.802 LINE",
"571.539 189.802 LINE",
"571.539 0 LINE",
"689.385 0 LINE",
"689.385 409 LINE SMOOTH",
"689.385 591.231 OFFCURVE",
"572.615 704.077 OFFCURVE",
"382.384 704.077 CURVE SMOOTH",
"193.539 704.077 OFFCURVE",
"77.692 591.231 OFFCURVE",
"77.692 409 CURVE SMOOTH"
);
},
{
closed = 1;
nodes = (
"572 290.474 LINE",
"195.368 290.474 LINE",
"195.538 409 LINE SMOOTH",
"195.368 529.842 OFFCURVE",
"266.077 604.231 OFFCURVE",
"383.308 604.231 CURVE SMOOTH",
"500.538 604.231 OFFCURVE",
"571.053 529.842 OFFCURVE",
"571.539 409 CURVE SMOOTH"
);
}
);
width = 766;
}
);
leftKerningGroup = A.ss01;
leftMetricsKey = U;
rightKerningGroup = A.ss01;
rightMetricsKey = U;
},
{
glyphname = Aogonek;
lastChange = "2016-08-01 01:22:09 +0000";
layers = (
{
layerId = UUID0;
paths = (
{
closed = 1;
nodes = (
"676 0 LINE",
"352 699 LINE",
"330 699 LINE",
"10 0 LINE",
"34 0 LINE",
"130.732 213 LINE",
"554.692 213 LINE",
"653 0 LINE",
"654 0 LINE",
"612 -62 OFFCURVE",
"595 -99 OFFCURVE",
"595 -131 CURVE SMOOTH",
"595 -172 OFFCURVE",
"623 -199 OFFCURVE",
"659 -199 CURVE SMOOTH",
"686 -199 OFFCURVE",
"714 -181 OFFCURVE",
"733 -159 CURVE",
"719 -145 LINE",
"701 -165 OFFCURVE",
"681 -179 OFFCURVE",
"659 -179 CURVE SMOOTH",
"634 -179 OFFCURVE",
"615 -162 OFFCURVE",
"615 -131 CURVE SMOOTH",
"615 -102 OFFCURVE",
"624 -69 OFFCURVE",
"675 0 CURVE"
);
},
{
closed = 1;
nodes = (
"545.462 233 LINE",
"139.815 233 LINE",
"341 676 LINE"
);
}
);
width = 686;
},
{
layerId = "5DA6E103-6A94-47F2-987D-4952DB8EA68E";
paths = (
{
closed = 1;
nodes = (
"809 0 LINE",
"524 701 LINE",
"286 701 LINE",
"-10 0 LINE",
"228 0 LINE",
"263.808 99 LINE",
"527.455 99 LINE",
"562 0 LINE",
"635.858 0 LINE",
"612.094 -36 OFFCURVE",
"593 -75 OFFCURVE",
"593 -116 CURVE SMOOTH",
"593 -185 OFFCURVE",
"647 -204 OFFCURVE",
"689 -204 CURVE SMOOTH",
"738 -204 OFFCURVE",
"781 -179 OFFCURVE",
"809 -128 CURVE",
"754 -64 LINE",
"743 -83 OFFCURVE",
"730 -94 OFFCURVE",
"717 -94 CURVE SMOOTH",
"709 -94 OFFCURVE",
"703 -89 OFFCURVE",
"703 -79 CURVE SMOOTH",
"703 -63 OFFCURVE",
"718.768 -33 OFFCURVE",
"741.251 0 CURVE"
);
},
{
closed = 1;
nodes = (
"469.532 265 LINE",
"323.851 265 LINE",
"398 470 LINE"
);
}
);
width = 799;
},
{
layerId = "1C84A7F3-C40A-4DC1-B8B4-102D183C348F";
paths = (
{
closed = 1;
nodes = (
"738 0 LINE",
"432 700 LINE",
"310 700 LINE",
"1 0 LINE",
"124 0 LINE",
"192 162 LINE",
"544 162 LINE",
"612 0 LINE",
"646 0 LINE",
"613 -48 OFFCURVE",
"594 -87 OFFCURVE",
"594 -124 CURVE SMOOTH",
"594 -178 OFFCURVE",
"635 -201 OFFCURVE",
"673 -201 CURVE SMOOTH",
"710 -201 OFFCURVE",
"746 -180 OFFCURVE",
"768 -145 CURVE",
"735 -108 LINE",
"720 -127 OFFCURVE",
"704 -140 OFFCURVE",
"686 -140 CURVE SMOOTH",
"668 -140 OFFCURVE",
"656 -128 OFFCURVE",
"656 -107 CURVE SMOOTH",
"656 -83 OFFCURVE",
"671 -49 OFFCURVE",
"705 0 CURVE"
);
},
{
closed = 1;
nodes = (
"502 262 LINE",
"234 262 LINE",
"368 581 LINE"
);
}
);
width = 738;
}
);
leftKerningGroup = A;
rightKerningGroup = A;
unicode = 0104;
},
{
glyphname = Aogonek.ss01;
lastChange = "2016-08-01 01:22:09 +0000";
layers = (
{
layerId = UUID0;
paths = (
{
closed = 1;
nodes = (
"110 0 LINE",
"130 0 LINE",
"130 225 LINE",
"644 225 LINE",
"644 0 LINE",
"645 0 LINE",
"601 -63 OFFCURVE",
"583 -99 OFFCURVE",
"583 -131 CURVE SMOOTH",
"583 -172 OFFCURVE",
"611 -199 OFFCURVE",
"647 -199 CURVE SMOOTH",
"674 -199 OFFCURVE",
"702 -181 OFFCURVE",
"721 -159 CURVE",
"707 -145 LINE",
"689 -165 OFFCURVE",
"669 -179 OFFCURVE",
"647 -179 CURVE SMOOTH",
"622 -179 OFFCURVE",
"603 -162 OFFCURVE",
"603 -131 CURVE SMOOTH",
"603 -102 OFFCURVE",
"612 -69 OFFCURVE",
"663 0 CURVE",
"664 0 LINE",
"664 415 LINE SMOOTH",
"664 594 OFFCURVE",
"562 699 OFFCURVE",
"387 699 CURVE SMOOTH",
"212 699 OFFCURVE",
"110 594 OFFCURVE",
"110 415 CURVE SMOOTH"
);
},
{
closed = 1;
nodes = (
"644 245 LINE",
"130 245 LINE",
"130 415 LINE SMOOTH",
"130 581 OFFCURVE",
"225 679 OFFCURVE",
"387 679 CURVE SMOOTH",
"549 679 OFFCURVE",
"644 581 OFFCURVE",
"644 415 CURVE SMOOTH"
);
}
);
width = 774;
},
{
layerId = "5DA6E103-6A94-47F2-987D-4952DB8EA68E";
paths = (
{
closed = 1;
nodes = (
"40 0 LINE",
"272 0 LINE",
"272 149 LINE",
"487 149 LINE",
"487 0 LINE",
"549.858 0 LINE",
"526.094 -36 OFFCURVE",
"507 -75 OFFCURVE",
"507 -116 CURVE SMOOTH",
"507 -185 OFFCURVE",
"561 -204 OFFCURVE",
"603 -204 CURVE SMOOTH",
"652 -204 OFFCURVE",
"695 -179 OFFCURVE",
"723 -128 CURVE",
"668 -64 LINE",
"657 -83 OFFCURVE",
"644 -94 OFFCURVE",
"631 -94 CURVE SMOOTH",
"623 -94 OFFCURVE",
"617 -89 OFFCURVE",
"617 -79 CURVE SMOOTH",
"617 -63 OFFCURVE",
"632.768 -33 OFFCURVE",
"655.251 0 CURVE",
"719 0 LINE",
"719 402 LINE SMOOTH",
"719 588 OFFCURVE",
"585 710 OFFCURVE",
"377 710 CURVE SMOOTH",
"172 710 OFFCURVE",
"40 588 OFFCURVE",
"40 402 CURVE SMOOTH"
);
},
{
closed = 1;
nodes = (
"487 315 LINE",
"272 315 LINE",
"272 402 LINE SMOOTH",
"272 471 OFFCURVE",
"314 517 OFFCURVE",
"379 517 CURVE SMOOTH",
"444 517 OFFCURVE",
"487 471 OFFCURVE",
"487 402 CURVE SMOOTH"
);
}
);
width = 759;
},
{
layerId = "1C84A7F3-C40A-4DC1-B8B4-102D183C348F";
paths = (
{
closed = 1;
nodes = (
"77.692 0 LINE",
"195.538 0 LINE",
"195.538 189.814 LINE",
"571.539 189.814 LINE",
"571.539 0 LINE",
"606.544 0 LINE",
"573.246 -48 OFFCURVE",
"554.579 -87 OFFCURVE",
"554.579 -124 CURVE SMOOTH",
"554.579 -178 OFFCURVE",
"594.895 -201 OFFCURVE",
"633.737 -201 CURVE SMOOTH",
"670.211 -201 OFFCURVE",
"705.789 -180 OFFCURVE",
"728.579 -145 CURVE",
"695.632 -108 LINE",
"680.474 -127 OFFCURVE",
"664.263 -140 OFFCURVE",
"646.053 -140 CURVE SMOOTH",
"628.632 -140 OFFCURVE",
"616.263 -128 OFFCURVE",
"616.263 -107 CURVE SMOOTH",
"616.263 -83 OFFCURVE",
"631.343 -49 OFFCURVE",
"665.491 0 CURVE",
"689.579 0 LINE",
"689.385 409 LINE SMOOTH",
"689.385 591.231 OFFCURVE",
"572.615 704.077 OFFCURVE",
"382.384 704.077 CURVE SMOOTH",
"193.539 704.077 OFFCURVE",
"77.692 591.231 OFFCURVE",
"77.692 409 CURVE SMOOTH"
);
},
{
closed = 1;
nodes = (
"571.539 290.474 LINE",
"195.368 290.474 LINE",
"195.368 409 LINE SMOOTH",
"195.368 529.842 OFFCURVE",
"266.077 604.231 OFFCURVE",
"383.308 604.231 CURVE SMOOTH",
"500.538 604.231 OFFCURVE",
"571.053 529.842 OFFCURVE",
"571.539 409 CURVE SMOOTH"
);
}
);
width = 774;
}
);
leftKerningGroup = Aogonek.ss01;
rightKerningGroup = Aogonek.ss01;
},
{
glyphname = Aring;
lastChange = "2016-08-01 01:22:09 +0000";
layers = (
{
components = (
{
name = A;
}
);
layerId = UUID0;
paths = (
{
closed = 1;
nodes = (
"282 896 OFFCURVE",
"231 845 OFFCURVE",
"231 787 CURVE SMOOTH",
"231 729 OFFCURVE",
"282 679 OFFCURVE",
"343 679 CURVE SMOOTH",
"404 679 OFFCURVE",
"456 729 OFFCURVE",
"456 787 CURVE SMOOTH",
"456 845 OFFCURVE",
"404 896 OFFCURVE",
"343 896 CURVE SMOOTH"
);
},
{
closed = 1;
nodes = (
"393 876 OFFCURVE",
"436 835 OFFCURVE",
"436 787 CURVE SMOOTH",
"436 739 OFFCURVE",
"393 699 OFFCURVE",
"343 699 CURVE SMOOTH",
"293 699 OFFCURVE",
"251 739 OFFCURVE",
"251 787 CURVE SMOOTH",
"251 835 OFFCURVE",
"293 876 OFFCURVE",
"343 876 CURVE SMOOTH"
);
}
);
width = 686;
},
{
components = (
{
name = A;
}
);
layerId = "5DA6E103-6A94-47F2-987D-4952DB8EA68E";
paths = (
{
closed = 1;
nodes = (
"329 895 OFFCURVE",
"270 836 OFFCURVE",
"270 761 CURVE SMOOTH",
"270 686 OFFCURVE",
"329 627 OFFCURVE",
"404 627 CURVE SMOOTH",
"479 627 OFFCURVE",
"538 686 OFFCURVE",
"538 761 CURVE SMOOTH",
"538 836 OFFCURVE",
"479 895 OFFCURVE",
"404 895 CURVE SMOOTH"
);
},
{
closed = 1;
nodes = (
"428 803 OFFCURVE",
"446 785 OFFCURVE",
"446 761 CURVE SMOOTH",
"446 737 OFFCURVE",
"428 719 OFFCURVE",
"404 719 CURVE SMOOTH",
"380 719 OFFCURVE",
"362 737 OFFCURVE",
"362 761 CURVE SMOOTH",
"362 785 OFFCURVE",
"380 803 OFFCURVE",
"404 803 CURVE SMOOTH"
);
}
);
width = 799;
},
{
components = (
{
name = A;
}
);
layerId = "1C84A7F3-C40A-4DC1-B8B4-102D183C348F";
paths = (
{
closed = 1;
nodes = (
"303.692 895.539 OFFCURVE",
"249 840.846 OFFCURVE",
"249 775 CURVE SMOOTH",
"249 709.154 OFFCURVE",
"303.692 655 OFFCURVE",
"371.154 655 CURVE SMOOTH",
"438.615 655 OFFCURVE",
"493.846 709.154 OFFCURVE",
"493.846 775 CURVE SMOOTH",
"493.846 840.846 OFFCURVE",
"438.615 895.539 OFFCURVE",
"371.154 895.539 CURVE SMOOTH"
);
},
{
closed = 1;
nodes = (
"409.154 842.308 OFFCURVE",
"440.616 811.923 OFFCURVE",
"440.616 775 CURVE SMOOTH",
"440.616 738.077 OFFCURVE",
"409.154 708.231 OFFCURVE",
"371.154 708.231 CURVE SMOOTH",
"333.154 708.231 OFFCURVE",
"302.231 738.077 OFFCURVE",
"302.231 775 CURVE SMOOTH",
"302.231 811.923 OFFCURVE",
"333.154 842.308 OFFCURVE",
"371.154 842.308 CURVE SMOOTH"
);
}
);
width = 738;
}
);
leftKerningGroup = A;
leftMetricsKey = A;
rightKerningGroup = A;
rightMetricsKey = A;
unicode = 00C5;
},
{
glyphname = AE;
lastChange = "2016-08-01 01:22:09 +0000";
layers = (
{
anchors = (
{
name = bottom;
position = "{665, 0}";
},
{
name = ogonek;
position = "{923, 10}";
},
{
name = top;
position = "{598, 699}";
}
);
layerId = UUID0;
paths = (
{
closed = 1;
nodes = (
"471 0 LINE",
"922 0 LINE",
"922 20 LINE",
"491 20 LINE",
"491 350 LINE",
"862 350 LINE",
"862 370 LINE",
"491 370 LINE",
"491 679 LINE",
"908 679 LINE",
"908 699 LINE",
"471 699 LINE"
);
},
{
closed = 1;
nodes = (
"10 0 LINE",
"34 0 LINE",
"442 679 LINE",
"730 679 LINE",
"736 699 LINE",
"431 699 LINE"
);
},
{
closed = 1;
nodes = (
"156 223 LINE",
"486 223 LINE",
"487 243 LINE",
"157 243 LINE"
);
}
);
width = 987;
},
{
anchors = (
{
name = bottom;
position = "{808, 0}";
},
{
name = ogonek;
position = "{1101, 10}";
},
{
name = top;
position = "{658, 701}";
}
);
layerId = "5DA6E103-6A94-47F2-987D-4952DB8EA68E";
paths = (
{
closed = 1;
nodes = (
"507 0 LINE",
"1109 0 LINE",
"1109 176 LINE",
"739 176 LINE",
"739 263 LINE",
"1067 263 LINE",
"1067 439 LINE",
"739 439 LINE",
"739 525 LINE",
"1100 525 LINE",
"1100 701 LINE",
"507 701 LINE"
);
},
{
closed = 1;
nodes = (
"-10 0 LINE",
"230 0 LINE",
"490 525 LINE",
"784 525 LINE",
"776 701 LINE",
"380 701 LINE"
);
},
{
closed = 1;
nodes = (
"220 122 LINE",
"623 122 LINE",
"628 288 LINE",
"225 288 LINE"
);
}
);
width = 1147;
},
{
anchors = (
{
name = bottom;
position = "{727.089, 0}";
},
{
name = ogonek;
position = "{995.51, 10}";
},
{
name = top;
position = "{625.693, 699.923}";
}
);
layerId = "1C84A7F3-C40A-4DC1-B8B4-102D183C348F";
paths = (
{
closed = 1;
nodes = (
"488 0 LINE",
"999 0 LINE",
"999 101 LINE",
"605 101 LINE",
"605 302 LINE",
"948 302 LINE",
"948 402 LINE",
"605 402 LINE",
"605 599 LINE",
"987 599 LINE",
"987 700 LINE",
"488 700 LINE"
);
},
{
closed = 1;
nodes = (
"0.769 0 LINE",
"124.461 0 LINE",
"464.154 607.923 LINE",
"754.923 607.923 LINE",
"754.461 699.923 LINE",
"407.462 699.923 LINE"
);
},
{
closed = 1;
nodes = (
"185.538 176.385 LINE",
"549.231 176.385 LINE",
"552.077 263.769 LINE",
"188.384 263.769 LINE"
);
}
);
width = 1051;
}
);
leftKerningGroup = A;
leftMetricsKey = A;
rightKerningGroup = E;
rightMetricsKey = E;
unicode = 00C6;
},
{
glyphname = B;
lastChange = "2016-08-01 01:22:09 +0000";
layers = (
{
layerId = UUID0;
paths = (
{
closed = 1;
nodes = (
"128 699 LINE",
"128 0 LINE",
"409 0 LINE SMOOTH",
"568 0 OFFCURVE",
"659 68 OFFCURVE",
"659 187 CURVE SMOOTH",
"659 286 OFFCURVE",
"595 351 OFFCURVE",
"484 364 CURVE",
"572 379 OFFCURVE",
"622 438 OFFCURVE",
"622 526 CURVE SMOOTH",
"622 636 OFFCURVE",
"544 699 OFFCURVE",
"409 699 CURVE SMOOTH"
);
},
{
closed = 1;
nodes = (
"148 372 LINE",
"148 679 LINE",
"409 679 LINE SMOOTH",
"532 679 OFFCURVE",
"602 623 OFFCURVE",
"602 526 CURVE SMOOTH",
"602 428 OFFCURVE",
"532 372 OFFCURVE",
"409 372 CURVE SMOOTH"
);
},
{
closed = 1;
nodes = (
"148 20 LINE",
"148 353 LINE",
"409 353 LINE SMOOTH",
"556 353 OFFCURVE",
"640 293 OFFCURVE",
"640 188 CURVE SMOOTH",
"640 81 OFFCURVE",
"556 20 OFFCURVE",
"409 20 CURVE SMOOTH"
);
}
);
width = 731;
},
{
layerId = "5DA6E103-6A94-47F2-987D-4952DB8EA68E";
paths = (
{
closed = 1;
nodes = (
"50 701 LINE",
"50 0 LINE",
"422 0 LINE SMOOTH",
"593 0 OFFCURVE",
"704 77 OFFCURVE",
"704 197 CURVE SMOOTH",
"704 285 OFFCURVE",
"649 355 OFFCURVE",
"565 374 CURVE",
"637 396 OFFCURVE",
"683 455 OFFCURVE",
"683 524 CURVE SMOOTH",
"683 631 OFFCURVE",
"574 701 OFFCURVE",
"405 701 CURVE SMOOTH"
);
},
{
closed = 1;
nodes = (
"281 431 LINE",
"281 531 LINE",
"392 531 LINE SMOOTH",
"424 531 OFFCURVE",
"445 512 OFFCURVE",
"445 482 CURVE SMOOTH",
"445 451 OFFCURVE",
"424 431 OFFCURVE",
"392 431 CURVE SMOOTH"
);
},
{
closed = 1;
nodes = (
"281 170 LINE",
"281 277 LINE",
"392 277 LINE SMOOTH",
"435 277 OFFCURVE",
"463 257 OFFCURVE",
"463 226 CURVE SMOOTH",
"463 192 OFFCURVE",
"435 170 OFFCURVE",
"392 170 CURVE SMOOTH"
);
}
);
width = 724;
},
{
layerId = "1C84A7F3-C40A-4DC1-B8B4-102D183C348F";
paths = (
{
closed = 1;
nodes = (
"92 699.923 LINE",
"92 0 LINE",
"403.316 0 LINE SMOOTH",
"561.368 0 OFFCURVE",
"658.053 71.79 OFFCURVE",
"658.053 191.737 CURVE SMOOTH",
"658.053 286 OFFCURVE",
"601.632 352.895 OFFCURVE",
"507.684 368.737 CURVE",
"584.316 386.579 OFFCURVE",
"630.526 445.579 OFFCURVE",
"630.526 525.053 CURVE SMOOTH",
"630.526 634.105 OFFCURVE",
"541.158 699.947 OFFCURVE",
"395.737 699.947 CURVE SMOOTH"
);
},
{
closed = 1;
nodes = (
"209.579 408.947 LINE",
"209.579 599.421 LINE",
"390.053 599.421 LINE SMOOTH",
"464.737 599.421 OFFCURVE",
"510.105 566.158 OFFCURVE",
"510.105 506.105 CURVE SMOOTH",
"510.105 444.105 OFFCURVE",
"464.737 408.947 OFFCURVE",
"390.053 408.947 CURVE SMOOTH"
);
},
{
closed = 1;
nodes = (
"209.579 100.526 LINE",
"209.579 308.474 LINE",
"390.053 308.474 LINE SMOOTH",
"482.105 308.474 OFFCURVE",
"536.737 270.263 OFFCURVE",
"536.737 206 CURVE SMOOTH",
"536.737 137.842 OFFCURVE",
"482.105 100.526 OFFCURVE",
"390.053 100.526 CURVE SMOOTH"
);
}
);
width = 706;
}
);
leftKerningGroup = H;
rightKerningGroup = B;
unicode = 0042;
},
{
glyphname = C;
lastChange = "2016-08-01 01:22:09 +0000";
layers = (
{
anchors = (
{
name = bottom;
position = "{397, 0}";
},
{
name = top;
position = "{353, 699}";
}
);
layerId = UUID0;
paths = (
{
closed = 1;
nodes = (
"649 609 LINE",
"585 665 OFFCURVE",
"501 699 OFFCURVE",
"409 699 CURVE SMOOTH",
"212 699 OFFCURVE",
"50 542 OFFCURVE",
"50 350 CURVE SMOOTH",
"50 158 OFFCURVE",
"212 0 OFFCURVE",
"409 0 CURVE SMOOTH",
"501 0 OFFCURVE",
"586 35 OFFCURVE",
"650 91 CURVE",
"636 104 LINE",
"576 51 OFFCURVE",
"496 19 OFFCURVE",
"409 19 CURVE SMOOTH",
"222 19 OFFCURVE",
"69 168 OFFCURVE",
"69 350 CURVE SMOOTH",
"69 532 OFFCURVE",
"222 680 OFFCURVE",
"409 680 CURVE SMOOTH",
"496 680 OFFCURVE",
"576 649 OFFCURVE",
"636 596 CURVE"
);
}
);
width = 705;
},
{
anchors = (
{
name = bottom;
position = "{368, 0}";
},
{
name = top;
position = "{394, 701}";
}
);
layerId = "5DA6E103-6A94-47F2-987D-4952DB8EA68E";
paths = (
{
closed = 1;
nodes = (
"691 580 LINE",
"619 658 OFFCURVE",
"502 708 OFFCURVE",
"395 708 CURVE SMOOTH",
"175 708 OFFCURVE",
"15 558 OFFCURVE",
"15 352 CURVE SMOOTH",
"15 143 OFFCURVE",
"171 -10 OFFCURVE",
"386 -10 CURVE SMOOTH",
"494 -10 OFFCURVE",
"613 45 OFFCURVE",
"691 130 CURVE",
"557 273 LINE",
"511 224 OFFCURVE",
"448 193 OFFCURVE",
"398 193 CURVE SMOOTH",
"314 193 OFFCURVE",
"253 261 OFFCURVE",
"253 355 CURVE SMOOTH",
"253 448 OFFCURVE",
"314 515 OFFCURVE",
"398 515 CURVE SMOOTH",
"452 515 OFFCURVE",
"515 478 OFFCURVE",
"557 421 CURVE"
);
}
);
width = 688;
},
{
anchors = (
{
name = bottom;
position = "{383, 0}";
},
{
name = top;
position = "{372, 700}";
}
);
layerId = "1C84A7F3-C40A-4DC1-B8B4-102D183C348F";
paths = (
{
closed = 1;
nodes = (
"668 596 LINE",
"600 662 OFFCURVE",
"501 703 OFFCURVE",
"402 703 CURVE SMOOTH",
"195 703 OFFCURVE",
"34 549 OFFCURVE",
"34 351 CURVE SMOOTH",
"34 151 OFFCURVE",
"193 -5 OFFCURVE",
"398 -5 CURVE SMOOTH",
"497 -5 OFFCURVE",
"598 40 OFFCURVE",
"669 109 CURVE",
"599 182 LINE",
"546 131 OFFCURVE",
"474 99 OFFCURVE",
"404 99 CURVE SMOOTH",
"264 99 OFFCURVE",
"154 211 OFFCURVE",
"154 352 CURVE SMOOTH",
"154 493 OFFCURVE",
"264 604 OFFCURVE",
"404 604 CURVE SMOOTH",
"475 604 OFFCURVE",
"548 570 OFFCURVE",
"599 515 CURVE"
);
}
);
width = 697;
}
);
leftKerningGroup = O;
rightKerningGroup = C;
unicode = 0043;
},
{
glyphname = D;
lastChange = "2016-08-01 01:22:09 +0000";
layers = (
{
anchors = (
{
name = center;
position = "{406, 350}";
},
{
name = top;
position = "{386, 699}";
}
);
layerId = UUID0;
paths = (
{
closed = 1;
nodes = (
"128 699 LINE",
"128 0 LINE",
"403 0 LINE SMOOTH",
"600 0 OFFCURVE",
"761 157 OFFCURVE",
"761 349 CURVE SMOOTH",
"761 542 OFFCURVE",
"600 699 OFFCURVE",
"403 699 CURVE SMOOTH"
);
},
{
closed = 1;
nodes = (
"148 20 LINE",
"148 679 LINE",
"403 679 LINE SMOOTH",
"589 679 OFFCURVE",
"741 531 OFFCURVE",
"741 349 CURVE SMOOTH",
"741 168 OFFCURVE",
"589 20 OFFCURVE",
"403 20 CURVE SMOOTH"
);
}
);
width = 811;
},
{
anchors = (
{
name = center;
position = "{372, 351}";
},
{
name = top;
position = "{352, 701}";
}
);
layerId = "5DA6E103-6A94-47F2-987D-4952DB8EA68E";
paths = (
{
closed = 1;
nodes = (
"50 701 LINE",
"50 0 LINE",
"354 0 LINE SMOOTH",
"591 0 OFFCURVE",
"744 138 OFFCURVE",
"744 351 CURVE SMOOTH",
"744 564 OFFCURVE",
"594 701 OFFCURVE",
"363 701 CURVE SMOOTH"
);
},
{
closed = 1;
nodes = (
"282 180 LINE",
"282 521 LINE",
"358 521 LINE SMOOTH",
"448 521 OFFCURVE",
"507 453 OFFCURVE",
"507 349 CURVE SMOOTH",
"507 246 OFFCURVE",
"453 180 OFFCURVE",
"369 180 CURVE SMOOTH"
);
}
);
width = 759;
},
{
anchors = (
{
name = center;
position = "{385.158, 350}";
},
{
name = top;
position = "{365.158, 699.947}";
}
);
layerId = "1C84A7F3-C40A-4DC1-B8B4-102D183C348F";
paths = (
{
closed = 1;
nodes = (
"92 699.923 LINE",
"92 0 LINE",
"375.526 0 LINE SMOOTH",
"587.684 0 OFFCURVE",
"741.105 148.474 OFFCURVE",
"741.105 349.947 CURVE SMOOTH",
"741.105 552.421 OFFCURVE",
"588.632 699.947 OFFCURVE",
"379.316 699.947 CURVE SMOOTH"
);
},
{
closed = 1;
nodes = (
"209.579 100.526 LINE",
"209.579 599.421 LINE",
"377.421 599.421 LINE SMOOTH",
"515.105 599.421 OFFCURVE",
"621.632 495 OFFCURVE",
"621.632 349 CURVE SMOOTH",
"621.632 204 OFFCURVE",
"517.947 100.526 OFFCURVE",
"382.158 100.526 CURVE SMOOTH"
);
}
);
width = 775;
}
);
leftKerningGroup = H;
rightKerningGroup = O;
unicode = 0044;
},
{
glyphname = Eth;
lastChange = "2016-08-01 01:22:09 +0000";
layers = (
{
components = (
{
name = D;
}
);
layerId = UUID0;
paths = (
{
closed = 1;
nodes = (
"0 342 LINE",
"410 342 LINE",
"410 362 LINE",
"0 362 LINE"
);
}
);
width = 811;
},
{
components = (
{
name = D;
transform = "{1, 0, 0, 1, 43, 0}";
}
);
layerId = "5DA6E103-6A94-47F2-987D-4952DB8EA68E";
paths = (
{
closed = 1;
nodes = (
"0 291 LINE",
"448 291 LINE",
"448 410 LINE",
"0 410 LINE"
);
}
);
width = 802;
},
{
components = (
{
name = D;
transform = "{1, 0, 0, 1, 19.846, 0}";
}
);
layerId = "1C84A7F3-C40A-4DC1-B8B4-102D183C348F";
paths = (
{
closed = 1;
nodes = (
"0 318.462 LINE",
"427.539 318.462 LINE",
"427.539 384.154 LINE",
"0 384.154 LINE"
);
}
);
width = 795;
}
);
leftKerningGroup = H;
rightKerningGroup = O;
rightMetricsKey = D;
unicode = 00D0;
},
{
glyphname = E;
lastChange = "2016-08-01 01:22:09 +0000";
layers = (
{
anchors = (
{
name = bottom;
position = "{322, 0}";
},
{
name = ogonek;
position = "{580, 10}";
},
{
name = top;
position = "{351, 699}";
}
);
layerId = UUID0;
paths = (
{
closed = 1;
nodes = (
"128 0 LINE",
"579 0 LINE",
"579 20 LINE",
"148 20 LINE",
"148 350 LINE",
"519 350 LINE",
"519 370 LINE",
"148 370 LINE",
"148 679 LINE",
"565 679 LINE",
"565 699 LINE",
"128 699 LINE"
);
}
);
width = 644;
},
{
anchors = (
{
name = bottom;
position = "{351, 0}";
},
{
name = ogonek;
position = "{644, 10}";
},
{
name = top;
position = "{348, 701}";
}
);
layerId = "5DA6E103-6A94-47F2-987D-4952DB8EA68E";
paths = (
{
closed = 1;
nodes = (
"50 0 LINE",
"652 0 LINE",
"652 176 LINE",
"282 176 LINE",
"282 263 LINE",
"610 263 LINE",
"610 439 LINE",
"282 439 LINE",
"282 525 LINE",
"643 525 LINE",
"643 701 LINE",
"50 701 LINE"
);
}
);
width = 690;
},
{
anchors = (
{
name = bottom;
position = "{331.474, 0}";
},
{
name = ogonek;
position = "{599.895, 10}";
},
{
name = top;
position = "{344.368, 699.947}";
}
);
layerId = "1C84A7F3-C40A-4DC1-B8B4-102D183C348F";
paths = (
{
closed = 1;
nodes = (
"92 0 LINE",
"603.632 0 LINE",
"603.632 100.526 LINE",
"209.579 100.526 LINE",
"209.579 301.684 LINE",
"552 302 LINE",
"552 402 LINE",
"210 402 LINE",
"209.579 599.421 LINE",
"591.526 599.421 LINE",
"591.526 699.947 LINE",
"92 699.947 LINE"
);
}
);
width = 656;
}
);
leftKerningGroup = H;
rightKerningGroup = E;
unicode = 0045;
},
{
glyphname = E.ss01;
lastChange = "2016-08-01 01:22:09 +0000";
layers = (
{
anchors = (
{
name = bottom;
position = "{273, 0}";
},
{
name = ogonek;
position = "{488, 10}";
},
{
name = top;
position = "{273, 699}";
}
);
layerId = UUID0;
paths = (
{
closed = 1;
nodes = (
"430 360 LINE",
"430 380 LINE",
"321 380 LINE SMOOTH",
"201 380 OFFCURVE",
"114 442 OFFCURVE",
"114 528 CURVE SMOOTH",
"114 615 OFFCURVE",
"200 679 OFFCURVE",
"319 679 CURVE SMOOTH",
"373 679 OFFCURVE",
"439 665 OFFCURVE",
"475 646 CURVE",
"485 664 LINE",
"445 684 OFFCURVE",
"375 699 OFFCURVE",
"319 699 CURVE SMOOTH",
"189 699 OFFCURVE",
"94 627 OFFCURVE",
"94 528 CURVE SMOOTH",
"94 450 OFFCURVE",
"161 383 OFFCURVE",
"253 370 CURVE",
"144 358 OFFCURVE",
"64 282 OFFCURVE",
"64 189 CURVE SMOOTH",
"64 80 OFFCURVE",
"171 0 OFFCURVE",
"317 0 CURVE SMOOTH",
"384 0 OFFCURVE",
"469 21 OFFCURVE",
"517 49 CURVE",
"507 67 LINE",
"457 40 OFFCURVE",
"377 20 OFFCURVE",
"317 20 CURVE SMOOTH",
"182 20 OFFCURVE",
"84 91 OFFCURVE",
"84 189 CURVE SMOOTH",
"84 288 OFFCURVE",
"184 360 OFFCURVE",
"321 360 CURVE SMOOTH"
);
}
);
width = 542;
},
{
anchors = (
{
name = bottom;
position = "{308, 0}";
},
{
name = ogonek;
position = "{561, 10}";
},
{
name = top;
position = "{308, 701}";
}
);
layerId = "5DA6E103-6A94-47F2-987D-4952DB8EA68E";
paths = (
{
closed = 1;
nodes = (
"497 271 LINE",
"497 438 LINE",
"315 438 LINE SMOOTH",
"290 438 OFFCURVE",
"274 456 OFFCURVE",
"274 476 CURVE SMOOTH",
"274 508 OFFCURVE",
"313 525 OFFCURVE",
"366 525 CURVE SMOOTH",
"413 525 OFFCURVE",
"466 511 OFFCURVE",
"519 487 CURVE",
"592 656 LINE",
"535 688 OFFCURVE",
"430 711 OFFCURVE",
"336 711 CURVE SMOOTH",
"167 711 OFFCURVE",
"55 637 OFFCURVE",
"55 520 CURVE SMOOTH",
"55 457 OFFCURVE",
"87 396 OFFCURVE",
"137 369 CURVE",
"63 340 OFFCURVE",
"15 270 OFFCURVE",
"15 193 CURVE SMOOTH",
"15 69 OFFCURVE",
"139 -10 OFFCURVE",
"314 -10 CURVE SMOOTH",
"427 -10 OFFCURVE",
"546 23 OFFCURVE",
"615 67 CURVE",
"528 234 LINE",
"496 211 OFFCURVE",
"415 176 OFFCURVE",
"348 176 CURVE SMOOTH",
"296 176 OFFCURVE",
"255 197 OFFCURVE",
"255 230 CURVE SMOOTH",
"255 255 OFFCURVE",
"279 271 OFFCURVE",
"315 271 CURVE SMOOTH"
);
}
);
width = 625;
},
{
anchors = (
{
name = bottom;
position = "{290, 0}";
},
{
name = ogonek;
position = "{523, 10}";
},
{
name = top;
position = "{290, 700}";
}
);
layerId = "1C84A7F3-C40A-4DC1-B8B4-102D183C348F";
paths = (
{
closed = 1;
nodes = (
"461 314 LINE",
"461 414 LINE",
"319 414 LINE SMOOTH",
"241 414 OFFCURVE",
"188 458 OFFCURVE",
"188 515 CURVE SMOOTH",
"188 575 OFFCURVE",
"250 606 OFFCURVE",
"333 606 CURVE SMOOTH",
"385 606 OFFCURVE",
"449 594 OFFCURVE",
"496 573 CURVE",
"535 660 LINE",
"485 687 OFFCURVE",
"397 705 OFFCURVE",
"327 705 CURVE SMOOTH",
"179 705 OFFCURVE",
"77 631 OFFCURVE",
"77 526 CURVE SMOOTH",
"77 451 OFFCURVE",
"128 389 OFFCURVE",
"200 370 CURVE",
"104 349 OFFCURVE",
"42 274 OFFCURVE",
"42 190 CURVE SMOOTH",
"42 75 OFFCURVE",
"157 -5 OFFCURVE",
"315 -5 CURVE SMOOTH",
"405 -5 OFFCURVE",
"505 22 OFFCURVE",
"563 57 CURVE",
"517 144 LINE",
"474 119 OFFCURVE",
"389 94 OFFCURVE",
"320 94 CURVE SMOOTH",
"232 94 OFFCURVE",
"163 134 OFFCURVE",
"163 201 CURVE SMOOTH",
"163 266 OFFCURVE",
"228 314 OFFCURVE",
"319 314 CURVE SMOOTH"
);
}
);
width = 581;
}
);
leftKerningGroup = E.ss01;
leftMetricsKey = eight;
rightKerningGroup = E.ss01;
},
{
glyphname = Eogonek;
lastChange = "2016-08-01 01:22:09 +0000";
layers = (
{
layerId = UUID0;
paths = (
{
closed = 1;
nodes = (
"579 0 LINE",
"579 20 LINE",
"148 20 LINE",
"148 350 LINE",
"519 350 LINE",
"519 370 LINE",
"148 370 LINE",
"148 679 LINE",
"565 679 LINE",
"565 699 LINE",
"128 699 LINE",
"128 0 LINE",
"502 0 LINE",
"458 -62 OFFCURVE",
"442 -99 OFFCURVE",
"442 -131 CURVE SMOOTH",
"442 -172 OFFCURVE",
"470 -199 OFFCURVE",
"506 -199 CURVE SMOOTH",
"533 -199 OFFCURVE",
"561 -181 OFFCURVE",
"580 -159 CURVE",
"566 -145 LINE",
"548 -165 OFFCURVE",
"528 -179 OFFCURVE",
"506 -179 CURVE SMOOTH",
"481 -179 OFFCURVE",
"462 -162 OFFCURVE",
"462 -131 CURVE SMOOTH",
"462 -100 OFFCURVE",
"474 -66 OFFCURVE",
"522 0 CURVE"
);
}
);
width = 644;
},
{
layerId = "5DA6E103-6A94-47F2-987D-4952DB8EA68E";
paths = (
{
closed = 1;
nodes = (
"652 0 LINE",
"652 176 LINE",
"282 176 LINE",
"282 263 LINE",
"610 263 LINE",
"610 439 LINE",
"282 439 LINE",
"282 525 LINE",
"643 525 LINE",
"643 701 LINE",
"50 701 LINE",
"50 0 LINE",
"470.858 0 LINE",
"447.095 -36 OFFCURVE",
"428 -75 OFFCURVE",
"428 -116 CURVE SMOOTH",
"428 -185 OFFCURVE",
"482 -204 OFFCURVE",
"524 -204 CURVE SMOOTH",
"573 -204 OFFCURVE",
"616 -179 OFFCURVE",
"644 -128 CURVE",
"589 -64 LINE",
"578 -83 OFFCURVE",
"565 -94 OFFCURVE",
"552 -94 CURVE SMOOTH",
"544 -94 OFFCURVE",
"538 -89 OFFCURVE",
"538 -79 CURVE SMOOTH",
"538 -63 OFFCURVE",
"553.768 -33 OFFCURVE",
"576.251 0 CURVE"
);
}
);
width = 690;
},
{
layerId = "1C84A7F3-C40A-4DC1-B8B4-102D183C348F";
paths = (
{
closed = 1;
nodes = (
"612.692 0 LINE",
"612.692 92 LINE",
"209.846 92 LINE",
"209.846 309.846 LINE",
"561 309.846 LINE",
"561 401.846 LINE",
"209.846 401.846 LINE",
"209.846 607.923 LINE",
"601 607.923 LINE",
"601 699.923 LINE",
"92 699.923 LINE",
"92 0 LINE",
"487.627 0 LINE",
"452.967 -50 OFFCURVE",
"435.538 -88 OFFCURVE",
"435.538 -124 CURVE SMOOTH",
"435.538 -178 OFFCURVE",
"475.538 -201 OFFCURVE",
"514.307 -201 CURVE SMOOTH",
"551.461 -201 OFFCURVE",
"586.385 -180 OFFCURVE",
"609.538 -145 CURVE",
"576.615 -108 LINE",
"561.846 -127 OFFCURVE",
"545.077 -140 OFFCURVE",
"527.231 -140 CURVE SMOOTH",
"510.077 -140 OFFCURVE",
"497.077 -128 OFFCURVE",
"497.077 -107 CURVE SMOOTH",
"497.077 -83 OFFCURVE",
"510.816 -51 OFFCURVE",
"547.039 0 CURVE"
);
}
);
width = 665.231;
}
);
leftKerningGroup = H;
rightKerningGroup = E;
unicode = 0118;
},
{
glyphname = Eogonek.ss01;
lastChange = "2016-08-01 01:22:09 +0000";
layers = (
{
layerId = UUID0;
paths = (
{
closed = 1;
nodes = (
"426 360 LINE",
"426 380 LINE",
"317 380 LINE SMOOTH",
"197 380 OFFCURVE",
"110 442 OFFCURVE",
"110 528 CURVE SMOOTH",
"110 615 OFFCURVE",
"196 679 OFFCURVE",
"315 679 CURVE SMOOTH",
"369 679 OFFCURVE",
"435 665 OFFCURVE",
"471 646 CURVE",
"481 664 LINE",
"441 684 OFFCURVE",
"371 699 OFFCURVE",
"315 699 CURVE SMOOTH",
"185 699 OFFCURVE",
"90 627 OFFCURVE",
"90 528 CURVE SMOOTH",
"90 450 OFFCURVE",
"157 383 OFFCURVE",
"249 370 CURVE",
"140 358 OFFCURVE",
"60 282 OFFCURVE",
"60 189 CURVE SMOOTH",
"60 80 OFFCURVE",
"167 0 OFFCURVE",
"313 0 CURVE SMOOTH",
"380 0 OFFCURVE",
"465 21 OFFCURVE",
"513 49 CURVE",
"503 67 LINE",
"453 40 OFFCURVE",
"373 20 OFFCURVE",
"313 20 CURVE SMOOTH",
"178 20 OFFCURVE",
"80 91 OFFCURVE",
"80 189 CURVE SMOOTH",
"80 288 OFFCURVE",
"180 360 OFFCURVE",
"317 360 CURVE SMOOTH"
);
},
{
closed = 1;
nodes = (
"426 28 LINE",
"367 -47 OFFCURVE",
"346 -92 OFFCURVE",
"346 -131 CURVE SMOOTH",
"346 -172 OFFCURVE",
"374 -199 OFFCURVE",
"410 -199 CURVE SMOOTH",
"437 -199 OFFCURVE",
"465 -181 OFFCURVE",
"484 -159 CURVE",
"470 -145 LINE",
"452 -165 OFFCURVE",
"432 -179 OFFCURVE",
"410 -179 CURVE SMOOTH",
"385 -179 OFFCURVE",
"366 -162 OFFCURVE",
"366 -131 CURVE SMOOTH",
"366 -93 OFFCURVE",
"383 -50 OFFCURVE",
"451 32 CURVE"
);
}
);
width = 538;
},
{
layerId = "5DA6E103-6A94-47F2-987D-4952DB8EA68E";
paths = (
{
closed = 1;
nodes = (
"507 271 LINE",
"507 438 LINE",
"325 438 LINE SMOOTH",
"300 438 OFFCURVE",
"284 456 OFFCURVE",
"284 476 CURVE SMOOTH",
"284 508 OFFCURVE",
"323 525 OFFCURVE",
"376 525 CURVE SMOOTH",
"423 525 OFFCURVE",
"476 511 OFFCURVE",
"529 487 CURVE",
"602 656 LINE",
"545 688 OFFCURVE",
"440 711 OFFCURVE",
"346 711 CURVE SMOOTH",
"177 711 OFFCURVE",
"65 637 OFFCURVE",
"65 520 CURVE SMOOTH",
"65 457 OFFCURVE",
"97 396 OFFCURVE",
"147 369 CURVE",
"73 340 OFFCURVE",
"25 270 OFFCURVE",
"25 193 CURVE SMOOTH",
"25 69 OFFCURVE",
"149 -10 OFFCURVE",
"324 -10 CURVE SMOOTH",
"437 -10 OFFCURVE",
"556 23 OFFCURVE",
"625 67 CURVE",
"538 234 LINE",
"506 211 OFFCURVE",
"425 176 OFFCURVE",
"358 176 CURVE SMOOTH",
"306 176 OFFCURVE",
"265 197 OFFCURVE",
"265 230 CURVE SMOOTH",
"265 255 OFFCURVE",
"289 271 OFFCURVE",
"325 271 CURVE SMOOTH"
);
},
{
closed = 1;
nodes = (
"415 24 LINE",
"384 -17 OFFCURVE",
"355 -66 OFFCURVE",
"355 -116 CURVE SMOOTH",
"355 -185 OFFCURVE",
"409 -204 OFFCURVE",
"451 -204 CURVE SMOOTH",
"500 -204 OFFCURVE",
"543 -179 OFFCURVE",
"571 -128 CURVE",
"516 -64 LINE",
"505 -83 OFFCURVE",
"492 -94 OFFCURVE",
"479 -94 CURVE SMOOTH",
"471 -94 OFFCURVE",
"465 -89 OFFCURVE",
"465 -79 CURVE SMOOTH",
"465 -59 OFFCURVE",
"489 -19 OFFCURVE",
"520 24 CURVE"
);
}
);
width = 635;
},
{
layerId = "1C84A7F3-C40A-4DC1-B8B4-102D183C348F";
paths = (
{
closed = 1;
nodes = (
"463 314 LINE",
"463 414 LINE",
"321 414 LINE SMOOTH",
"243 414 OFFCURVE",
"190 458 OFFCURVE",
"190 515 CURVE SMOOTH",
"190 575 OFFCURVE",
"252 606 OFFCURVE",
"335 606 CURVE SMOOTH",
"387 606 OFFCURVE",
"451 594 OFFCURVE",
"498 573 CURVE",
"537 660 LINE",
"487 687 OFFCURVE",
"399 705 OFFCURVE",
"329 705 CURVE SMOOTH",
"181 705 OFFCURVE",
"79 631 OFFCURVE",
"79 526 CURVE SMOOTH",
"79 451 OFFCURVE",
"130 389 OFFCURVE",
"202 370 CURVE",
"106 349 OFFCURVE",
"44 274 OFFCURVE",
"44 190 CURVE SMOOTH",
"44 75 OFFCURVE",
"159 -5 OFFCURVE",
"317 -5 CURVE SMOOTH",
"407 -5 OFFCURVE",
"507 22 OFFCURVE",
"565 57 CURVE",
"519 144 LINE",
"476 119 OFFCURVE",
"391 94 OFFCURVE",
"322 94 CURVE SMOOTH",
"234 94 OFFCURVE",
"165 134 OFFCURVE",
"165 201 CURVE SMOOTH",
"165 266 OFFCURVE",
"230 314 OFFCURVE",
"321 314 CURVE SMOOTH"
);
},
{
closed = 1;
nodes = (
"412 13 LINE",
"373 -40 OFFCURVE",
"351 -83 OFFCURVE",
"351 -124 CURVE SMOOTH",
"351 -178 OFFCURVE",
"391 -201 OFFCURVE",
"430 -201 CURVE SMOOTH",
"466 -201 OFFCURVE",
"502 -180 OFFCURVE",
"525 -145 CURVE",
"492 -108 LINE",
"477 -127 OFFCURVE",
"460 -140 OFFCURVE",
"442 -140 CURVE SMOOTH",
"425 -140 OFFCURVE",
"412 -128 OFFCURVE",
"412 -107 CURVE SMOOTH",
"412 -75 OFFCURVE",
"437 -29 OFFCURVE",
"491 40 CURVE"
);
}
);
width = 583;
}
);
leftKerningGroup = Eogonek.ss01;
rightKerningGroup = Eogonek.ss01;
},
{
glyphname = F;
lastChange = "2016-08-01 01:22:09 +0000";
layers = (
{
layerId = UUID0;
paths = (
{
closed = 1;
nodes = (
"128 0 LINE",
"148 0 LINE",
"148 323 LINE",
"489 323 LINE",
"489 343 LINE",
"148 343 LINE",
"148 679 LINE",
"535 679 LINE",
"535 699 LINE",
"128 699 LINE"
);
}
);
width = 545;
},
{
layerId = "5DA6E103-6A94-47F2-987D-4952DB8EA68E";
paths = (
{
closed = 1;
nodes = (
"50 0 LINE",
"282 0 LINE",
"282 228 LINE",
"593 228 LINE",
"593 404 LINE",
"282 404 LINE",
"282 525 LINE",
"614 525 LINE",
"614 701 LINE",
"50 701 LINE"
);
}
);
width = 631;
},
{
layerId = "1C84A7F3-C40A-4DC1-B8B4-102D183C348F";
paths = (
{
closed = 1;
nodes = (
"92 0 LINE",
"209.579 0 LINE",
"209.579 290.789 LINE",
"527.842 290.789 LINE",
"527.842 391.316 LINE",
"209.579 391.316 LINE",
"209.579 599.421 LINE",
"560.579 599.421 LINE",
"561.526 699.947 LINE",
"92 699.923 LINE"
);
}
);
width = 575;
}
);
leftKerningGroup = H;
rightKerningGroup = F;
unicode = 0046;
},
{
glyphname = F.ss01;
lastChange = "2016-08-01 01:22:09 +0000";
layers = (
{
layerId = UUID0;
paths = (
{
closed = 1;
nodes = (
"110 0 LINE",
"129 0 LINE",
"129 502 LINE",
"129 609 OFFCURVE",
"197 679 OFFCURVE",
"301 679 CURVE",
"355 679 OFFCURVE",
"420 663 OFFCURVE",
"466 639 CURVE",
"475 659 LINE",
"425 683 OFFCURVE",
"361 699 OFFCURVE",
"301 699 CURVE",
"185 699 OFFCURVE",
"110 622 OFFCURVE",
"110 502 CURVE"
);
},
{
closed = 1;
nodes = (
"125 322 LINE",
"423 322 LINE",
"423 342 LINE",
"125 342 LINE"
);
}
);
width = 490;
},
{
layerId = "5DA6E103-6A94-47F2-987D-4952DB8EA68E";
paths = (
{
closed = 1;
nodes = (
"40 0 LINE",
"273 0 LINE",
"273 449 LINE SMOOTH",
"273 491 OFFCURVE",
"301 518 OFFCURVE",
"343 518 CURVE SMOOTH",
"398 518 OFFCURVE",
"477 498 OFFCURVE",
"538 473 CURVE",
"590 663 LINE",
"527 692 OFFCURVE",
"421 711 OFFCURVE",
"321 711 CURVE SMOOTH",
"150 711 OFFCURVE",
"40 610 OFFCURVE",
"40 454 CURVE SMOOTH"
);
},
{
closed = 1;
nodes = (
"85 229 LINE SMOOTH",
"524 229 LINE",
"524 405 LINE",
"85 405 LINE"
);
}
);
width = 580;
},
{
layerId = "1C84A7F3-C40A-4DC1-B8B4-102D183C348F";
paths = (
{
closed = 1;
nodes = (
"77.692 0 LINE",
"195.462 0 LINE",
"195.462 477.538 LINE",
"195.462 554.539 OFFCURVE",
"245 604.692 OFFCURVE",
"320.385 604.692 CURVE",
"374.846 604.692 OFFCURVE",
"446.307 586.846 OFFCURVE",
"499.231 562.384 CURVE",
"528.077 660.846 LINE",
"472.077 687.154 OFFCURVE",
"388.693 704.538 OFFCURVE",
"310.231 704.538 CURVE",
"168.846 704.538 OFFCURVE",
"77.692 616.462 OFFCURVE",
"77.692 479.846 CURVE"
);
},
{
closed = 1;
nodes = (
"107 274.632 LINE",
"469.421 274.632 LINE",
"469.421 375.158 LINE",
"107 375.158 LINE"
);
}
);
width = 531.538;
}
);
leftKerningGroup = F.ss01;
leftMetricsKey = U;
rightKerningGroup = F.ss01;
},
{
glyphname = G;
lastChange = "2016-08-01 01:22:09 +0000";
layers = (
{
anchors = (
{
name = bottom;
position = "{380, 0}";
},
{
name = top;
position = "{380, 699}";
}
);
layerId = UUID0;
paths = (
{
closed = 1;
nodes = (
"649 609 LINE",
"585 665 OFFCURVE",
"501 699 OFFCURVE",
"409 699 CURVE SMOOTH",
"212 699 OFFCURVE",
"50 542 OFFCURVE",
"50 350 CURVE SMOOTH",
"50 158 OFFCURVE",
"212 0 OFFCURVE",
"409 0 CURVE SMOOTH",
"501 0 OFFCURVE",
"586 35 OFFCURVE",
"650 91 CURVE",
"636 104 LINE",
"576 51 OFFCURVE",
"496 19 OFFCURVE",
"409 19 CURVE SMOOTH",
"222 19 OFFCURVE",
"69 168 OFFCURVE",
"69 350 CURVE SMOOTH",
"69 532 OFFCURVE",
"222 680 OFFCURVE",
"409 680 CURVE SMOOTH",
"496 680 OFFCURVE",
"576 649 OFFCURVE",
"636 596 CURVE"
);
},
{
closed = 1;
nodes = (
"630 91 LINE",
"650 91 LINE",
"650 343 LINE",
"630 343 LINE"
);
}
);
width = 760;
},
{
anchors = (
{
name = bottom;
position = "{396, 0}";
},
{
name = top;
position = "{396, 701}";
}
);
layerId = "5DA6E103-6A94-47F2-987D-4952DB8EA68E";
paths = (
{
closed = 1;
nodes = (
"713 600 LINE",
"638 666 OFFCURVE",
"519 708 OFFCURVE",
"410 708 CURVE SMOOTH",
"181 708 OFFCURVE",
"15 557 OFFCURVE",
"15 350 CURVE SMOOTH",
"15 142 OFFCURVE",
"175 -10 OFFCURVE",
"395 -10 CURVE SMOOTH",
"495 -10 OFFCURVE",
"624 28 OFFCURVE",
"702 80 CURVE",
"571 243 LINE",
"520 208 OFFCURVE",
"452 183 OFFCURVE",
"411 183 CURVE SMOOTH",
"320 183 OFFCURVE",
"253 253 OFFCURVE",
"253 350 CURVE SMOOTH",
"253 445 OFFCURVE",
"319 515 OFFCURVE",
"409 515 CURVE SMOOTH",
"467 515 OFFCURVE",
"535 486 OFFCURVE",
"582 441 CURVE"
);
},
{
closed = 1;
nodes = (
"503 80 LINE",
"702 80 LINE",
"702 369 LINE",
"503 369 LINE"
);
}
);
width = 738;
},
{
anchors = (
{
name = bottom;
position = "{387, 0}";
},
{
name = top;
position = "{387, 700}";
}
);
layerId = "1C84A7F3-C40A-4DC1-B8B4-102D183C348F";
paths = (
{
closed = 1;
nodes = (
"678 605 LINE",
"609 665 OFFCURVE",
"509 703 OFFCURVE",
"409 703 CURVE SMOOTH",
"197 703 OFFCURVE",
"34 549 OFFCURVE",
"34 350 CURVE SMOOTH",
"34 151 OFFCURVE",
"195 -5 OFFCURVE",
"402 -5 CURVE SMOOTH",
"498 -5 OFFCURVE",
"603 32 OFFCURVE",
"674 86 CURVE",
"606 168 LINE",
"550 123 OFFCURVE",
"475 95 OFFCURVE",
"410 95 CURVE SMOOTH",
"267 95 OFFCURVE",
"154 207 OFFCURVE",
"154 350 CURVE SMOOTH",
"154 492 OFFCURVE",
"266 604 OFFCURVE",
"409 604 CURVE SMOOTH",
"482 604 OFFCURVE",
"557 574 OFFCURVE",
"611 524 CURVE"
);
},
{
closed = 1;
nodes = (
"571 86 LINE",
"674 86 LINE",
"674 342 LINE",
"571 342 LINE"
);
}
);
width = 749;
}
);
leftKerningGroup = O;
rightKerningGroup = G;
unicode = 0047;
},
{
glyphname = G.ss01;
lastChange = "2016-08-01 01:22:09 +0000";
layers = (
{
anchors = (
{
name = bottom;
position = "{380, 0}";
},
{
name = top;
position = "{380, 699}";
}
);
layerId = UUID0;
paths = (
{
closed = 1;
nodes = (
"649 609 LINE",
"585 665 OFFCURVE",
"501 699 OFFCURVE",
"409 699 CURVE SMOOTH",
"212 699 OFFCURVE",
"50 542 OFFCURVE",
"50 350 CURVE SMOOTH",
"50 158 OFFCURVE",
"212 0 OFFCURVE",
"409 0 CURVE SMOOTH",
"501 0 OFFCURVE",
"586 39 OFFCURVE",
"650 101 CURVE",
"636 114 LINE",
"576 55 OFFCURVE",
"496 19 OFFCURVE",
"409 19 CURVE SMOOTH",
"222 19 OFFCURVE",
"69 168 OFFCURVE",
"69 350 CURVE SMOOTH",
"69 532 OFFCURVE",
"222 680 OFFCURVE",
"409 680 CURVE SMOOTH",
"496 680 OFFCURVE",
"576 649 OFFCURVE",
"636 596 CURVE"
);
},
{
closed = 1;
nodes = (
"630 87 LINE",
"630 83 LINE",
"630 0 LINE",
"650 0 LINE",
"650 343 LINE",
"630 343 LINE"
);
}
);
width = 760;
},
{
anchors = (
{
name = bottom;
position = "{372, 0}";
},
{
name = top;
position = "{372, 701}";
}
);
layerId = "5DA6E103-6A94-47F2-987D-4952DB8EA68E";
paths = (
{
closed = 1;
nodes = (
"713 600 LINE",
"637 666 OFFCURVE",
"516 708 OFFCURVE",
"406 708 CURVE SMOOTH",
"180 708 OFFCURVE",
"15 557 OFFCURVE",
"15 350 CURVE SMOOTH",
"15 142 OFFCURVE",
"164 -10 OFFCURVE",
"369 -10 CURVE SMOOTH",
"477 -10 OFFCURVE",
"592 62 OFFCURVE",
"643 160 CURVE",
"534 283 LINE",
"515 225 OFFCURVE",
"457 183 OFFCURVE",
"396 183 CURVE SMOOTH",
"313 183 OFFCURVE",
"253 253 OFFCURVE",
"253 350 CURVE SMOOTH",
"253 445 OFFCURVE",
"319 515 OFFCURVE",
"409 515 CURVE SMOOTH",
"467 515 OFFCURVE",
"535 486 OFFCURVE",
"582 441 CURVE"
);
},
{
closed = 1;
nodes = (
"503 123 LINE",
"533 98 LINE",
"533 0 LINE",
"702 0 LINE",
"702 369 LINE",
"503 369 LINE"
);
}
);
width = 738;
},
{
anchors = (
{
name = bottom;
position = "{376, 0}";
},
{
name = top;
position = "{376, 700}";
}
);
layerId = "1C84A7F3-C40A-4DC1-B8B4-102D183C348F";
paths = (
{
closed = 1;
nodes = (
"679 605 LINE",
"609 665 OFFCURVE",
"508 703 OFFCURVE",
"408 703 CURVE SMOOTH",
"197 703 OFFCURVE",
"34 549 OFFCURVE",
"34 350 CURVE SMOOTH",
"34 151 OFFCURVE",
"190 -5 OFFCURVE",
"391 -5 CURVE SMOOTH",
"490 -5 OFFCURVE",
"589 50 OFFCURVE",
"647 128 CURVE",
"589 192 LINE",
"548 133 OFFCURVE",
"478 95 OFFCURVE",
"403 95 CURVE SMOOTH",
"264 95 OFFCURVE",
"154 207 OFFCURVE",
"154 350 CURVE SMOOTH",
"154 492 OFFCURVE",
"267 604 OFFCURVE",
"409 604 CURVE SMOOTH",
"483 604 OFFCURVE",
"557 574 OFFCURVE",
"611 524 CURVE"
);
},
{
closed = 1;
nodes = (
"571 104 LINE",
"585 90 LINE",
"585 0 LINE",
"674 0 LINE",
"674 355 LINE",
"571 355 LINE"
);
}
);
width = 750;
}
);
leftKerningGroup = O;
leftMetricsKey = O;
rightKerningGroup = G;
},
{
glyphname = H;
lastChange = "2016-08-01 01:22:09 +0000";
layers = (
{
anchors = (
{
name = center;
position = "{400, 350}";
},
{
name = top;
position = "{400, 699}";
}
);
layerId = UUID0;
paths = (
{
closed = 1;
nodes = (
"128 0 LINE",
"148 0 LINE",
"148 343 LINE",
"651 343 LINE",
"651 0 LINE",
"671 0 LINE",
"671 699 LINE",
"651 699 LINE",
"651 363 LINE",
"148 363 LINE",
"148 699 LINE",
"128 699 LINE"
);
}
);
width = 799;
},
{
anchors = (
{
name = center;
position = "{391, 351}";
},
{
name = top;
position = "{401, 701}";
}
);
layerId = "5DA6E103-6A94-47F2-987D-4952DB8EA68E";
paths = (
{
closed = 1;
nodes = (
"50 0 LINE",
"282 0 LINE",
"282 253 LINE",
"499 253 LINE",
"499 0 LINE",
"731 0 LINE",
"731 701 LINE",
"499 701 LINE",
"499 429 LINE",
"282 429 LINE",
"282 701 LINE",
"50 701 LINE"
);
}
);
width = 781;
},
{
anchors = (
{
name = center;
position = "{395.846, 350.461}";
},
{
name = top;
position = "{400.461, 699.923}";
}
);
layerId = "1C84A7F3-C40A-4DC1-B8B4-102D183C348F";
paths = (
{
closed = 1;
nodes = (
"92 0 LINE",
"209.846 0 LINE",
"209.579 292.789 LINE",
"580.895 292.789 LINE",
"580.846 0 LINE",
"698.693 0 LINE",
"698.693 699.923 LINE",
"580.846 699.923 LINE",
"580.846 393.462 LINE",
"209.846 393.462 LINE",
"209.846 699.923 LINE",
"92 699.923 LINE"
);
}
);
width = 791;
}
);
leftKerningGroup = H;
rightKerningGroup = H;
unicode = 0048;
},
{
glyphname = Hbar;
lastChange = "2016-08-01 01:22:09 +0000";
layers = (
{
components = (
{
name = H;
transform = "{1, 0, 0, 1, 10, 0}";
}
);
layerId = UUID0;
paths = (
{
closed = 1;
nodes = (
"58 528 LINE",
"761 528 LINE",
"761 548 LINE",
"58 548 LINE"
);
}
);
width = 819;
},
{
components = (
{
name = H;
transform = "{1, 0, 0, 1, 50, 0}";
}
);
layerId = "5DA6E103-6A94-47F2-987D-4952DB8EA68E";
paths = (
{
closed = 1;
nodes = (
"20 508 LINE",
"861 508 LINE",
"861 627 LINE",
"20 627 LINE"
);
}
);
width = 881;
},
{
components = (
{
name = H;
transform = "{1, 0, 0, 1, 30, 0}";
}
);
layerId = "1C84A7F3-C40A-4DC1-B8B4-102D183C348F";
paths = (
{
closed = 1;
nodes = (
"32 516 LINE",
"819 516 LINE",
"819 596 LINE",
"32 596 LINE"
);
}
);
width = 851;
}
);
leftKerningGroup = H;
rightKerningGroup = H;
unicode = 0126;
},
{
glyphname = I;
lastChange = "2016-08-01 01:22:09 +0000";
layers = (
{
anchors = (
{
name = ogonek;
position = "{206, 10}";
},
{
name = top;
position = "{138, 699}";
}
);
layerId = UUID0;
paths = (
{
closed = 1;
nodes = (
"128 0 LINE",
"148 0 LINE",
"148 699 LINE",
"128 699 LINE"
);
}
);
width = 276;
},
{
anchors = (
{
name = ogonek;
position = "{299, 10}";
},
{
name = top;
position = "{166, 701}";
}
);
layerId = "5DA6E103-6A94-47F2-987D-4952DB8EA68E";
paths = (
{
closed = 1;
nodes = (
"50 0 LINE",
"282 0 LINE",
"282 701 LINE",
"50 701 LINE"
);
}
);
width = 332;
},
{
anchors = (
{
name = ogonek;
position = "{248.923, 10}";
},
{
name = top;
position = "{150.923, 699.923}";
}
);
layerId = "1C84A7F3-C40A-4DC1-B8B4-102D183C348F";
paths = (
{
closed = 1;
nodes = (
"92 0 LINE",
"209.846 0 LINE",
"209.846 699.923 LINE",
"92 699.923 LINE"
);
}
);
width = 302;
}
);
leftKerningGroup = H;
rightKerningGroup = H;
unicode = 0049;
},
{
glyphname = I.ss01;
lastChange = "2016-08-01 01:22:09 +0000";
layers = (
{
anchors = (
{
name = ogonek;
position = "{403, 10}";
},
{
name = top;
position = "{224, 699}";
}
);
layerId = UUID0;
paths = (
{
closed = 1;
nodes = (
"60 679 LINE",
"388 679 LINE",
"388 699 LINE",
"60 699 LINE"
);
},
{
closed = 1;
nodes = (
"60 0 LINE",
"388 0 LINE",
"388 20 LINE",
"60 20 LINE"
);
},
{
closed = 1;
nodes = (
"214 0 LINE",
"234 0 LINE",
"234 699 LINE",
"214 699 LINE"
);
}
);
width = 448;
},
{
anchors = (
{
name = ogonek;
position = "{472, 10}";
},
{
name = top;
position = "{262, 701}";
}
);
layerId = "5DA6E103-6A94-47F2-987D-4952DB8EA68E";
paths = (
{
closed = 1;
nodes = (
"40 525 LINE",
"484 525 LINE",
"484 701 LINE",
"40 701 LINE"
);
},
{
closed = 1;
nodes = (
"40 0 LINE",
"484 0 LINE",
"484 176 LINE",
"40 176 LINE"
);
},
{
closed = 1;
nodes = (
"146 0 LINE",
"378 0 LINE",
"378 701 LINE",
"146 701 LINE"
);
}
);
width = 524;
},
{
anchors = (
{
name = ogonek;
position = "{435, 10}";
},
{
name = top;
position = "{242, 700}";
}
);
layerId = "1C84A7F3-C40A-4DC1-B8B4-102D183C348F";
paths = (
{
closed = 1;
nodes = (
"51 599 LINE",
"433 599 LINE",
"433 700 LINE",
"51 700 LINE"
);
},
{
closed = 1;
nodes = (
"51 0 LINE",
"433 0 LINE",
"433 101 LINE",
"51 101 LINE"
);
},
{
closed = 1;
nodes = (
"183 0 LINE",
"301 0 LINE",
"301 700 LINE",
"183 700 LINE"
);
}
);
width = 484;
}
);
leftKerningGroup = I.ss01;
rightKerningGroup = I.ss01;
},
{
glyphname = Iogonek;
lastChange = "2016-08-01 01:22:09 +0000";
layers = (
{
layerId = UUID0;
paths = (
{
closed = 1;
nodes = (
"148 0 LINE",
"148 699 LINE",
"128 699 LINE",
"128 4 LINE",
"129 4 LINE",
"85 -58 OFFCURVE",
"68 -99 OFFCURVE",
"68 -131 CURVE SMOOTH",
"68 -172 OFFCURVE",
"96 -199 OFFCURVE",
"132 -199 CURVE SMOOTH",
"159 -199 OFFCURVE",
"187 -181 OFFCURVE",
"206 -159 CURVE",
"192 -145 LINE",
"174 -165 OFFCURVE",
"154 -179 OFFCURVE",
"132 -179 CURVE SMOOTH",
"107 -179 OFFCURVE",
"88 -162 OFFCURVE",
"88 -131 CURVE SMOOTH",
"88 -100 OFFCURVE",
"99 -66 OFFCURVE",
"147 0 CURVE"
);
}
);
width = 276;
},
{
layerId = "5DA6E103-6A94-47F2-987D-4952DB8EA68E";
paths = (
{
closed = 1;
nodes = (
"282 0 LINE",
"282 701 LINE",
"50 701 LINE",
"50 0 LINE",
"125.858 0 LINE",
"102.095 -36 OFFCURVE",
"83 -75 OFFCURVE",
"83 -116 CURVE SMOOTH",
"83 -185 OFFCURVE",
"137 -204 OFFCURVE",
"179 -204 CURVE SMOOTH",
"228 -204 OFFCURVE",
"271 -179 OFFCURVE",
"299 -128 CURVE",
"244 -64 LINE",
"233 -83 OFFCURVE",
"220 -94 OFFCURVE",
"207 -94 CURVE SMOOTH",
"199 -94 OFFCURVE",
"193 -89 OFFCURVE",
"193 -79 CURVE SMOOTH",
"193 -63 OFFCURVE",
"208.768 -33 OFFCURVE",
"231.251 0 CURVE"
);
}
);
width = 332;
},
{
layerId = "1C84A7F3-C40A-4DC1-B8B4-102D183C348F";
paths = (
{
closed = 1;
nodes = (
"210 0 LINE",
"210 700 LINE",
"92 700 LINE",
"92 0 LINE",
"127 0 LINE",
"94 -48 OFFCURVE",
"75 -87 OFFCURVE",
"75 -124 CURVE SMOOTH",
"75 -178 OFFCURVE",
"115 -201 OFFCURVE",
"154 -201 CURVE SMOOTH",
"191 -201 OFFCURVE",
"226 -180 OFFCURVE",
"249 -145 CURVE",
"216 -108 LINE",
"201 -127 OFFCURVE",
"185 -140 OFFCURVE",
"166 -140 CURVE SMOOTH",
"149 -140 OFFCURVE",
"137 -128 OFFCURVE",
"137 -107 CURVE SMOOTH",
"137 -83 OFFCURVE",
"152 -49 OFFCURVE",
"186 0 CURVE"
);
}
);
width = 302;
}
);
leftKerningGroup = H;
rightKerningGroup = H;
unicode = 012E;
},
{
glyphname = J;
lastChange = "2016-08-01 01:22:09 +0000";
layers = (
{
anchors = (
{
name = top;
position = "{204, 699}";
}
);
layerId = UUID0;
paths = (
{
closed = 1;
nodes = (
"349 699 LINE",
"67 699 LINE",
"67 679 LINE",
"329 679 LINE",
"329 197 LINE",
"329 82 OFFCURVE",
"275 20 OFFCURVE",
"177 20 CURVE",
"114 20 OFFCURVE",
"58 52 OFFCURVE",
"17 112 CURVE",
"3 98 LINE",
"47 35 OFFCURVE",
"109 0 OFFCURVE",
"177 0 CURVE",
"288 0 OFFCURVE",
"349 70 OFFCURVE",
"349 197 CURVE"
);
}
);
width = 459;
},
{
anchors = (
{
name = top;
position = "{291, 701}";
}
);
layerId = "5DA6E103-6A94-47F2-987D-4952DB8EA68E";
paths = (
{
closed = 1;
nodes = (
"529 701 LINE",
"58 701 LINE",
"58 518 LINE",
"296 518 LINE",
"296 242 LINE SMOOTH",
"296 202 OFFCURVE",
"275 183 OFFCURVE",
"243 183 CURVE SMOOTH",
"208 183 OFFCURVE",
"152 207 OFFCURVE",
"97 262 CURVE",
"-8 112 LINE",
"63 34 OFFCURVE",
"152 -10 OFFCURVE",
"265 -10 CURVE SMOOTH",
"426 -10 OFFCURVE",
"529 80 OFFCURVE",
"529 237 CURVE SMOOTH"
);
}
);
width = 569;
},
{
anchors = (
{
name = top;
position = "{238, 700}";
}
);
layerId = "1C84A7F3-C40A-4DC1-B8B4-102D183C348F";
paths = (
{
closed = 1;
nodes = (
"422 700 LINE",
"61 700 LINE",
"61 599 LINE",
"303 599 LINE",
"303 218 LINE",
"303 144 OFFCURVE",
"266 104 OFFCURVE",
"203 104 CURVE",
"155 104 OFFCURVE",
"100 131 OFFCURVE",
"54 181 CURVE",
"-2 95 LINE",
"50 32 OFFCURVE",
"120 -5 OFFCURVE",
"204 -5 CURVE",
"339 -5 OFFCURVE",
"422 75 OFFCURVE",
"422 215 CURVE"
);
}
);
width = 499;
}
);
leftKerningGroup = J;
rightKerningGroup = U;
unicode = 004A;
},
{
glyphname = J.ss01;
lastChange = "2016-08-01 01:22:09 +0000";
layers = (
{
anchors = (
{
name = top;
position = "{229, 699}";
}
);
layerId = UUID0;
paths = (
{
closed = 1;
nodes = (
"348 699 LINE",
"67 699 LINE",
"67 679 LINE",
"329 679 LINE",
"329 97 LINE",
"329 -18 OFFCURVE",
"275 -80 OFFCURVE",
"177 -80 CURVE",
"114 -80 OFFCURVE",
"58 -48 OFFCURVE",
"17 12 CURVE",
"3 -2 LINE",
"47 -65 OFFCURVE",
"109 -100 OFFCURVE",
"177 -100 CURVE",
"288 -100 OFFCURVE",
"348 -30 OFFCURVE",
"348 97 CURVE"
);
}
);
width = 458;
},
{
anchors = (
{
name = top;
position = "{285, 701}";
}
);
layerId = "5DA6E103-6A94-47F2-987D-4952DB8EA68E";
paths = (
{
closed = 1;
nodes = (
"529 701 LINE",
"58 701 LINE",
"58 518 LINE",
"297 518 LINE",
"297 142 LINE SMOOTH",
"297 102 OFFCURVE",
"275 83 OFFCURVE",
"243 83 CURVE SMOOTH",
"208 83 OFFCURVE",
"152 107 OFFCURVE",
"97 162 CURVE",
"-8 12 LINE",
"63 -66 OFFCURVE",
"152 -110 OFFCURVE",
"265 -110 CURVE SMOOTH",
"426 -110 OFFCURVE",
"529 -20 OFFCURVE",
"529 137 CURVE SMOOTH"
);
}
);
width = 569;
},
{
anchors = (
{
name = top;
position = "{255, 700}";
}
);
layerId = "1C84A7F3-C40A-4DC1-B8B4-102D183C348F";
paths = (
{
closed = 1;
nodes = (
"422 700 LINE",
"61 700 LINE",
"61 599 LINE",
"303 599 LINE",
"303 118 LINE",
"303 44 OFFCURVE",
"266 4 OFFCURVE",
"203 4 CURVE",
"155 4 OFFCURVE",
"100 31 OFFCURVE",
"54 81 CURVE",
"-2 -5 LINE",
"50 -68 OFFCURVE",
"120 -105 OFFCURVE",
"203 -105 CURVE",
"339 -105 OFFCURVE",
"422 -25 OFFCURVE",
"422 115 CURVE"
);
}
);
width = 499;
}
);
leftKerningGroup = J.ss01;
leftMetricsKey = J;
rightKerningGroup = J.ss01;
rightMetricsKey = J;
},
{
glyphname = K;
lastChange = "2016-08-01 01:22:09 +0000";
layers = (
{
anchors = (
{
name = bottom;
position = "{335, 0}";
},
{
name = top;
position = "{335, 699}";
}
);
layerId = UUID0;
paths = (
{
closed = 1;
nodes = (
"128 0 LINE",
"148 0 LINE",
"148 191 LINE",
"618 699 LINE",
"590 699 LINE",
"148 220 LINE",
"148 699 LINE",
"128 699 LINE"
);
},
{
closed = 1;
nodes = (
"308 376 LINE",
"613 0 LINE",
"640 0 LINE",
"320 394 LINE"
);
}
);
width = 670;
},
{
anchors = (
{
name = bottom;
position = "{373, 0}";
},
{
name = top;
position = "{373, 701}";
}
);
layerId = "5DA6E103-6A94-47F2-987D-4952DB8EA68E";
paths = (
{
closed = 1;
nodes = (
"50 0 LINE",
"282 0 LINE",
"282 165 LINE",
"758 701 LINE",
"491 701 LINE",
"282 458 LINE",
"282 701 LINE",
"50 701 LINE"
);
},
{
closed = 1;
nodes = (
"337 262 LINE",
"496 0 LINE",
"773 0 LINE",
"492 444 LINE"
);
}
);
width = 773;
},
{
anchors = (
{
name = bottom;
position = "{352.539, 0}";
},
{
name = top;
position = "{352.539, 699.923}";
}
);
layerId = "1C84A7F3-C40A-4DC1-B8B4-102D183C348F";
paths = (
{
closed = 1;
nodes = (
"92 0 LINE",
"209.846 0 LINE",
"209.846 179 LINE",
"682.615 699.923 LINE",
"544.307 699.923 LINE",
"209.846 329.846 LINE",
"209.846 699.923 LINE",
"92 699.923 LINE"
);
},
{
closed = 1;
nodes = (
"321.384 323.385 LINE",
"559 0 LINE",
"701.385 0 LINE",
"399.385 417.077 LINE"
);
}
);
width = 718;
}
);
leftKerningGroup = H;
rightKerningGroup = X;
unicode = 004B;
},
{
glyphname = L;
lastChange = "2016-08-01 01:22:09 +0000";
layers = (
{
anchors = (
{
name = bottom;
position = "{288, 0}";
},
{
name = top;
position = "{148, 699}";
}
);
layerId = UUID0;
paths = (
{
closed = 1;
nodes = (
"128 0 LINE",
"461 0 LINE",
"461 20 LINE",
"148 20 LINE",
"148 699 LINE",
"128 699 LINE"
);
}
);
width = 491;
},
{
anchors = (
{
name = bottom;
position = "{292, 0}";
},
{
name = top;
position = "{159, 701}";
}
);
layerId = "5DA6E103-6A94-47F2-987D-4952DB8EA68E";
paths = (
{
closed = 1;
nodes = (
"50 0 LINE",
"574 0 LINE",
"574 193 LINE",
"282 193 LINE",
"282 701 LINE",
"50 701 LINE"
);
}
);
width = 584;
},
{
anchors = (
{
name = bottom;
position = "{289.846, 0}";
},
{
name = top;
position = "{153.077, 699.923}";
}
);
layerId = "1C84A7F3-C40A-4DC1-B8B4-102D183C348F";
paths = (
{
closed = 1;
nodes = (
"92 0 LINE",
"513.154 0 LINE",
"513.105 100.526 LINE",
"209.579 100.526 LINE",
"209.846 699.923 LINE",
"92 699.923 LINE"
);
}
);
width = 534;
}
);
leftKerningGroup = H;
rightKerningGroup = L;
unicode = 004C;
},
{
glyphname = Lslash;
lastChange = "2016-08-01 01:22:09 +0000";
layers = (
{
components = (
{
name = L;
transform = "{1, 0, 0, 1, 12, 0}";
}
);
layerId = UUID0;
paths = (
{
closed = 1;
nodes = (
"36 428 LINE",
"41 409 LINE",
"349 497 LINE",
"344 517 LINE"
);
}
);
width = 503;
},
{
components = (
{
name = L;
transform = "{1, 0, 0, 1, 22, 0}";
}
);
layerId = "5DA6E103-6A94-47F2-987D-4952DB8EA68E";
paths = (
{
closed = 1;
nodes = (
"-30 412 LINE",
"8 278 LINE",
"472 412 LINE",
"434 547 LINE"
);
}
);
width = 606;
},
{
components = (
{
name = L;
transform = "{1, 0, 0, 1, 16.615, 0}";
}
);
layerId = "1C84A7F3-C40A-4DC1-B8B4-102D183C348F";
paths = (
{
closed = 1;
nodes = (
"5.538 420.615 LINE",
"25.769 348.538 LINE",
"405.769 457.769 LINE",
"385.538 530.846 LINE"
);
}
);
width = 551;
}
);
leftKerningGroup = H;
rightKerningGroup = L;
rightMetricsKey = L;
unicode = 0141;
},
{
glyphname = M;
lastChange = "2016-08-01 01:22:09 +0000";
layers = (
{
layerId = UUID0;
paths = (
{
closed = 1;
nodes = (
"128 0 LINE",
"148 0 LINE",
"148 680 LINE",
"456 77 LINE",
"458 77 LINE",
"765 680 LINE",
"766 0 LINE",
"786 0 LINE",
"786 699 LINE",
"751 699 LINE",
"458 120 LINE SMOOTH",
"163 699 LINE",
"128 699 LINE"
);
}
);
width = 914;
},
{
layerId = "5DA6E103-6A94-47F2-987D-4952DB8EA68E";
paths = (
{
closed = 1;
nodes = (
"50 0 LINE",
"252 0 LINE",
"252 384 LINE",
"372 68 LINE",
"524 68 LINE",
"644 384 LINE",
"644 0 LINE",
"846 0 LINE",
"846 701 LINE",
"601 701 LINE",
"448 335 LINE",
"295 701 LINE",
"50 701 LINE"
);
}
);
width = 896;
},
{
layerId = "1C84A7F3-C40A-4DC1-B8B4-102D183C348F";
paths = (
{
closed = 1;
nodes = (
"92 0 LINE",
"203 0 LINE",
"203 533 LINE",
"424 73 LINE",
"501 73 LINE",
"722 533 LINE",
"723 0 LINE",
"832 0 LINE",
"832 700 LINE",
"693 700 LINE",
"463 228 LINE SMOOTH",
"232 700 LINE",
"92 700 LINE"
);
}
);
width = 925;
}
);
leftKerningGroup = H;
rightKerningGroup = H;
unicode = 004D;
},
{
glyphname = M.ss01;
lastChange = "2016-08-01 01:22:09 +0000";
layers = (
{
anchors = (
{
name = ogonek;
position = "{206, 10}";
},
{
name = top;
position = "{138, 699}";
}
);
layerId = UUID0;
paths = (
{
closed = 1;
nodes = (
"612 0 LINE SMOOTH",
"632 0 LINE",
"632 445 LINE",
"632 592 OFFCURVE",
"535 699 OFFCURVE",
"402 699 CURVE",
"245 695 OFFCURVE",
"129 580 OFFCURVE",
"129 425 CURVE",
"147 425 LINE",
"147 568 OFFCURVE",
"255 675 OFFCURVE",
"402 679 CURVE",
"523 679 OFFCURVE",
"612 580 OFFCURVE",
"612 445 CURVE"
);
},
{
closed = 1;
nodes = (
"1097 0 LINE SMOOTH",
"1117 0 LINE",
"1117 445 LINE",
"1117 592 OFFCURVE",
"1020 699 OFFCURVE",
"887 699 CURVE",
"730 695 OFFCURVE",
"614 580 OFFCURVE",
"614 425 CURVE",
"632 425 LINE",
"632 568 OFFCURVE",
"740 675 OFFCURVE",
"887 679 CURVE",
"1008 679 OFFCURVE",
"1097 580 OFFCURVE",
"1097 445 CURVE"
);
},
{
closed = 1;
nodes = (
"128 0 LINE",
"148 0 LINE",
"148 699 LINE",
"128 699 LINE"
);
}
);
width = 1227;
},
{
anchors = (
{
name = ogonek;
position = "{299, 10}";
},
{
name = top;
position = "{166, 701}";
}
);
layerId = "5DA6E103-6A94-47F2-987D-4952DB8EA68E";
paths = (
{
closed = 1;
nodes = (
"466 0 LINE",
"701 0 LINE",
"701 443 LINE SMOOTH",
"701 600 OFFCURVE",
"612 701 OFFCURVE",
"477 701 CURVE SMOOTH",
"327 701 OFFCURVE",
"232 577 OFFCURVE",
"232 385 CURVE",
"282 380 LINE",
"282 448 OFFCURVE",
"321 493 OFFCURVE",
"379 493 CURVE SMOOTH",
"435 493 OFFCURVE",
"466 452 OFFCURVE",
"466 387 CURVE SMOOTH"
);
},
{
closed = 1;
nodes = (
"885 0 LINE",
"1120 0 LINE",
"1120 443 LINE SMOOTH",
"1120 600 OFFCURVE",
"1031 701 OFFCURVE",
"896 701 CURVE SMOOTH",
"746 701 OFFCURVE",
"651 577 OFFCURVE",
"651 385 CURVE",
"701 380 LINE",
"701 448 OFFCURVE",
"740 493 OFFCURVE",
"798 493 CURVE SMOOTH",
"854 493 OFFCURVE",
"885 452 OFFCURVE",
"885 387 CURVE SMOOTH"
);
},
{
closed = 1;
nodes = (
"50 0 LINE",
"282 0 LINE",
"282 701 LINE",
"50 701 LINE"
);
}
);
width = 1160;
},
{
anchors = (
{
name = ogonek;
position = "{248.923, 10}";
},
{
name = top;
position = "{150.923, 699.923}";
}
);
layerId = "1C84A7F3-C40A-4DC1-B8B4-102D183C348F";
paths = (
{
closed = 1;
nodes = (
"544.616 0 LINE SMOOTH",
"663.846 0 LINE",
"663.846 444.077 LINE",
"663.846 595.692 OFFCURVE",
"567.211 699.947 OFFCURVE",
"433.263 699.947 CURVE",
"267.737 697.842 OFFCURVE",
"157.421 579.053 OFFCURVE",
"157.421 407 CURVE",
"209.526 375.737 LINE",
"209.526 495.053 OFFCURVE",
"285.316 590.684 OFFCURVE",
"391.385 593.154 CURVE",
"482.384 593.154 OFFCURVE",
"544.616 520.923 OFFCURVE",
"544.616 418.231 CURVE"
);
},
{
closed = 1;
nodes = (
"999.154 0 LINE SMOOTH",
"1118.38 0 LINE",
"1118.38 444.077 LINE",
"1118.38 595.692 OFFCURVE",
"1020.95 699.947 OFFCURVE",
"887 699.947 CURVE",
"722.421 697.842 OFFCURVE",
"612.105 579.053 OFFCURVE",
"612.105 407 CURVE",
"664.211 375.737 LINE",
"664.211 495.053 OFFCURVE",
"740 590.684 OFFCURVE",
"845.923 593.154 CURVE",
"936.923 593.154 OFFCURVE",
"999.154 520.923 OFFCURVE",
"999.154 418.231 CURVE"
);
},
{
closed = 1;
nodes = (
"92 0 LINE",
"209.846 0 LINE",
"209.846 699.923 LINE",
"92 699.923 LINE"
);
}
);
width = 1195;
}
);
leftKerningGroup = M.ss01;
leftMetricsKey = H;
rightKerningGroup = M.ss01;
rightMetricsKey = U;
},
{
glyphname = N;
lastChange = "2016-08-01 01:22:09 +0000";
layers = (
{
anchors = (
{
name = bottom;
position = "{400, 0}";
},
{
name = top;
position = "{400, 699}";
}
);
layerId = UUID0;
paths = (
{
closed = 1;
nodes = (
"128 0 LINE",
"148 0 LINE",
"148 679 LINE",
"641 0 LINE",
"671 0 LINE",
"671 699 LINE",
"651 699 LINE",
"651 20 LINE",
"158 699 LINE",
"128 699 LINE"
);
}
);
width = 799;
},
{
anchors = (
{
name = bottom;
position = "{391, 0}";
},
{
name = top;
position = "{391, 701}";
}
);
layerId = "5DA6E103-6A94-47F2-987D-4952DB8EA68E";
paths = (
{
closed = 1;
nodes = (
"50 0 LINE",
"261 0 LINE",
"261 358 LINE",
"537 0 LINE",
"731 0 LINE",
"731 701 LINE",
"521 701 LINE",
"521 341 LINE",
"244 701 LINE",
"50 701 LINE"
);
}
);
width = 781;
},
{
anchors = (
{
name = bottom;
position = "{396.211, 0}";
},
{
name = top;
position = "{396.211, 699.947}";
}
);
layerId = "1C84A7F3-C40A-4DC1-B8B4-102D183C348F";
paths = (
{
closed = 1;
nodes = (
"92 0 LINE",
"209.579 0 LINE",
"209.579 512.263 LINE",
"583.211 0 LINE",
"699.421 0 LINE",
"699.421 699.947 LINE",
"582.789 699.947 LINE",
"582.789 186.737 LINE",
"208.211 699.947 LINE",
"92 699.947 LINE"
);
}
);
width = 792;
}
);
leftKerningGroup = H;
rightKerningGroup = H;
unicode = 004E;
},
{
glyphname = N.ss01;
lastChange = "2016-08-01 01:22:09 +0000";
layers = (
{
anchors = (
{
name = bottom;
position = "{396, 0}";
},
{
name = ogonek;
position = "{206, 10}";
},
{
name = top;
position = "{396, 699}";
}
);
layerId = UUID0;
paths = (
{
closed = 1;
nodes = (
"662 0 LINE SMOOTH",
"682 0 LINE",
"682 445 LINE",
"682 592 OFFCURVE",
"577 699 OFFCURVE",
"432 699 CURVE",
"257 695 OFFCURVE",
"129 580 OFFCURVE",
"129 425 CURVE",
"147 425 LINE",
"147 568 OFFCURVE",
"267 675 OFFCURVE",
"432 679 CURVE",
"565 679 OFFCURVE",
"662 580 OFFCURVE",
"662 445 CURVE"
);
},
{
closed = 1;
nodes = (
"128 0 LINE",
"148 0 LINE",
"148 699 LINE",
"128 699 LINE"
);
}
);
width = 792;
},
{
anchors = (
{
name = bottom;
position = "{381, 0}";
},
{
name = ogonek;
position = "{299, 10}";
},
{
name = top;
position = "{401, 701}";
}
);
layerId = "5DA6E103-6A94-47F2-987D-4952DB8EA68E";
paths = (
{
closed = 1;
nodes = (
"486 0 LINE",
"721 0 LINE",
"721 443 LINE SMOOTH",
"721 600 OFFCURVE",
"629 701 OFFCURVE",
"486 701 CURVE SMOOTH",
"332 701 OFFCURVE",
"232 577 OFFCURVE",
"232 385 CURVE",
"282 380 LINE",
"282 449 OFFCURVE",
"325 493 OFFCURVE",
"393 493 CURVE SMOOTH",
"450 493 OFFCURVE",
"486 451 OFFCURVE",
"486 387 CURVE SMOOTH"
);
},
{
closed = 1;
nodes = (
"50 0 LINE",
"282 0 LINE",
"282 701 LINE",
"50 701 LINE"
);
}
);
width = 761;
},
{
anchors = (
{
name = bottom;
position = "{385, 0}";
},
{
name = ogonek;
position = "{248.923, 10}";
},
{
name = top;
position = "{385, 700}";
}
);
layerId = "1C84A7F3-C40A-4DC1-B8B4-102D183C348F";
paths = (
{
closed = 1;
nodes = (
"572.947 0 LINE SMOOTH",
"692.421 0 LINE",
"692.421 444.053 LINE",
"692.421 595.789 OFFCURVE",
"590.263 699.947 OFFCURVE",
"448.105 699.947 CURVE",
"274.053 697.842 OFFCURVE",
"156.474 579.053 OFFCURVE",
"156.474 407 CURVE",
"209.526 375.737 LINE",
"209.526 495.053 OFFCURVE",
"291.632 590.684 OFFCURVE",
"407.368 592.789 CURVE",
"505.316 592.789 OFFCURVE",
"572.947 521.263 OFFCURVE",
"572.947 418.474 CURVE"
);
},
{
closed = 1;
nodes = (
"92 0 LINE",
"209.846 0 LINE",
"209.846 699.923 LINE",
"92 699.923 LINE"
);
}
);
width = 769;
}
);
leftKerningGroup = N.ss01;
leftMetricsKey = H;
rightKerningGroup = N.ss01;
rightMetricsKey = U;
},
{
glyphname = Eng;
lastChange = "2016-08-01 01:22:09 +0000";
layers = (
{
anchors = (
{
name = bottom;
position = "{400, 0}";
},
{
name = top;
position = "{400, 699}";
}
);
layerId = UUID0;
paths = (
{
closed = 1;
nodes = (
"651 3 LINE",
"651 -114 OFFCURVE",
"597 -176 OFFCURVE",
"499 -176 CURVE SMOOTH",
"436 -176 OFFCURVE",
"380 -144 OFFCURVE",
"339 -84 CURVE",
"325 -98 LINE",
"369 -161 OFFCURVE",
"431 -196 OFFCURVE",
"499 -196 CURVE SMOOTH",
"610 -196 OFFCURVE",
"671 -126 OFFCURVE",
"671 0 CURVE"
);
},
{
closed = 1;
nodes = (
"128 0 LINE",
"148 0 LINE",
"148 679 LINE",
"641 0 LINE",
"671 0 LINE",
"671 699 LINE",
"651 699 LINE",
"651 20 LINE",
"158 699 LINE",
"128 699 LINE"
);
}
);
width = 799;
},
{
anchors = (
{
name = bottom;
position = "{396.211, 0}";
},
{
name = top;
position = "{396.211, 699.947}";
}
);
layerId = "1C84A7F3-C40A-4DC1-B8B4-102D183C348F";
paths = (
{
closed = 1;
nodes = (
"580 20 LINE",
"580 -54 OFFCURVE",
"540 -94 OFFCURVE",
"479 -94 CURVE SMOOTH",
"437 -94 OFFCURVE",
"385 -75 OFFCURVE",
"341 -37 CURVE",
"285 -123 LINE",
"334 -174 OFFCURVE",
"401 -203 OFFCURVE",
"481 -203 CURVE SMOOTH",
"614 -203 OFFCURVE",
"699 -123 OFFCURVE",
"699 1 CURVE"
);
},
{
closed = 1;
nodes = (
"92 0 LINE",
"209.579 0 LINE",
"209.579 512.263 LINE",
"583.211 0 LINE",
"699.421 0 LINE",
"699.421 699.947 LINE",
"582.789 699.947 LINE",
"582.789 186.737 LINE",
"208.211 699.947 LINE",
"92 699.947 LINE"
);
}
);
width = 792;
},
{
anchors = (
{
name = bottom;
position = "{391, 0}";
},
{
name = top;
position = "{391, 701}";
}
);
layerId = "5DA6E103-6A94-47F2-987D-4952DB8EA68E";
paths = (
{
closed = 1;
nodes = (
"525 33 LINE",
"525 -11 OFFCURVE",
"507 -32 OFFCURVE",
"467 -32 CURVE SMOOTH",
"444 -32 OFFCURVE",
"412 -25 OFFCURVE",
"373 -10 CURVE",
"298 -185 LINE",
"348 -211 OFFCURVE",
"403 -225 OFFCURVE",
"467 -225 CURVE SMOOTH",
"620 -225 OFFCURVE",
"722 -143 OFFCURVE",
"731 0 CURVE"
);
},
{
closed = 1;
nodes = (
"50 0 LINE",
"261 0 LINE",
"261 358 LINE",
"537 0 LINE",
"731 0 LINE",
"731 701 LINE",
"521 701 LINE",
"521 341 LINE",
"244 701 LINE",
"50 701 LINE"
);
}
);
width = 781;
}
);
leftKerningGroup = H;
rightKerningGroup = H;
unicode = 014A;
},
{
glyphname = Eng.ss01;
lastChange = "2016-08-01 01:22:09 +0000";
layers = (
{
anchors = (
{
name = bottom;
position = "{396, 0}";
},
{
name = ogonek;
position = "{206, 10}";
},
{
name = top;
position = "{396, 699}";
}
);
layerId = UUID0;
paths = (
{
closed = 1;
nodes = (
"662 0 LINE SMOOTH",
"682 0 LINE",
"682 445 LINE",
"682 592 OFFCURVE",
"577 699 OFFCURVE",
"432 699 CURVE",
"257 695 OFFCURVE",
"129 580 OFFCURVE",
"129 425 CURVE",
"147 425 LINE",
"147 568 OFFCURVE",
"267 675 OFFCURVE",
"432 679 CURVE",
"565 679 OFFCURVE",
"662 580 OFFCURVE",
"662 445 CURVE"
);
},
{
closed = 1;
nodes = (
"662 3 LINE",
"662 -114 OFFCURVE",
"608 -176 OFFCURVE",
"510 -176 CURVE SMOOTH",
"447 -176 OFFCURVE",
"391 -144 OFFCURVE",
"350 -84 CURVE",
"336 -98 LINE",
"380 -161 OFFCURVE",
"442 -196 OFFCURVE",
"510 -196 CURVE SMOOTH",
"621 -196 OFFCURVE",
"682 -126 OFFCURVE",
"682 0 CURVE"
);
},
{
closed = 1;
nodes = (
"128 0 LINE",
"148 0 LINE",
"148 699 LINE",
"128 699 LINE"
);
}
);
width = 792;
},
{
anchors = (
{
name = bottom;
position = "{385, 0}";
},
{
name = ogonek;
position = "{248.923, 10}";
},
{
name = top;
position = "{385, 700}";
}
);
layerId = "1C84A7F3-C40A-4DC1-B8B4-102D183C348F";
paths = (
{
closed = 1;
nodes = (
"572.947 0 LINE SMOOTH",
"692.421 0 LINE",
"692.421 444.053 LINE",
"692.421 595.789 OFFCURVE",
"590.263 699.947 OFFCURVE",
"448.105 699.947 CURVE",
"274.053 697.842 OFFCURVE",
"156.474 579.053 OFFCURVE",
"156.474 407 CURVE",
"209.526 375.737 LINE",
"209.526 495.053 OFFCURVE",
"291.632 590.684 OFFCURVE",
"407.368 592.789 CURVE",
"505.316 592.789 OFFCURVE",
"572.947 521.263 OFFCURVE",
"572.947 418.474 CURVE"
);
},
{
closed = 1;
nodes = (
"573 20 LINE",
"573 -54 OFFCURVE",
"533 -94 OFFCURVE",
"472 -94 CURVE SMOOTH",
"430 -94 OFFCURVE",
"378 -75 OFFCURVE",
"334 -37 CURVE",
"278 -123 LINE",
"327 -174 OFFCURVE",
"394 -203 OFFCURVE",
"474 -203 CURVE SMOOTH",
"607 -203 OFFCURVE",
"692 -124 OFFCURVE",
"692 0 CURVE"
);
},
{
closed = 1;
nodes = (
"92 0 LINE",
"209.846 0 LINE",
"209.846 699.923 LINE",
"92 699.923 LINE"
);
}
);
width = 770;
},
{
anchors = (
{
name = bottom;
position = "{381, 0}";
},
{
name = ogonek;
position = "{299, 10}";
},
{
name = top;
position = "{401, 701}";
}
);
layerId = "5DA6E103-6A94-47F2-987D-4952DB8EA68E";
paths = (
{
closed = 1;
nodes = (
"486 0 LINE",
"721 0 LINE",
"721 443 LINE SMOOTH",
"721 600 OFFCURVE",
"629 701 OFFCURVE",
"486 701 CURVE SMOOTH",
"332 701 OFFCURVE",
"232 577 OFFCURVE",
"232 385 CURVE",
"282 380 LINE",
"282 449 OFFCURVE",
"325 493 OFFCURVE",
"393 493 CURVE SMOOTH",
"450 493 OFFCURVE",
"486 451 OFFCURVE",
"486 387 CURVE SMOOTH"
);
},
{
closed = 1;
nodes = (
"486 12 LINE",
"486 -17 OFFCURVE",
"471 -32 OFFCURVE",
"442 -32 CURVE SMOOTH",
"421 -32 OFFCURVE",
"393 -25 OFFCURVE",
"359 -10 CURVE",
"288 -185 LINE",
"338 -211 OFFCURVE",
"393 -225 OFFCURVE",
"457 -225 CURVE SMOOTH",
"610 -225 OFFCURVE",
"712 -143 OFFCURVE",
"721 0 CURVE"
);
},
{
closed = 1;
nodes = (
"50 0 LINE",
"282 0 LINE",
"282 701 LINE",
"50 701 LINE"
);
}
);
width = 761;
}
);
leftKerningGroup = H;
rightKerningGroup = H;
},
{
glyphname = O;
lastChange = "2016-08-01 01:22:09 +0000";
layers = (
{
anchors = (
{
name = top;
position = "{409, 699}";
}
);
layerId = UUID0;
paths = (
{
closed = 1;
nodes = (
"212 699 OFFCURVE",
"50 542 OFFCURVE",
"50 350 CURVE SMOOTH",
"50 158 OFFCURVE",
"212 0 OFFCURVE",
"409 0 CURVE SMOOTH",
"606 0 OFFCURVE",
"768 158 OFFCURVE",
"768 350 CURVE SMOOTH",
"768 542 OFFCURVE",
"606 699 OFFCURVE",
"409 699 CURVE SMOOTH"
);
},
{
closed = 1;
nodes = (
"595 679 OFFCURVE",
"748 531 OFFCURVE",
"748 350 CURVE SMOOTH",
"748 169 OFFCURVE",
"595 20 OFFCURVE",
"409 20 CURVE SMOOTH",
"223 20 OFFCURVE",
"70 169 OFFCURVE",
"70 350 CURVE SMOOTH",
"70 531 OFFCURVE",
"223 679 OFFCURVE",
"409 679 CURVE SMOOTH"
);
}
);
width = 818;
},
{
anchors = (
{
name = top;
position = "{390, 701}";
}
);
layerId = "5DA6E103-6A94-47F2-987D-4952DB8EA68E";
paths = (
{
closed = 1;
nodes = (
"177 708 OFFCURVE",
"15 559 OFFCURVE",
"15 351 CURVE SMOOTH",
"15 142 OFFCURVE",
"177 -10 OFFCURVE",
"400 -10 CURVE SMOOTH",
"623 -10 OFFCURVE",
"785 143 OFFCURVE",
"785 351 CURVE SMOOTH",
"785 558 OFFCURVE",
"623 708 OFFCURVE",
"400 708 CURVE SMOOTH"
);
},
{
closed = 1;
nodes = (
"483 515 OFFCURVE",
"547 446 OFFCURVE",
"547 350 CURVE SMOOTH",
"547 254 OFFCURVE",
"483 183 OFFCURVE",
"403 183 CURVE SMOOTH",
"323 183 OFFCURVE",
"253 254 OFFCURVE",
"253 350 CURVE SMOOTH",
"253 446 OFFCURVE",
"322 515 OFFCURVE",
"403 515 CURVE SMOOTH"
);
}
);
width = 800;
},
{
anchors = (
{
name = top;
position = "{400, 700}";
}
);
layerId = "1C84A7F3-C40A-4DC1-B8B4-102D183C348F";
paths = (
{
closed = 1;
nodes = (
"196 703 OFFCURVE",
"34 550 OFFCURVE",
"34 350 CURVE SMOOTH",
"34 151 OFFCURVE",
"196 -5 OFFCURVE",
"405 -5 CURVE SMOOTH",
"614 -5 OFFCURVE",
"776 151 OFFCURVE",
"776 350 CURVE SMOOTH",
"776 549 OFFCURVE",
"614 703 OFFCURVE",
"405 703 CURVE SMOOTH"
);
},
{
closed = 1;
nodes = (
"543 603 OFFCURVE",
"655 492 OFFCURVE",
"655 350 CURVE SMOOTH",
"655 208 OFFCURVE",
"543 95 OFFCURVE",
"406 95 CURVE SMOOTH",
"269 95 OFFCURVE",
"154 208 OFFCURVE",
"154 350 CURVE SMOOTH",
"154 492 OFFCURVE",
"268 603 OFFCURVE",
"406 603 CURVE SMOOTH"
);
}
);
width = 810;
}
);
leftKerningGroup = O;
rightKerningGroup = O;
unicode = 004F;
},
{
glyphname = Oslash;
lastChange = "2016-08-01 01:22:09 +0000";
layers = (
{
anchors = (
{
name = top;
position = "{409, 699}";
}
);
components = (
{
name = O;
}
);
layerId = UUID0;
paths = (
{
closed = 1;
nodes = (
"232 -140 LINE",
"253 -140 LINE",
"559 816 LINE",
"538 816 LINE"
);
}
);
width = 818;
},
{
anchors = (
{
name = top;
position = "{382, 701}";
}
);
components = (
{
name = O;
}
);
layerId = "5DA6E103-6A94-47F2-987D-4952DB8EA68E";
paths = (
{
closed = 1;
nodes = (
"169 -105 LINE",
"296 -105 LINE",
"625 805 LINE",
"498 805 LINE"
);
}
);
width = 800;
},
{
anchors = (
{
name = top;
position = "{396.538, 699.923}";
}
);
components = (
{
name = O;
}
);
layerId = "1C84A7F3-C40A-4DC1-B8B4-102D183C348F";
paths = (
{
closed = 1;
nodes = (
"201 -123 LINE",
"270 -123 LINE",
"587 811 LINE",
"517 811 LINE"
);
}
);
width = 810;
}
);
leftKerningGroup = O;
leftMetricsKey = O;
rightKerningGroup = O;
rightMetricsKey = O;
unicode = 00D8;
},
{
glyphname = OE;
lastChange = "2016-08-01 01:22:09 +0000";
layers = (
{
anchors = (
{
name = bottom;
position = "{767, 0}";
},
{
name = ogonek;
position = "{1025, 10}";
},
{
name = top;
position = "{545, 699}";
}
);
layerId = UUID0;
paths = (
{
closed = 1;
nodes = (
"579 680 LINE",
"581 699 LINE",
"409 699 LINE",
"212 699 OFFCURVE",
"50 542 OFFCURVE",
"50 350 CURVE SMOOTH",
"50 158 OFFCURVE",
"212 0 OFFCURVE",
"409 0 CURVE",
"579 0 LINE",
"578 17 LINE",
"409 19 LINE",
"222 19 OFFCURVE",
"69 168 OFFCURVE",
"69 350 CURVE SMOOTH",
"69 532 OFFCURVE",
"222 680 OFFCURVE",
"409 680 CURVE"
);
},
{
closed = 1;
nodes = (
"573 0 LINE",
"1024 0 LINE",
"1024 20 LINE",
"593 20 LINE",
"593 350 LINE",
"964 350 LINE",
"964 370 LINE",
"593 370 LINE",
"593 679 LINE",
"1010 679 LINE",
"1010 699 LINE",
"573 699 LINE"
);
}
);
width = 1089;
},
{
anchors = (
{
name = bottom;
position = "{788, 0}";
},
{
name = ogonek;
position = "{1081, 10}";
},
{
name = top;
position = "{557, 701}";
}
);
layerId = "5DA6E103-6A94-47F2-987D-4952DB8EA68E";
paths = (
{
closed = 1;
nodes = (
"537 514 LINE",
"537 701 LINE",
"399 701 LINE",
"176 701 OFFCURVE",
"15 551 OFFCURVE",
"15 349 CURVE SMOOTH",
"15 146 OFFCURVE",
"178 0 OFFCURVE",
"399 0 CURVE",
"556 0 LINE",
"559 185 LINE",
"399 183 LINE",
"314 183 OFFCURVE",
"253 253 OFFCURVE",
"253 348 CURVE SMOOTH",
"253 444 OFFCURVE",
"314 514 OFFCURVE",
"399 514 CURVE"
);
},
{
closed = 1;
nodes = (
"487 0 LINE",
"1089 0 LINE",
"1089 176 LINE",
"719 176 LINE",
"719 263 LINE",
"1047 263 LINE",
"1047 439 LINE",
"719 439 LINE",
"719 525 LINE",
"1080 525 LINE",
"1080 701 LINE",
"487 701 LINE"
);
}
);
width = 1127;
},
{
anchors = (
{
name = bottom;
position = "{772.474, 0}";
},
{
name = ogonek;
position = "{1040.89, 10}";
},
{
name = top;
position = "{551, 700}";
}
);
layerId = "1C84A7F3-C40A-4DC1-B8B4-102D183C348F";
paths = (
{
closed = 1;
nodes = (
"560 599 LINE",
"561 700 LINE",
"404 700 LINE",
"195 700 OFFCURVE",
"34 546 OFFCURVE",
"34 350 CURVE SMOOTH",
"34 152 OFFCURVE",
"196 0 OFFCURVE",
"404 0 CURVE",
"568 0 LINE",
"569 100 LINE",
"405 100 LINE",
"264 100 OFFCURVE",
"154 207 OFFCURVE",
"154 349 CURVE SMOOTH",
"154 491 OFFCURVE",
"264 599 OFFCURVE",
"405 599 CURVE"
);
},
{
closed = 1;
nodes = (
"533 0 LINE",
"1045 0 LINE",
"1045 101 LINE",
"651 101 LINE",
"651 302 LINE",
"993 302 LINE",
"993 402 LINE",
"651 402 LINE",
"651 599 LINE",
"1033 599 LINE",
"1033 700 LINE",
"533 700 LINE"
);
}
);
width = 1097;
}
);
leftKerningGroup = O;
leftMetricsKey = O;
rightKerningGroup = E;
rightMetricsKey = E;
unicode = 0152;
},
{
glyphname = P;
lastChange = "2016-08-01 01:22:09 +0000";
layers = (
{
layerId = UUID0;
paths = (
{
closed = 1;
nodes = (
"128 699 LINE",
"128 0 LINE",
"148 0 LINE",
"148 240 LINE",
"365 240 LINE SMOOTH",
"535 240 OFFCURVE",
"632 325 OFFCURVE",
"632 472 CURVE SMOOTH",
"632 616 OFFCURVE",
"535 699 OFFCURVE",
"365 699 CURVE SMOOTH"
);
},
{
closed = 1;
nodes = (
"148 260 LINE",
"148 679 LINE",
"365 679 LINE SMOOTH",
"522 679 OFFCURVE",
"612 604 OFFCURVE",
"612 472 CURVE SMOOTH",
"612 337 OFFCURVE",
"522 260 OFFCURVE",
"365 260 CURVE SMOOTH"
);
}
);
width = 662;
},
{
layerId = "5DA6E103-6A94-47F2-987D-4952DB8EA68E";
paths = (
{
closed = 1;
nodes = (
"50 701 LINE",
"50 0 LINE",
"282 0 LINE",
"282 182 LINE",
"379 182 LINE SMOOTH",
"561 182 OFFCURVE",
"666 280 OFFCURVE",
"666 450 CURVE SMOOTH",
"666 610 OFFCURVE",
"561 701 OFFCURVE",
"379 701 CURVE SMOOTH"
);
},
{
closed = 1;
nodes = (
"282 358 LINE",
"282 525 LINE",
"367 525 LINE SMOOTH",
"417 525 OFFCURVE",
"446 495 OFFCURVE",
"446 443 CURVE SMOOTH",
"446 389 OFFCURVE",
"417 358 OFFCURVE",
"367 358 CURVE SMOOTH"
);
}
);
width = 686;
},
{
layerId = "1C84A7F3-C40A-4DC1-B8B4-102D183C348F";
paths = (
{
closed = 1;
nodes = (
"92 699.923 LINE",
"92 0 LINE",
"209.846 0 LINE",
"209.846 213.231 LINE",
"371.462 213.231 LINE SMOOTH",
"547 213.231 OFFCURVE",
"647.692 304.231 OFFCURVE",
"647.692 461.846 CURVE SMOOTH",
"647.692 613.231 OFFCURVE",
"547 699.923 OFFCURVE",
"371.462 699.923 CURVE SMOOTH"
);
},
{
closed = 1;
nodes = (
"209.579 314 LINE",
"209.579 599.421 LINE",
"365.947 599.421 LINE SMOOTH",
"473.684 599.421 OFFCURVE",
"535.384 553.692 OFFCURVE",
"535.384 458.616 CURVE SMOOTH",
"535.384 361 OFFCURVE",
"473.684 314 OFFCURVE",
"365.947 314 CURVE SMOOTH"
);
}
);
width = 673;
}
);
leftKerningGroup = H;
rightKerningGroup = P;
unicode = 0050;
},
{
glyphname = Thorn;
lastChange = "2016-08-01 01:22:09 +0000";
layers = (
{
layerId = UUID0;
paths = (
{
closed = 1;
nodes = (
"139 587 LINE",
"141 567 LINE",
"335 567 LINE SMOOTH",
"521 567 OFFCURVE",
"612 501 OFFCURVE",
"612 367 CURVE SMOOTH",
"612 229 OFFCURVE",
"521 162 OFFCURVE",
"335 162 CURVE SMOOTH",
"143 162 LINE",
"143 142 LINE",
"335 142 LINE SMOOTH",
"534 142 OFFCURVE",
"632 216 OFFCURVE",
"632 367 CURVE SMOOTH",
"632 515 OFFCURVE",
"534 587 OFFCURVE",
"335 587 CURVE SMOOTH"
);
},
{
closed = 1;
nodes = (
"128 0 LINE",
"148 0 LINE",
"148 699 LINE",
"128 699 LINE"
);
}
);
width = 662;
},
{
layerId = "5DA6E103-6A94-47F2-987D-4952DB8EA68E";
paths = (
{
closed = 1;
nodes = (
"238 615 LINE",
"270 439 LINE",
"372 439 LINE SMOOTH",
"413 439 OFFCURVE",
"440 408 OFFCURVE",
"440 360 CURVE SMOOTH",
"440 310 OFFCURVE",
"413 278 OFFCURVE",
"372 278 CURVE SMOOTH",
"270 278 LINE",
"270 102 LINE",
"382 102 LINE SMOOTH",
"562 102 OFFCURVE",
"678 206 OFFCURVE",
"678 367 CURVE SMOOTH",
"678 518 OFFCURVE",
"562 615 OFFCURVE",
"382 615 CURVE SMOOTH"
);
},
{
closed = 1;
nodes = (
"50 0 LINE",
"282 0 LINE",
"282 701 LINE",
"50 701 LINE"
);
}
);
width = 698;
},
{
layerId = "1C84A7F3-C40A-4DC1-B8B4-102D183C348F";
paths = (
{
closed = 1;
nodes = (
"184.693 599.923 LINE",
"200.538 507.923 LINE",
"352.077 507.923 LINE SMOOTH",
"471.154 507.923 OFFCURVE",
"532.615 458.077 OFFCURVE",
"532.615 363.769 CURVE SMOOTH",
"532.615 266.385 OFFCURVE",
"471.154 215.539 OFFCURVE",
"352.077 215.539 CURVE SMOOTH",
"201.616 215.539 LINE",
"201.616 123.539 LINE",
"356.692 123.539 LINE SMOOTH",
"546.923 123.539 OFFCURVE",
"653.231 211.384 OFFCURVE",
"653.231 367 CURVE SMOOTH",
"653.231 516.385 OFFCURVE",
"546.923 599.923 OFFCURVE",
"356.692 599.923 CURVE SMOOTH"
);
},
{
closed = 1;
nodes = (
"92 0 LINE",
"209.846 0 LINE",
"209.846 699.923 LINE",
"92 699.923 LINE"
);
}
);
width = 678;
}
);
leftKerningGroup = H;
leftMetricsKey = H;
rightKerningGroup = Thorn;
rightMetricsKey = P;
unicode = 00DE;
},
{
glyphname = Q;
lastChange = "2016-08-01 01:22:09 +0000";
layers = (
{
components = (
{
name = O;
}
);
layerId = UUID0;
paths = (
{
closed = 1;
nodes = (
"429 3 LINE",
"508 -82 OFFCURVE",
"579 -124 OFFCURVE",
"648 -124 CURVE SMOOTH",
"701 -124 OFFCURVE",
"754 -99 OFFCURVE",
"808 -48 CURVE",
"794 -34 LINE",
"744 -81 OFFCURVE",
"696 -105 OFFCURVE",
"648 -105 CURVE SMOOTH",
"585 -105 OFFCURVE",
"520 -65 OFFCURVE",
"443 17 CURVE"
);
}
);
width = 835;
},
{
components = (
{
name = O;
}
);
layerId = "5DA6E103-6A94-47F2-987D-4952DB8EA68E";
paths = (
{
closed = 1;
nodes = (
"370 -2 LINE",
"405 -108 OFFCURVE",
"493 -177 OFFCURVE",
"601 -177 CURVE SMOOTH",
"674 -177 OFFCURVE",
"761 -146 OFFCURVE",
"815 -99 CURVE",
"738 38 LINE",
"698 9 OFFCURVE",
"654 -10 OFFCURVE",
"626 -10 CURVE SMOOTH",
"592 -10 OFFCURVE",
"564 18 OFFCURVE",
"550 55 CURVE"
);
}
);
width = 801;
},
{
components = (
{
name = O;
}
);
layerId = "1C84A7F3-C40A-4DC1-B8B4-102D183C348F";
paths = (
{
closed = 1;
nodes = (
"401 0 LINE",
"457 -96 OFFCURVE",
"537 -152 OFFCURVE",
"627 -152 CURVE SMOOTH",
"692 -152 OFFCURVE",
"763 -124 OFFCURVE",
"817 -75 CURVE",
"770 4 LINE",
"724 -33 OFFCURVE",
"678 -55 OFFCURVE",
"641 -55 CURVE SMOOTH",
"593 -55 OFFCURVE",
"547 -21 OFFCURVE",
"503 37 CURVE"
);
}
);
width = 818;
}
);
leftKerningGroup = O;
rightKerningGroup = O;
unicode = 0051;
},
{
glyphname = Q.ss01;
lastChange = "2016-08-01 01:22:09 +0000";
layers = (
{
components = (
{
name = O;
}
);
layerId = UUID0;
paths = (
{
closed = 1;
nodes = (
"399 -135 LINE",
"419 -135 LINE",
"419 224 LINE",
"399 224 LINE"
);
}
);
width = 818;
},
{
components = (
{
name = O;
}
);
layerId = "5DA6E103-6A94-47F2-987D-4952DB8EA68E";
paths = (
{
closed = 1;
nodes = (
"326 -116 LINE",
"466 -116 LINE",
"466 314 LINE",
"326 314 LINE"
);
}
);
width = 800;
},
{
components = (
{
name = O;
}
);
layerId = "1C84A7F3-C40A-4DC1-B8B4-102D183C348F";
paths = (
{
closed = 1;
nodes = (
"348.789 -126 LINE",
"449.316 -126 LINE",
"449.316 265.684 LINE",
"348.789 265.684 LINE"
);
}
);
width = 810;
}
);
leftKerningGroup = O;
leftMetricsKey = O;
rightKerningGroup = O;
rightMetricsKey = O;
},
{
glyphname = R;
lastChange = "2016-08-01 01:22:09 +0000";
layers = (
{
anchors = (
{
name = bottom;
position = "{361, 0}";
},
{
name = top;
position = "{341, 699}";
}
);
layerId = UUID0;
paths = (
{
closed = 1;
nodes = (
"128 699 LINE",
"128 0 LINE",
"148 0 LINE",
"148 240 LINE",
"365 240 LINE SMOOTH",
"535 240 OFFCURVE",
"632 325 OFFCURVE",
"632 472 CURVE SMOOTH",
"632 616 OFFCURVE",
"535 699 OFFCURVE",
"365 699 CURVE SMOOTH"
);
},
{
closed = 1;
nodes = (
"148 260 LINE",
"148 679 LINE",
"365 679 LINE SMOOTH",
"522 679 OFFCURVE",
"612 604 OFFCURVE",
"612 472 CURVE SMOOTH",
"612 337 OFFCURVE",
"522 260 OFFCURVE",
"365 260 CURVE SMOOTH"
);
},
{
closed = 1;
nodes = (
"607 0 LINE",
"632 0 LINE",
"447 254 LINE",
"422 254 LINE"
);
}
);
width = 722;
},
{
anchors = (
{
name = bottom;
position = "{359, 0}";
},
{
name = top;
position = "{372, 701}";
}
);
layerId = "5DA6E103-6A94-47F2-987D-4952DB8EA68E";
paths = (
{
closed = 1;
nodes = (
"50 701 LINE",
"50 0 LINE",
"282 0 LINE",
"282 182 LINE",
"389 182 LINE SMOOTH",
"579 182 OFFCURVE",
"688 280 OFFCURVE",
"688 450 CURVE SMOOTH",
"688 610 OFFCURVE",
"579 701 OFFCURVE",
"389 701 CURVE SMOOTH"
);
},
{
closed = 1;
nodes = (
"282 358 LINE",
"282 525 LINE",
"389 525 LINE SMOOTH",
"439 525 OFFCURVE",
"468 495 OFFCURVE",
"468 443 CURVE SMOOTH",
"468 389 OFFCURVE",
"439 358 OFFCURVE",
"389 358 CURVE SMOOTH"
);
},
{
closed = 1;
nodes = (
"453 0 LINE",
"715 0 LINE",
"554 265 LINE",
"330 265 LINE"
);
}
);
width = 725;
},
{
anchors = (
{
name = bottom;
position = "{360.077, 0}";
},
{
name = top;
position = "{355.308, 699.923}";
}
);
layerId = "1C84A7F3-C40A-4DC1-B8B4-102D183C348F";
paths = (
{
closed = 1;
nodes = (
"92 699.923 LINE",
"92 0 LINE",
"209.846 0 LINE",
"209.846 213.231 LINE",
"376.077 213.231 LINE SMOOTH",
"555.308 213.231 OFFCURVE",
"657.846 304.231 OFFCURVE",
"657.846 461.846 CURVE SMOOTH",
"657.846 613.231 OFFCURVE",
"555.308 699.923 OFFCURVE",
"376.077 699.923 CURVE SMOOTH"
);
},
{
closed = 1;
nodes = (
"209.579 314 LINE",
"209.579 599.421 LINE",
"376.368 599.421 LINE SMOOTH",
"484.105 599.421 OFFCURVE",
"545.538 553.692 OFFCURVE",
"545.538 458.616 CURVE SMOOTH",
"545.538 361 OFFCURVE",
"484.105 314 OFFCURVE",
"376.368 314 CURVE SMOOTH"
);
},
{
closed = 1;
nodes = (
"535.923 0 LINE",
"670.308 0 LINE",
"496.384 259.077 LINE",
"379.538 259.077 LINE"
);
}
);
width = 723;
}
);
leftKerningGroup = H;
rightKerningGroup = R;
unicode = 0052;
},
{
glyphname = S;
lastChange = "2016-08-01 01:22:09 +0000";
layers = (
{
anchors = (
{
name = bottom;
position = "{297, 0}";
},
{
name = top;
position = "{287, 699}";
}
);
layerId = UUID0;
paths = (
{
closed = 1;
nodes = (
"488 648 LINE",
"440 679 OFFCURVE",
"367 699 OFFCURVE",
"302 699 CURVE",
"167 699 OFFCURVE",
"79 638 OFFCURVE",
"79 544 CURVE",
"79 290 OFFCURVE",
"499 410 OFFCURVE",
"497 170 CURVE",
"497 79 OFFCURVE",
"412 20 OFFCURVE",
"280 20 CURVE",
"196 20 OFFCURVE",
"108 56 OFFCURVE",
"55 112 CURVE",
"41 98 LINE",
"99 39 OFFCURVE",
"192 0 OFFCURVE",
"280 0 CURVE",
"424 0 OFFCURVE",
"517 67 OFFCURVE",
"517 170 CURVE",
"519 430 OFFCURVE",
"99 310 OFFCURVE",
"99 544 CURVE",
"99 626 OFFCURVE",
"179 679 OFFCURVE",
"302 679 CURVE",
"364 679 OFFCURVE",
"433 661 OFFCURVE",
"478 632 CURVE"
);
}
);
width = 593;
},
{
anchors = (
{
name = bottom;
position = "{345, 0}";
},
{
name = top;
position = "{359, 701}";
}
);
layerId = "5DA6E103-6A94-47F2-987D-4952DB8EA68E";
paths = (
{
closed = 1;
nodes = (
"659 628 LINE",
"580 678 OFFCURVE",
"465 711 OFFCURVE",
"354 711 CURVE SMOOTH",
"172 711 OFFCURVE",
"54 623 OFFCURVE",
"54 483 CURVE SMOOTH",
"54 237 OFFCURVE",
"417 297 OFFCURVE",
"417 206 CURVE SMOOTH",
"417 181 OFFCURVE",
"395 170 OFFCURVE",
"361 170 CURVE SMOOTH",
"290 170 OFFCURVE",
"166 219 OFFCURVE",
"94 279 CURVE",
"8 105 LINE",
"101 34 OFFCURVE",
"237 -7 OFFCURVE",
"359 -7 CURVE SMOOTH",
"517 -7 OFFCURVE",
"654 62 OFFCURVE",
"654 218 CURVE SMOOTH",
"654 472 OFFCURVE",
"291 417 OFFCURVE",
"291 505 CURVE SMOOTH",
"291 526 OFFCURVE",
"308 534 OFFCURVE",
"334 534 CURVE SMOOTH",
"395 534 OFFCURVE",
"504 491 OFFCURVE",
"575 452 CURVE"
);
}
);
width = 664;
},
{
anchors = (
{
name = bottom;
position = "{316, 0}";
},
{
name = top;
position = "{319, 700}";
}
);
layerId = "1C84A7F3-C40A-4DC1-B8B4-102D183C348F";
paths = (
{
closed = 1;
nodes = (
"567 633 LINE",
"502 676 OFFCURVE",
"413 705 OFFCURVE",
"322 705 CURVE",
"170 705 OFFCURVE",
"67 630 OFFCURVE",
"67 512 CURVE",
"67 263 OFFCURVE",
"445 352 OFFCURVE",
"445 191 CURVE",
"445 135 OFFCURVE",
"396 102 OFFCURVE",
"314 102 CURVE",
"239 102 OFFCURVE",
"149 138 OFFCURVE",
"77 204 CURVE",
"26 107 LINE",
"98 42 OFFCURVE",
"202 -4 OFFCURVE",
"312 -4 CURVE",
"466 -4 OFFCURVE",
"576 74 OFFCURVE",
"576 197 CURVE",
"577 448 OFFCURVE",
"199 365 OFFCURVE",
"199 522 CURVE",
"199 571 OFFCURVE",
"244 598 OFFCURVE",
"313 598 CURVE",
"366 598 OFFCURVE",
"442 581 OFFCURVE",
"518 534 CURVE"
);
}
);
width = 622;
}
);
leftKerningGroup = S;
rightKerningGroup = S;
unicode = 0053;
},
{
glyphname = Germandbls;
lastChange = "2016-08-05 13:59:31 +0000";
layers = (
{
layerId = UUID0;
paths = (
{
closed = 1;
nodes = (
"60 0 LINE",
"80 0 LINE",
"80 456 LINE SMOOTH",
"80 601 OFFCURVE",
"175 679 OFFCURVE",
"321 679 CURVE SMOOTH",
"405 679 OFFCURVE",
"468 655 OFFCURVE",
"513 630 CURVE",
"316 385 LINE",
"316 365 LINE",
"321 365 LINE",
"466 365 OFFCURVE",
"548 299 OFFCURVE",
"548 197 CURVE SMOOTH",
"548 90 OFFCURVE",
"462 20 OFFCURVE",
"330 20 CURVE SMOOTH",
"245 20 LINE",
"245 0 LINE",
"330 0 LINE SMOOTH",
"475 0 OFFCURVE",
"568 77 OFFCURVE",
"568 197 CURVE SMOOTH",
"568 299 OFFCURVE",
"490 385 OFFCURVE",
"322 385 CURVE",
"334 375 LINE",
"532 620 LINE",
"532 640 LINE",
"484 672 OFFCURVE",
"417 699 OFFCURVE",
"321 699 CURVE SMOOTH",
"163 699 OFFCURVE",
"60 613 OFFCURVE",
"60 456 CURVE SMOOTH"
);
}
);
width = 600;
},
{
layerId = "1C84A7F3-C40A-4DC1-B8B4-102D183C348F";
width = 600;
},
{
layerId = "5DA6E103-6A94-47F2-987D-4952DB8EA68E";
width = 600;
},
{
associatedMasterId = UUID0;
layerId = "36AED164-4DA3-4DF9-8210-990F56BE0807";
name = "Light Aug 5 16, 19:29";
paths = (
{
closed = 1;
nodes = (
"60 0 LINE",
"80 0 LINE",
"80 456 LINE SMOOTH",
"80 601 OFFCURVE",
"175 679 OFFCURVE",
"321 679 CURVE SMOOTH",
"405 679 OFFCURVE",
"468 655 OFFCURVE",
"513 630 CURVE",
"316 385 LINE",
"316 365 LINE",
"321 365 LINE",
"466 365 OFFCURVE",
"548 299 OFFCURVE",
"548 197 CURVE SMOOTH",
"548 90 OFFCURVE",
"462 20 OFFCURVE",
"330 20 CURVE SMOOTH",
"245 20 LINE",
"245 0 LINE",
"330 0 LINE SMOOTH",
"475 0 OFFCURVE",
"568 77 OFFCURVE",
"568 197 CURVE SMOOTH",
"568 299 OFFCURVE",
"490 385 OFFCURVE",
"322 385 CURVE",
"334 375 LINE",
"532 620 LINE",
"532 640 LINE",
"484 672 OFFCURVE",
"417 699 OFFCURVE",
"321 699 CURVE SMOOTH",
"163 699 OFFCURVE",
"60 613 OFFCURVE",
"60 456 CURVE SMOOTH"
);
}
);
width = 600;
}
);
unicode = 1E9E;
},
{
color = 4;
glyphname = Schwa;
lastChange = "2016-08-05 13:50:03 +0000";
layers = (
{
layerId = UUID0;
paths = (
{
closed = 1;
nodes = (
"583 0 OFFCURVE",
"740 158 OFFCURVE",
"740 350 CURVE SMOOTH",
"740 542 OFFCURVE",
"583 699 OFFCURVE",
"391 699 CURVE SMOOTH",
"284 699 OFFCURVE",
"188 653 OFFCURVE",
"122 580 CURVE",
"135 565 LINE",
"198 635 OFFCURVE",
"289 679 OFFCURVE",
"391 679 CURVE SMOOTH",
"572 679 OFFCURVE",
"720 531 OFFCURVE",
"720 350 CURVE",
"42 350 LINE",
"42 158 OFFCURVE",
"199 0 OFFCURVE",
"391 0 CURVE SMOOTH"
);
},
{
closed = 1;
nodes = (
"216.713 20 OFFCURVE",
"73.023 158.153 OFFCURVE",
"62.605 330 CURVE",
"719.395 330 LINE",
"708.977 158.153 OFFCURVE",
"565.287 20 OFFCURVE",
"391 20 CURVE SMOOTH"
);
}
);
width = 790;
},
{
guideLines = (
{
position = "{631, 350}";
}
);
layerId = "1C84A7F3-C40A-4DC1-B8B4-102D183C348F";
paths = (
{
closed = 1;
nodes = (
"591 -5 OFFCURVE",
"746 151 OFFCURVE",
"746 350 CURVE SMOOTH",
"746 549 OFFCURVE",
"591 703 OFFCURVE",
"391 703 CURVE SMOOTH",
"265 703 OFFCURVE",
"175 655 OFFCURVE",
"105 578 CURVE",
"190 502 LINE",
"236 564 OFFCURVE",
"310 603 OFFCURVE",
"392 603 CURVE SMOOTH",
"513.619 603 OFFCURVE",
"615.414 507.328 OFFCURVE",
"629.37 380 CURVE",
"30 380 LINE",
"30 155 OFFCURVE",
"177 -5 OFFCURVE",
"391 -5 CURVE SMOOTH"
);
},
{
closed = 1;
nodes = (
"273.093 95 OFFCURVE",
"184.609 168.982 OFFCURVE",
"158.168 279 CURVE",
"622.563 279 LINE",
"595.355 168.982 OFFCURVE",
"505.086 95 OFFCURVE",
"392 95 CURVE SMOOTH"
);
}
);
width = 780;
},
{
layerId = "5DA6E103-6A94-47F2-987D-4952DB8EA68E";
paths = (
{
closed = 1;
nodes = (
"617 -10 OFFCURVE",
"775 143 OFFCURVE",
"775 351 CURVE SMOOTH",
"775 558 OFFCURVE",
"617 708 OFFCURVE",
"400 708 CURVE SMOOTH",
"283 708 OFFCURVE",
"182 667 OFFCURVE",
"114 598 CURVE",
"273 433 LINE",
"299 483 OFFCURVE",
"348 515 OFFCURVE",
"403 515 CURVE SMOOTH",
"469.217 515 OFFCURVE",
"517.621 467.728 OFFCURVE",
"532.334 397 CURVE",
"25 397 LINE",
"25 150 OFFCURVE",
"173 -10 OFFCURVE",
"400 -10 CURVE SMOOTH"
);
},
{
closed = 1;
nodes = (
"343.719 183 OFFCURVE",
"299.029 217.535 OFFCURVE",
"277.413 271 CURVE",
"524.669 271 LINE",
"505.74 217.535 OFFCURVE",
"465.071 183 OFFCURVE",
"403 183 CURVE SMOOTH"
);
}
);
width = 800;
},
{
associatedMasterId = UUID0;
layerId = "36F04124-8610-48E4-81FD-B0A3EC08BAC9";
name = "Light Aug 5 16, 18:01";
paths = (
{
closed = 1;
nodes = (
"703 316 LINE",
"703 344 LINE",
"50 344 LINE",
"50 138 OFFCURVE",
"181 -10 OFFCURVE",
"379 -10 CURVE SMOOTH",
"575 -10 OFFCURVE",
"720 138 OFFCURVE",
"720 344 CURVE SMOOTH",
"720 551 OFFCURVE",
"575 699 OFFCURVE",
"379 699 CURVE SMOOTH",
"269 699 OFFCURVE",
"173 657 OFFCURVE",
"109 588 CURVE",
"128 568 LINE",
"187 634 OFFCURVE",
"276 671 OFFCURVE",
"379 671 CURVE SMOOTH",
"561 671 OFFCURVE",
"692 537 OFFCURVE",
"692 344 CURVE SMOOTH",
"692 152 OFFCURVE",
"561 18 OFFCURVE",
"379 18 CURVE SMOOTH",
"203 18 OFFCURVE",
"90 140 OFFCURVE",
"77 316 CURVE"
);
}
);
width = 770;
visible = 1;
},
{
associatedMasterId = "5DA6E103-6A94-47F2-987D-4952DB8EA68E";
layerId = "8851A81C-4DFF-413A-BD74-FFCFF4D28745";
name = "Bold Aug 5 16, 18:27";
paths = (
{
closed = 1;
nodes = (
"617 -10 OFFCURVE",
"775 143 OFFCURVE",
"775 351 CURVE SMOOTH",
"775 558 OFFCURVE",
"617 708 OFFCURVE",
"400 708 CURVE SMOOTH",
"283 708 OFFCURVE",
"182 667 OFFCURVE",
"114 598 CURVE",
"273 433 LINE",
"299 483 OFFCURVE",
"348 515 OFFCURVE",
"403 515 CURVE SMOOTH",
"483 515 OFFCURVE",
"537 446 OFFCURVE",
"537 350 CURVE SMOOTH",
"537 254 OFFCURVE",
"492 183 OFFCURVE",
"403 183 CURVE SMOOTH",
"318 183 OFFCURVE",
"263 254 OFFCURVE",
"263 350 CURVE SMOOTH",
"263 397 LINE",
"25 397 LINE",
"25 150 OFFCURVE",
"173 -10 OFFCURVE",
"400 -10 CURVE SMOOTH"
);
},
{
closed = 1;
nodes = (
"600 271 LINE",
"600 397 LINE",
"117 397 LINE",
"107 271 LINE"
);
}
);
width = 800;
}
);
unicode = 018F;
},
{
glyphname = Schwa.ss01;
lastChange = "2016-08-05 13:53:03 +0000";
layers = (
{
layerId = UUID0;
paths = (
{
closed = 1;
nodes = (
"720 167 OFFCURVE",
"570 20 OFFCURVE",
"391 20 CURVE SMOOTH",
"270 20 OFFCURVE",
"163 88 OFFCURVE",
"105 188 CURVE",
"716 441 LINE",
"708 459 LINE",
"77 198 LINE",
"136 80 OFFCURVE",
"255 0 OFFCURVE",
"391 0 CURVE SMOOTH",
"583 0 OFFCURVE",
"740 158 OFFCURVE",
"740 350 CURVE SMOOTH",
"740 542 OFFCURVE",
"583 699 OFFCURVE",
"391 699 CURVE SMOOTH",
"284 699 OFFCURVE",
"188 653 OFFCURVE",
"122 580 CURVE",
"135 565 LINE",
"198 635 OFFCURVE",
"289 679 OFFCURVE",
"391 679 CURVE SMOOTH",
"574 679 OFFCURVE",
"720 529 OFFCURVE",
"720 350 CURVE SMOOTH"
);
}
);
width = 790;
},
{
layerId = "1C84A7F3-C40A-4DC1-B8B4-102D183C348F";
width = 600;
},
{
layerId = "5DA6E103-6A94-47F2-987D-4952DB8EA68E";
width = 600;
},
{
associatedMasterId = UUID0;
layerId = "22C34E66-4953-4804-87D8-92558BDB1580";
name = "Light Aug 5 16, 19:20";
paths = (
{
closed = 1;
nodes = (
"583 0 OFFCURVE",
"740 158 OFFCURVE",
"740 350 CURVE SMOOTH",
"740 542 OFFCURVE",
"583 699 OFFCURVE",
"391 699 CURVE SMOOTH",
"284 699 OFFCURVE",
"188 653 OFFCURVE",
"122 580 CURVE",
"135 565 LINE",
"198 635 OFFCURVE",
"289 679 OFFCURVE",
"391 679 CURVE SMOOTH",
"572 679 OFFCURVE",
"720 531 OFFCURVE",
"720 350 CURVE",
"42 350 LINE",
"42 158 OFFCURVE",
"199 0 OFFCURVE",
"391 0 CURVE SMOOTH"
);
},
{
closed = 1;
nodes = (
"217 20 OFFCURVE",
"73 158 OFFCURVE",
"63 330 CURVE",
"719 330 LINE",
"709 158 OFFCURVE",
"565 20 OFFCURVE",
"391 20 CURVE SMOOTH"
);
}
);
width = 790;
visible = 1;
}
);
},
{
glyphname = T;
lastChange = "2016-08-01 01:22:09 +0000";
layers = (
{
anchors = (
{
name = bottom;
position = "{248, 0}";
},
{
name = center;
position = "{263, 350}";
},
{
name = top;
position = "{263, 699}";
}
);
layerId = UUID0;
paths = (
{
closed = 1;
nodes = (
"13 679 LINE",
"253 679 LINE",
"253 0 LINE",
"273 0 LINE",
"273 679 LINE",
"513 679 LINE",
"513 699 LINE",
"13 699 LINE"
);
}
);
width = 526;
},
{
anchors = (
{
name = bottom;
position = "{309, 0}";
},
{
name = center;
position = "{307, 351}";
},
{
name = top;
position = "{337, 701}";
}
);
layerId = "5DA6E103-6A94-47F2-987D-4952DB8EA68E";
paths = (
{
closed = 1;
nodes = (
"5 518 LINE",
"204 518 LINE",
"204 0 LINE",
"436 0 LINE",
"436 518 LINE",
"636 518 LINE",
"636 701 LINE",
"5 701 LINE"
);
}
);
width = 641;
},
{
anchors = (
{
name = bottom;
position = "{276, 0}";
},
{
name = center;
position = "{283, 350}";
},
{
name = top;
position = "{297, 700}";
}
);
layerId = "1C84A7F3-C40A-4DC1-B8B4-102D183C348F";
paths = (
{
closed = 1;
nodes = (
"9 599 LINE",
"230 599 LINE",
"230 0 LINE",
"348 0 LINE",
"348 599 LINE",
"570 599 LINE",
"570 700 LINE",
"9 700 LINE"
);
}
);
width = 579;
}
);
leftKerningGroup = T;
rightKerningGroup = T;
unicode = 0054;
},
{
glyphname = T.ss01;
lastChange = "2016-08-01 01:22:09 +0000";
layers = (
{
anchors = (
{
name = bottom;
position = "{286, 0}";
},
{
name = center;
position = "{301, 350}";
},
{
name = top;
position = "{301, 699}";
}
);
layerId = UUID0;
paths = (
{
closed = 1;
nodes = (
"50 620 LINE",
"125 658 OFFCURVE",
"215 679 OFFCURVE",
"300 679 CURVE SMOOTH",
"387 679 OFFCURVE",
"478 658 OFFCURVE",
"552 620 CURVE",
"560 636 LINE",
"483 677 OFFCURVE",
"391 699 OFFCURVE",
"300 699 CURVE SMOOTH",
"210 699 OFFCURVE",
"118 677 OFFCURVE",
"42 637 CURVE"
);
},
{
closed = 1;
nodes = (
"291 0 LINE",
"311 0 LINE",
"311 686 LINE",
"291 686 LINE"
);
}
);
width = 602;
},
{
anchors = (
{
name = bottom;
position = "{336, 0}";
},
{
name = center;
position = "{356, 351}";
},
{
name = top;
position = "{356, 701}";
}
);
layerId = "5DA6E103-6A94-47F2-987D-4952DB8EA68E";
paths = (
{
closed = 1;
nodes = (
"68 456 LINE",
"148 496 OFFCURVE",
"245 521 OFFCURVE",
"350 521 CURVE SMOOTH",
"454 521 OFFCURVE",
"550 497 OFFCURVE",
"634 456 CURVE",
"692 626 LINE",
"592 681 OFFCURVE",
"473 711 OFFCURVE",
"350 711 CURVE SMOOTH",
"227 711 OFFCURVE",
"108 681 OFFCURVE",
"10 627 CURVE"
);
},
{
closed = 1;
nodes = (
"235 0 LINE",
"467 0 LINE",
"467 601 LINE",
"235 601 LINE"
);
}
);
width = 712;
},
{
anchors = (
{
name = bottom;
position = "{313.474, 0}";
},
{
name = center;
position = "{326.579, 350}";
},
{
name = top;
position = "{326.579, 699.947}";
}
);
layerId = "1C84A7F3-C40A-4DC1-B8B4-102D183C348F";
paths = (
{
closed = 1;
nodes = (
"68 534.737 LINE",
"142.053 573.684 OFFCURVE",
"233 596.579 OFFCURVE",
"322.737 596.579 CURVE SMOOTH",
"414.474 596.579 OFFCURVE",
"504.526 574.632 OFFCURVE",
"580.421 534.737 CURVE",
"620.923 631.384 LINE",
"533.308 678.846 OFFCURVE",
"428.846 704.538 OFFCURVE",
"323.077 704.538 CURVE SMOOTH",
"217.846 704.538 OFFCURVE",
"113.384 678.846 OFFCURVE",
"27.231 632.384 CURVE"
);
},
{
closed = 1;
nodes = (
"265.154 0 LINE",
"383 0 LINE",
"383 646.769 LINE",
"265.154 646.769 LINE"
);
}
);
width = 652.769;
}
);
leftKerningGroup = T;
rightKerningGroup = T;
},
{
glyphname = U;
lastChange = "2016-08-01 01:22:09 +0000";
layers = (
{
anchors = (
{
name = ogonek;
position = "{527, 10}";
},
{
name = top;
position = "{387, 699}";
}
);
layerId = UUID0;
paths = (
{
closed = 1;
nodes = (
"130 699 LINE",
"110 699 LINE",
"110 284 LINE",
"110 103 OFFCURVE",
"211 0 OFFCURVE",
"387 0 CURVE",
"563 0 OFFCURVE",
"664 103 OFFCURVE",
"664 284 CURVE",
"664 699 LINE",
"644 699 LINE",
"644 284 LINE",
"644 116 OFFCURVE",
"550 20 OFFCURVE",
"387 20 CURVE",
"224 20 OFFCURVE",
"130 116 OFFCURVE",
"130 284 CURVE"
);
}
);
width = 774;
},
{
anchors = (
{
name = ogonek;
position = "{582, 10}";
},
{
name = top;
position = "{377, 701}";
}
);
layerId = "5DA6E103-6A94-47F2-987D-4952DB8EA68E";
paths = (
{
closed = 1;
nodes = (
"272 701 LINE",
"40 701 LINE",
"40 297 LINE SMOOTH",
"40 111 OFFCURVE",
"175 -10 OFFCURVE",
"379 -10 CURVE SMOOTH",
"582 -10 OFFCURVE",
"713 111 OFFCURVE",
"713 297 CURVE SMOOTH",
"713 701 LINE",
"481 701 LINE",
"481 297 LINE SMOOTH",
"481 227 OFFCURVE",
"437 183 OFFCURVE",
"380 183 CURVE SMOOTH",
"322 183 OFFCURVE",
"272 228 OFFCURVE",
"272 297 CURVE SMOOTH"
);
}
);
width = 753;
},
{
anchors = (
{
name = ogonek;
position = "{543.105, 10}";
},
{
name = top;
position = "{382.384, 699.923}";
}
);
layerId = "1C84A7F3-C40A-4DC1-B8B4-102D183C348F";
paths = (
{
closed = 1;
nodes = (
"195.538 699.923 LINE",
"77.692 699.923 LINE",
"77.692 290 LINE",
"77.692 106.692 OFFCURVE",
"194.385 -5 OFFCURVE",
"383.308 -5 CURVE",
"571.769 -5 OFFCURVE",
"686.616 106.692 OFFCURVE",
"686.616 290 CURVE",
"686.616 699.923 LINE",
"568.769 699.923 LINE",
"568.769 290 LINE",
"568.769 167.231 OFFCURVE",
"497.846 95.231 OFFCURVE",
"383.769 95.231 CURVE",
"269.231 95.231 OFFCURVE",
"195.538 167.692 OFFCURVE",
"195.538 290 CURVE"
);
}
);
width = 764;
}
);
leftKerningGroup = U;
rightKerningGroup = U;
unicode = 0055;
},
{
glyphname = Uogonek;
lastChange = "2016-08-01 01:22:09 +0000";
layers = (
{
layerId = UUID0;
paths = (
{
closed = 1;
nodes = (
"464 23 LINE",
"409 -50 OFFCURVE",
"389 -93 OFFCURVE",
"389 -131 CURVE SMOOTH",
"389 -172 OFFCURVE",
"417 -199 OFFCURVE",
"453 -199 CURVE SMOOTH",
"480 -199 OFFCURVE",
"508 -181 OFFCURVE",
"527 -159 CURVE",
"513 -145 LINE",
"495 -165 OFFCURVE",
"475 -179 OFFCURVE",
"453 -179 CURVE SMOOTH",
"428 -179 OFFCURVE",
"409 -162 OFFCURVE",
"409 -131 CURVE SMOOTH",
"409 -95 OFFCURVE",
"424 -55 OFFCURVE",
"484 23 CURVE"
);
},
{
closed = 1;
nodes = (
"130 699 LINE",
"110 699 LINE",
"110 284 LINE",
"110 103 OFFCURVE",
"211 0 OFFCURVE",
"387 0 CURVE",
"563 0 OFFCURVE",
"664 103 OFFCURVE",
"664 284 CURVE",
"664 699 LINE",
"644 699 LINE",
"644 284 LINE",
"644 116 OFFCURVE",
"550 20 OFFCURVE",
"387 20 CURVE",
"224 20 OFFCURVE",
"130 116 OFFCURVE",
"130 284 CURVE"
);
}
);
width = 774;
},
{
layerId = "5DA6E103-6A94-47F2-987D-4952DB8EA68E";
paths = (
{
closed = 1;
nodes = (
"426 24 LINE",
"395 -17 OFFCURVE",
"366 -66 OFFCURVE",
"366 -116 CURVE SMOOTH",
"366 -185 OFFCURVE",
"420 -204 OFFCURVE",
"462 -204 CURVE SMOOTH",
"511 -204 OFFCURVE",
"554 -179 OFFCURVE",
"582 -128 CURVE",
"527 -64 LINE",
"516 -83 OFFCURVE",
"503 -94 OFFCURVE",
"490 -94 CURVE SMOOTH",
"482 -94 OFFCURVE",
"476 -89 OFFCURVE",
"476 -79 CURVE SMOOTH",
"476 -59 OFFCURVE",
"500 -19 OFFCURVE",
"531 24 CURVE"
);
},
{
closed = 1;
nodes = (
"272 701 LINE",
"40 701 LINE",
"40 297 LINE SMOOTH",
"40 111 OFFCURVE",
"175 -10 OFFCURVE",
"379 -10 CURVE SMOOTH",
"582 -10 OFFCURVE",
"713 111 OFFCURVE",
"713 297 CURVE SMOOTH",
"713 701 LINE",
"481 701 LINE",
"481 297 LINE SMOOTH",
"481 227 OFFCURVE",
"437 183 OFFCURVE",
"380 183 CURVE SMOOTH",
"322 183 OFFCURVE",
"272 228 OFFCURVE",
"272 297 CURVE SMOOTH"
);
}
);
width = 753;
},
{
layerId = "1C84A7F3-C40A-4DC1-B8B4-102D183C348F";
paths = (
{
closed = 1;
nodes = (
"430 13 LINE",
"391 -41 OFFCURVE",
"369 -84 OFFCURVE",
"369 -124 CURVE SMOOTH",
"369 -178 OFFCURVE",
"409 -201 OFFCURVE",
"448 -201 CURVE SMOOTH",
"485 -201 OFFCURVE",
"520 -180 OFFCURVE",
"543 -145 CURVE",
"510 -108 LINE",
"495 -127 OFFCURVE",
"479 -140 OFFCURVE",
"460 -140 CURVE SMOOTH",
"443 -140 OFFCURVE",
"431 -128 OFFCURVE",
"431 -107 CURVE SMOOTH",
"431 -81 OFFCURVE",
"449 -44 OFFCURVE",
"489 13 CURVE"
);
},
{
closed = 1;
nodes = (
"195 700 LINE",
"78 700 LINE",
"78 290 LINE",
"78 107 OFFCURVE",
"194 -5 OFFCURVE",
"383 -5 CURVE",
"571 -5 OFFCURVE",
"687 107 OFFCURVE",
"687 290 CURVE",
"687 700 LINE",
"569 700 LINE",
"569 290 LINE",
"569 167 OFFCURVE",
"498 95 OFFCURVE",
"384 95 CURVE",
"269 95 OFFCURVE",
"195 168 OFFCURVE",
"195 290 CURVE"
);
}
);
width = 765;
}
);
leftKerningGroup = U;
rightKerningGroup = U;
unicode = 0172;
},
{
glyphname = V;
lastChange = "2016-08-01 01:22:09 +0000";
layers = (
{
layerId = UUID0;
paths = (
{
closed = 1;
nodes = (
"302 0 LINE",
"324 0 LINE",
"616 699 LINE",
"592 699 LINE",
"313 23 LINE",
"33 699 LINE",
"10 699 LINE"
);
}
);
width = 626;
},
{
layerId = "5DA6E103-6A94-47F2-987D-4952DB8EA68E";
paths = (
{
closed = 1;
nodes = (
"261 0 LINE",
"501 0 LINE",
"769 701 LINE",
"532 701 LINE",
"388 241 LINE",
"243 701 LINE",
"-5 701 LINE"
);
}
);
width = 764;
},
{
layerId = "1C84A7F3-C40A-4DC1-B8B4-102D183C348F";
paths = (
{
closed = 1;
nodes = (
"282.308 0 LINE",
"404.462 0 LINE",
"686.615 699.923 LINE",
"564.307 699.923 LINE",
"346.384 123.615 LINE",
"129.923 699.923 LINE",
"3.077 699.923 LINE"
);
}
);
width = 690;
}
);
leftKerningGroup = V;
rightKerningGroup = V;
unicode = 0056;
},
{
glyphname = W;
lastChange = "2016-08-01 01:22:09 +0000";
layers = (
{
anchors = (
{
name = bottom;
position = "{494, 0}";
},
{
name = top;
position = "{494, 699}";
}
);
layerId = UUID0;
paths = (
{
closed = 1;
nodes = (
"247 0 LINE",
"268 0 LINE",
"494 671 LINE",
"719 0 LINE",
"740 0 LINE",
"977 699 LINE",
"954 699 LINE",
"730 23 LINE",
"505 699 LINE",
"482 699 LINE",
"258 23 LINE",
"33 699 LINE",
"10 699 LINE"
);
}
);
width = 987;
},
{
anchors = (
{
name = bottom;
position = "{561, 0}";
},
{
name = top;
position = "{561, 701}";
}
);
layerId = "5DA6E103-6A94-47F2-987D-4952DB8EA68E";
paths = (
{
closed = 1;
nodes = (
"222 0 LINE",
"461 0 LINE",
"561 419 LINE",
"658 0 LINE",
"897 0 LINE",
"1126 701 LINE",
"889 701 LINE",
"785 241 LINE",
"679 701 LINE",
"453 701 LINE",
"349 241 LINE",
"243 701 LINE",
"-5 701 LINE"
);
}
);
width = 1121;
},
{
anchors = (
{
name = bottom;
position = "{518, 0}";
},
{
name = top;
position = "{518, 700}";
}
);
layerId = "1C84A7F3-C40A-4DC1-B8B4-102D183C348F";
paths = (
{
closed = 1;
nodes = (
"235.462 0 LINE",
"357.077 0 LINE",
"524.923 554.692 LINE",
"690.846 0 LINE",
"812.462 0 LINE",
"1045.77 699.923 LINE",
"924 699.923 LINE",
"755.385 123.615 LINE",
"585.308 699.923 LINE",
"469 700 LINE",
"300 123.615 LINE",
"129.923 699.923 LINE",
"3.077 699.923 LINE"
);
}
);
width = 1036;
}
);
leftKerningGroup = V;
rightKerningGroup = V;
unicode = 0057;
},
{
glyphname = W.ss01;
lastChange = "2016-08-01 01:22:09 +0000";
layers = (
{
anchors = (
{
name = top;
position = "{601, 699}";
}
);
layerId = UUID0;
paths = (
{
closed = 1;
nodes = (
"1092 699 LINE",
"1072 699 LINE",
"1072 234 LINE SMOOTH",
"1072 104 OFFCURVE",
"983 20 OFFCURVE",
"845 20 CURVE SMOOTH",
"704 20 OFFCURVE",
"612 104 OFFCURVE",
"612 234 CURVE SMOOTH",
"612 699 LINE",
"592 699 LINE",
"592 234 LINE SMOOTH",
"592 104 OFFCURVE",
"500 20 OFFCURVE",
"357 20 CURVE SMOOTH",
"219 20 OFFCURVE",
"130 104 OFFCURVE",
"130 234 CURVE SMOOTH",
"130 699 LINE",
"110 699 LINE",
"110 234 LINE SMOOTH",
"110 92 OFFCURVE",
"207 0 OFFCURVE",
"357 0 CURVE SMOOTH",
"478 0 OFFCURVE",
"574 61 OFFCURVE",
"602 155 CURVE",
"629 61 OFFCURVE",
"724 0 OFFCURVE",
"845 0 CURVE SMOOTH",
"995 0 OFFCURVE",
"1092 92 OFFCURVE",
"1092 234 CURVE SMOOTH"
);
}
);
width = 1202;
},
{
anchors = (
{
name = top;
position = "{577, 701}";
}
);
layerId = "5DA6E103-6A94-47F2-987D-4952DB8EA68E";
paths = (
{
closed = 1;
nodes = (
"1114 701 LINE",
"882 701 LINE",
"882 287 LINE SMOOTH",
"882 227 OFFCURVE",
"845 183 OFFCURVE",
"791 183 CURVE SMOOTH",
"737 183 OFFCURVE",
"693 227 OFFCURVE",
"693 287 CURVE SMOOTH",
"693 701 LINE",
"461 701 LINE",
"461 287 LINE SMOOTH",
"460 227 OFFCURVE",
"421 183 OFFCURVE",
"368 183 CURVE SMOOTH",
"314 183 OFFCURVE",
"272 227 OFFCURVE",
"272 287 CURVE SMOOTH",
"272 701 LINE",
"40 701 LINE",
"40 287 LINE SMOOTH",
"40 115 OFFCURVE",
"163 -10 OFFCURVE",
"330 -10 CURVE SMOOTH",
"435 -10 OFFCURVE",
"529 40 OFFCURVE",
"578 108 CURVE",
"628 40 OFFCURVE",
"724 -10 OFFCURVE",
"828 -10 CURVE SMOOTH",
"993 -10 OFFCURVE",
"1114 115 OFFCURVE",
"1114 287 CURVE SMOOTH"
);
}
);
width = 1154;
},
{
anchors = (
{
name = top;
position = "{589.632, 699.947}";
}
);
layerId = "1C84A7F3-C40A-4DC1-B8B4-102D183C348F";
paths = (
{
closed = 1;
nodes = (
"1102.16 699.923 LINE",
"984.308 699.923 LINE",
"984.308 258.462 LINE SMOOTH",
"984.308 160.769 OFFCURVE",
"919.307 95.231 OFFCURVE",
"820.077 95.231 CURVE SMOOTH",
"719.231 95.231 OFFCURVE",
"649.385 160.769 OFFCURVE",
"649.385 258.462 CURVE SMOOTH",
"649.385 699.923 LINE",
"531.538 699.923 LINE",
"531.538 258.462 LINE SMOOTH",
"531.077 160.769 OFFCURVE",
"463.539 95.231 OFFCURVE",
"362.077 95.231 CURVE SMOOTH",
"262.846 95.231 OFFCURVE",
"195.538 160.769 OFFCURVE",
"195.538 258.462 CURVE SMOOTH",
"195.538 699.923 LINE",
"77.692 699.923 LINE",
"77.692 258.462 LINE SMOOTH",
"77.692 102.615 OFFCURVE",
"186.692 -5 OFFCURVE",
"344.538 -5 CURVE SMOOTH",
"458.154 -5 OFFCURVE",
"553.231 51.308 OFFCURVE",
"590.923 133.308 CURVE",
"628.539 51.308 OFFCURVE",
"724 -5 OFFCURVE",
"837.154 -5 CURVE SMOOTH",
"994.077 -5 OFFCURVE",
"1102.16 102.615 OFFCURVE",
"1102.16 258.462 CURVE SMOOTH"
);
}
);
width = 1179;
}
);
leftKerningGroup = W.ss01;
leftMetricsKey = U;
rightKerningGroup = W.ss01;
rightMetricsKey = U;
},
{
glyphname = X;
lastChange = "2016-08-01 01:22:09 +0000";
layers = (
{
layerId = UUID0;
paths = (
{
closed = 1;
nodes = (
"294 362 LINE",
"33 0 LINE",
"57 0 LINE",
"306 346 LINE",
"556 0 LINE",
"580 0 LINE",
"318 362 LINE",
"561 699 LINE",
"537 699 LINE",
"306 379 LINE",
"76 699 LINE",
"52 699 LINE"
);
}
);
width = 623;
},
{
layerId = "5DA6E103-6A94-47F2-987D-4952DB8EA68E";
paths = (
{
closed = 1;
nodes = (
"241 356 LINE",
"-5 0 LINE",
"266 0 LINE",
"382 181 LINE",
"500 0 LINE",
"778 0 LINE",
"530 367 LINE",
"757 701 LINE",
"484 701 LINE",
"382 536 LINE",
"280 701 LINE",
"10 701 LINE"
);
}
);
width = 773;
},
{
associatedMasterId = UUID0;
background = {
paths = (
{
closed = 0;
nodes = (
"551 699 LINE",
"47 0 LINE"
);
},
{
closed = 0;
nodes = (
"66 699 LINE",
"570 0 LINE"
);
}
);
};
layerId = "BC3F43BB-9F1F-4863-A9A9-2B20CB3BE0AF";
name = "Light Mar 13 12, 18:48";
paths = (
{
closed = 1;
nodes = (
"35 0 LINE",
"59 0 LINE",
"563 699 LINE",
"539 699 LINE"
);
},
{
closed = 1;
nodes = (
"558 0 LINE",
"582 0 LINE",
"78 699 LINE",
"54 699 LINE"
);
}
);
width = 617;
},
{
layerId = "1C84A7F3-C40A-4DC1-B8B4-102D183C348F";
paths = (
{
closed = 1;
nodes = (
"269.538 359.231 LINE",
"15.462 0 LINE",
"153.462 0 LINE",
"341.077 269.846 LINE",
"530.154 0 LINE",
"671.385 0 LINE",
"415.846 364.308 LINE",
"651.461 699.923 LINE",
"512.538 699.923 LINE",
"341.077 451.461 LINE",
"170.154 699.923 LINE",
"32.615 699.923 LINE"
);
}
);
width = 692;
}
);
leftKerningGroup = X;
rightKerningGroup = X;
unicode = 0058;
},
{
glyphname = Y;
lastChange = "2016-08-01 01:22:09 +0000";
layers = (
{
anchors = (
{
name = top;
position = "{303, 699}";
}
);
layerId = UUID0;
paths = (
{
closed = 1;
nodes = (
"302 258 LINE",
"308 258 LINE",
"596 699 LINE",
"572 699 LINE",
"305 289 LINE",
"34 699 LINE",
"10 699 LINE"
);
},
{
closed = 1;
nodes = (
"295 0 LINE",
"315 0 LINE",
"315 277 LINE",
"295 277 LINE"
);
}
);
width = 606;
},
{
anchors = (
{
name = top;
position = "{360, 701}";
}
);
layerId = "5DA6E103-6A94-47F2-987D-4952DB8EA68E";
paths = (
{
closed = 1;
nodes = (
"347 20 LINE",
"375 20 LINE",
"729 701 LINE",
"498 701 LINE",
"362 431 LINE",
"221 701 LINE",
"-10 701 LINE"
);
},
{
closed = 1;
nodes = (
"246 0 LINE",
"478 0 LINE",
"478 317 LINE",
"246 317 LINE"
);
}
);
width = 719;
},
{
anchors = (
{
name = top;
position = "{318.158, 699.947}";
}
);
layerId = "1C84A7F3-C40A-4DC1-B8B4-102D183C348F";
paths = (
{
closed = 1;
nodes = (
"311.474 148.105 LINE",
"327.895 148.105 LINE",
"635.789 699.947 LINE",
"516.105 699.947 LINE",
"320.158 354.368 LINE",
"120.211 699.947 LINE",
"0.769 699.923 LINE"
);
},
{
closed = 1;
nodes = (
"261.842 0 LINE",
"379.421 0 LINE",
"379.421 295 LINE",
"261.842 295 LINE"
);
}
);
width = 637;
}
);
leftKerningGroup = V;
rightKerningGroup = V;
unicode = 0059;
},
{
glyphname = Y.ss01;
lastChange = "2016-08-01 01:22:09 +0000";
layers = (
{
anchors = (
{
name = top;
position = "{367, 699}";
}
);
layerId = UUID0;
paths = (
{
closed = 1;
nodes = (
"130 699 LINE SMOOTH",
"110 699 LINE",
"110 414 LINE",
"110 267 OFFCURVE",
"212 160 OFFCURVE",
"353 160 CURVE",
"510 163 OFFCURVE",
"624 278 OFFCURVE",
"624 434 CURVE",
"606 434 LINE",
"606 290 OFFCURVE",
"499 183 OFFCURVE",
"353 180 CURVE",
"224 180 OFFCURVE",
"130 279 OFFCURVE",
"130 414 CURVE"
);
},
{
closed = 1;
nodes = (
"624 699 LINE",
"605 699 LINE",
"605 147 LINE",
"605 16 OFFCURVE",
"507 -80 OFFCURVE",
"373 -80 CURVE",
"277 -80 OFFCURVE",
"173 -34 OFFCURVE",
"127 28 CURVE",
"112 14 LINE",
"159 -52 OFFCURVE",
"269 -100 OFFCURVE",
"373 -100 CURVE",
"518 -100 OFFCURVE",
"624 4 OFFCURVE",
"624 147 CURVE"
);
}
);
width = 734;
},
{
anchors = (
{
name = top;
position = "{373, 701}";
}
);
layerId = "5DA6E103-6A94-47F2-987D-4952DB8EA68E";
paths = (
{
closed = 1;
nodes = (
"272 701 LINE",
"40 701 LINE",
"40 423 LINE SMOOTH",
"40 259 OFFCURVE",
"136 152 OFFCURVE",
"280 152 CURVE SMOOTH",
"430 152 OFFCURVE",
"524 267 OFFCURVE",
"524 448 CURVE",
"474 448 LINE",
"474 388 OFFCURVE",
"433 350 OFFCURVE",
"371 350 CURVE SMOOTH",
"310 350 OFFCURVE",
"272 387 OFFCURVE",
"272 445 CURVE SMOOTH"
);
},
{
closed = 1;
nodes = (
"706 701 LINE",
"474 701 LINE",
"474 202 LINE SMOOTH",
"474 130 OFFCURVE",
"417 83 OFFCURVE",
"330 83 CURVE",
"269 83 OFFCURVE",
"193 105 OFFCURVE",
"136 139 CURVE",
"50 -17 LINE",
"126 -73 OFFCURVE",
"246 -110 OFFCURVE",
"361 -110 CURVE SMOOTH",
"569 -110 OFFCURVE",
"706 11 OFFCURVE",
"706 197 CURVE SMOOTH"
);
}
);
width = 746;
},
{
anchors = (
{
name = top;
position = "{369.842, 699.947}";
}
);
layerId = "1C84A7F3-C40A-4DC1-B8B4-102D183C348F";
paths = (
{
closed = 1;
nodes = (
"195.538 699.923 LINE SMOOTH",
"77.692 699.923 LINE",
"77.692 418.154 LINE",
"77.692 263.308 OFFCURVE",
"184.526 156.211 OFFCURVE",
"337.842 156.211 CURVE",
"492 158.263 OFFCURVE",
"596.526 280.842 OFFCURVE",
"596.526 459.579 CURVE",
"545.368 478.526 LINE",
"545.368 350.632 OFFCURVE",
"468.684 259.737 OFFCURVE",
"361.307 258.462 CURVE",
"263.692 258.462 OFFCURVE",
"195.538 328.846 OFFCURVE",
"195.538 428.308 CURVE"
);
},
{
closed = 1;
nodes = (
"661.846 699.923 LINE",
"544.538 699.923 LINE",
"544.538 172.385 LINE",
"544.538 68.615 OFFCURVE",
"465.316 -5 OFFCURVE",
"353.105 -5 CURVE",
"277 -5 OFFCURVE",
"190.053 34.211 OFFCURVE",
"140.263 88.632 CURVE",
"83.579 9.263 LINE",
"143.842 -58 OFFCURVE",
"258.385 -105 OFFCURVE",
"367.462 -105 CURVE",
"541.538 -105 OFFCURVE",
"661.846 7.231 OFFCURVE",
"661.846 170.077 CURVE"
);
}
);
width = 739;
}
);
leftKerningGroup = Y.ss01;
leftMetricsKey = U;
rightKerningGroup = Y.ss01;
rightMetricsKey = J;
},
{
glyphname = Z;
lastChange = "2016-08-01 01:22:09 +0000";
layers = (
{
anchors = (
{
name = top;
position = "{325, 699}";
}
);
layerId = UUID0;
paths = (
{
closed = 1;
nodes = (
"66 679 LINE",
"575 679 LINE",
"52 25 LINE",
"52 0 LINE",
"598 0 LINE",
"598 20 LINE",
"72 20 LINE",
"595 674 LINE",
"595 699 LINE",
"66 699 LINE"
);
}
);
width = 650;
},
{
anchors = (
{
name = top;
position = "{362, 701}";
}
);
layerId = "5DA6E103-6A94-47F2-987D-4952DB8EA68E";
paths = (
{
closed = 1;
nodes = (
"32 523 LINE",
"347 523 LINE",
"20 145 LINE",
"20 0 LINE",
"663 0 LINE",
"663 178 LINE",
"329 178 LINE",
"656 556 LINE",
"656 701 LINE",
"32 701 LINE"
);
}
);
width = 683;
},
{
anchors = (
{
name = top;
position = "{342.077, 699.923}";
}
);
layerId = "1C84A7F3-C40A-4DC1-B8B4-102D183C348F";
paths = (
{
closed = 1;
nodes = (
"49.895 599.421 LINE",
"464.158 599.421 LINE",
"37.231 80.385 LINE",
"37.231 0 LINE",
"628 0 LINE",
"628.316 100.526 LINE",
"197.053 100.526 LINE",
"623.154 619.539 LINE",
"623.154 699.923 LINE",
"50.308 699.923 LINE"
);
}
);
width = 666;
}
);
leftKerningGroup = Z;
rightKerningGroup = Z;
unicode = 005A;
},
{
glyphname = Z.ss01;
lastChange = "2016-08-01 01:22:09 +0000";
layers = (
{
anchors = (
{
name = top;
position = "{325, 699}";
}
);
layerId = UUID0;
paths = (
{
closed = 1;
nodes = (
"66 679 LINE",
"575 679 LINE",
"52 25 LINE",
"52 0 LINE",
"598 0 LINE",
"598 20 LINE",
"72 20 LINE",
"595 674 LINE",
"595 699 LINE",
"66 699 LINE"
);
},
{
closed = 1;
nodes = (
"116 342 LINE",
"327 342 LINE",
"327 362 LINE",
"116 362 LINE"
);
},
{
closed = 1;
nodes = (
"323 339 LINE",
"535 339 LINE",
"535 359 LINE",
"323 359 LINE"
);
}
);
width = 650;
},
{
anchors = (
{
name = top;
position = "{342, 701}";
}
);
layerId = "5DA6E103-6A94-47F2-987D-4952DB8EA68E";
paths = (
{
closed = 1;
nodes = (
"32 523 LINE",
"347 523 LINE",
"20 145 LINE",
"20 0 LINE",
"663 0 LINE",
"663 178 LINE",
"329 178 LINE",
"656 556 LINE",
"656 701 LINE",
"32 701 LINE"
);
},
{
closed = 1;
nodes = (
"68 297 LINE",
"360 297 LINE",
"360 436 LINE",
"68 436 LINE"
);
},
{
closed = 1;
nodes = (
"330 277 LINE",
"605 277 LINE",
"605 416 LINE",
"330 416 LINE"
);
}
);
width = 683;
},
{
anchors = (
{
name = top;
position = "{332.579, 699.947}";
}
);
layerId = "1C84A7F3-C40A-4DC1-B8B4-102D183C348F";
paths = (
{
closed = 1;
nodes = (
"49.895 599.421 LINE",
"464.158 599.421 LINE",
"37.231 80.385 LINE",
"37.231 0 LINE",
"628 0 LINE",
"628.316 100.526 LINE",
"197.053 100.526 LINE",
"623.154 619.539 LINE",
"623.154 699.923 LINE",
"50.308 699.923 LINE"
);
},
{
closed = 1;
nodes = (
"106.526 304.105 LINE",
"327 304.105 LINE",
"327 395.158 LINE",
"106.526 395.158 LINE"
);
},
{
closed = 1;
nodes = (
"323 299.211 LINE",
"546.368 299.211 LINE",
"546.368 390.263 LINE",
"323 390.263 LINE"
);
}
);
width = 666;
}
);
leftKerningGroup = Z.ss01;
leftMetricsKey = Z;
rightKerningGroup = Z.ss01;
rightMetricsKey = Z;
},
{
glyphname = a;
lastChange = "2016-08-01 01:22:09 +0000";
layers = (
{
anchors = (
{
name = ogonek;
position = "{505, 10}";
},
{
name = top;
position = "{275, 517}";
}
);
layerId = UUID0;
paths = (
{
closed = 1;
nodes = (
"458 262 LINE",
"458 282 LINE",
"255 282 LINE",
"137 282 OFFCURVE",
"63 233 OFFCURVE",
"63 149 CURVE",
"63 63 OFFCURVE",
"131 0 OFFCURVE",
"231 0 CURVE",
"338 0 OFFCURVE",
"424 47 OFFCURVE",
"467 156 CURVE",
"449 164 LINE",
"408 61 OFFCURVE",
"333 20 OFFCURVE",
"232 20 CURVE",
"141 20 OFFCURVE",
"83 73 OFFCURVE",
"83 149 CURVE",
"83 221 OFFCURVE",
"145 262 OFFCURVE",
"255 262 CURVE"
);
},
{
closed = 1;
nodes = (
"449 0 LINE",
"469 0 LINE",
"467 345 LINE",
"466 450 OFFCURVE",
"402 517 OFFCURVE",
"283 517 CURVE",
"210 517 OFFCURVE",
"148 487 OFFCURVE",
"90 441 CURVE",
"102 425 LINE",
"158 469 OFFCURVE",
"214 497 OFFCURVE",
"283 497 CURVE",
"392 497 OFFCURVE",
"446 440 OFFCURVE",
"447 345 CURVE"
);
}
);
width = 562;
},
{
anchors = (
{
name = ogonek;
position = "{594, 10}";
},
{
name = top;
position = "{308, 547}";
}
);
layerId = "5DA6E103-6A94-47F2-987D-4952DB8EA68E";
paths = (
{
closed = 1;
nodes = (
"371 225 LINE",
"371 329 LINE",
"227 329 LINE SMOOTH",
"88 327 OFFCURVE",
"15 270 OFFCURVE",
"15 162 CURVE SMOOTH",
"15 58 OFFCURVE",
"82 -10 OFFCURVE",
"198 -10 CURVE SMOOTH",
"291 -10 OFFCURVE",
"352 34 OFFCURVE",
"378 109 CURVE",
"352 175 LINE",
"334 148 OFFCURVE",
"305 133 OFFCURVE",
"276 133 CURVE SMOOTH",
"244 133 OFFCURVE",
"226 151 OFFCURVE",
"226 181 CURVE SMOOTH",
"226 210 OFFCURVE",
"243 225 OFFCURVE",
"274 225 CURVE SMOOTH"
);
},
{
closed = 1;
nodes = (
"352 0 LINE",
"573 0 LINE",
"573 354 LINE SMOOTH",
"573 483 OFFCURVE",
"479 557 OFFCURVE",
"321 557 CURVE SMOOTH",
"240 557 OFFCURVE",
"144 538 OFFCURVE",
"51 504 CURVE",
"101 354 LINE",
"163 377 OFFCURVE",
"226 389 OFFCURVE",
"267 389 CURVE SMOOTH",
"323 389 OFFCURVE",
"352 366 OFFCURVE",
"352 327 CURVE"
);
}
);
width = 613;
},
{
anchors = (
{
name = ogonek;
position = "{546, 10}";
},
{
name = top;
position = "{290, 531}";
}
);
layerId = "1C84A7F3-C40A-4DC1-B8B4-102D183C348F";
paths = (
{
closed = 1;
nodes = (
"418 237 LINE",
"418 319 LINE",
"242 319 LINE",
"114 318 OFFCURVE",
"41 256 OFFCURVE",
"41 160 CURVE",
"41 67 OFFCURVE",
"113 -5 OFFCURVE",
"228 -5 CURVE",
"323 -5 OFFCURVE",
"393 30 OFFCURVE",
"426 99 CURVE",
"404 196 LINE",
"402 132 OFFCURVE",
"337 83 OFFCURVE",
"252 83 CURVE",
"188 83 OFFCURVE",
"149 115 OFFCURVE",
"149 164 CURVE",
"149 216 OFFCURVE",
"184 237 OFFCURVE",
"259 237 CURVE"
);
},
{
closed = 1;
nodes = (
"404 0 LINE",
"517 0 LINE",
"516 349 LINE",
"515 465 OFFCURVE",
"438 535 OFFCURVE",
"301 535 CURVE",
"200 535 OFFCURVE",
"146 511 OFFCURVE",
"72 466 CURVE",
"119 392 LINE",
"172 428 OFFCURVE",
"225 447 OFFCURVE",
"276 447 CURVE",
"360 447 OFFCURVE",
"403 406 OFFCURVE",
"403 337 CURVE"
);
}
);
width = 586;
}
);
leftKerningGroup = a;
rightKerningGroup = n;
unicode = 0061;
},
{
glyphname = a.ss01;
lastChange = "2016-08-01 01:22:09 +0000";
layers = (
{
anchors = (
{
name = ogonek;
position = "{616, 10}";
},
{
name = top;
position = "{332, 517}";
}
);
layerId = UUID0;
paths = (
{
closed = 1;
nodes = (
"159 519 OFFCURVE",
"52 409 OFFCURVE",
"52 258 CURVE SMOOTH",
"52 108 OFFCURVE",
"159 -2 OFFCURVE",
"305 -2 CURVE SMOOTH",
"451 -2 OFFCURVE",
"558 108 OFFCURVE",
"558 258 CURVE",
"558 409 OFFCURVE",
"451 519 OFFCURVE",
"305 519 CURVE SMOOTH"
);
},
{
closed = 1;
nodes = (
"440 499 OFFCURVE",
"538 397 OFFCURVE",
"538 258 CURVE SMOOTH",
"538 119 OFFCURVE",
"440 18 OFFCURVE",
"305 18 CURVE SMOOTH",
"170 18 OFFCURVE",
"72 119 OFFCURVE",
"72 258 CURVE SMOOTH",
"72 397 OFFCURVE",
"170 499 OFFCURVE",
"305 499 CURVE SMOOTH"
);
},
{
closed = 1;
nodes = (
"538 0 LINE",
"558 0 LINE",
"558 517 LINE",
"538 517 LINE"
);
}
);
width = 668;
},
{
anchors = (
{
name = ogonek;
position = "{642, 10}";
},
{
name = top;
position = "{337, 547}";
}
);
layerId = "5DA6E103-6A94-47F2-987D-4952DB8EA68E";
paths = (
{
closed = 1;
nodes = (
"111 555 OFFCURVE",
"15 446 OFFCURVE",
"15 277 CURVE SMOOTH",
"15 104 OFFCURVE",
"114 -8 OFFCURVE",
"266 -8 CURVE SMOOTH",
"392 -8 OFFCURVE",
"473 104 OFFCURVE",
"473 276 CURVE",
"473 445 OFFCURVE",
"389 555 OFFCURVE",
"260 555 CURVE SMOOTH"
);
},
{
closed = 1;
nodes = (
"373 377 OFFCURVE",
"405 335 OFFCURVE",
"405 271 CURVE SMOOTH",
"405 207 OFFCURVE",
"373 165 OFFCURVE",
"324 165 CURVE SMOOTH",
"274 165 OFFCURVE",
"242 207 OFFCURVE",
"242 271 CURVE SMOOTH",
"242 335 OFFCURVE",
"274 377 OFFCURVE",
"324 377 CURVE SMOOTH"
);
},
{
closed = 1;
nodes = (
"405 0 LINE",
"630 0 LINE",
"630 547 LINE",
"405 547 LINE"
);
}
);
width = 685;
},
{
anchors = (
{
name = ogonek;
position = "{627, 10}";
},
{
name = top;
position = "{333, 531}";
}
);
layerId = "1C84A7F3-C40A-4DC1-B8B4-102D183C348F";
paths = (
{
closed = 1;
nodes = (
"136 535 OFFCURVE",
"35 426 OFFCURVE",
"35 267 CURVE SMOOTH",
"35 106 OFFCURVE",
"137 -5 OFFCURVE",
"290 -5 CURVE SMOOTH",
"436 -5 OFFCURVE",
"520 97 OFFCURVE",
"519 266 CURVE",
"520 435 OFFCURVE",
"434 537 OFFCURVE",
"286 536 CURVE SMOOTH"
);
},
{
closed = 1;
nodes = (
"410 443 OFFCURVE",
"476 369 OFFCURVE",
"477 264 CURVE SMOOTH",
"476 160 OFFCURVE",
"410 86 OFFCURVE",
"314 86 CURVE SMOOTH",
"217 86 OFFCURVE",
"151 160 OFFCURVE",
"150 264 CURVE SMOOTH",
"151 368 OFFCURVE",
"218 443 OFFCURVE",
"314 443 CURVE SMOOTH"
);
},
{
closed = 1;
nodes = (
"476 0 LINE",
"590 0 LINE",
"590 531 LINE",
"476 531 LINE"
);
}
);
width = 675;
}
);
leftKerningGroup = o;
leftMetricsKey = o;
rightKerningGroup = idotless;
rightMetricsKey = idotless;
},
{
glyphname = aogonek;
lastChange = "2016-08-01 01:22:09 +0000";
layers = (
{
layerId = UUID0;
paths = (
{
closed = 1;
nodes = (
"471 0 LINE",
"471 345 LINE",
"470 450 OFFCURVE",
"404 517 OFFCURVE",
"288 517 CURVE SMOOTH",
"210 517 OFFCURVE",
"149 487 OFFCURVE",
"90 441 CURVE",
"102 425 LINE",
"159 469 OFFCURVE",
"214 497 OFFCURVE",
"288 497 CURVE SMOOTH",
"394 497 OFFCURVE",
"450 440 OFFCURVE",
"451 345 CURVE SMOOTH",
"451 282 LINE",
"257 282 LINE SMOOTH",
"138 282 OFFCURVE",
"63 234 OFFCURVE",
"63 147 CURVE SMOOTH",
"63 66 OFFCURVE",
"127 0 OFFCURVE",
"239 0 CURVE SMOOTH",
"319 0 OFFCURVE",
"403 33 OFFCURVE",
"451 115.322 CURVE",
"451 7 LINE",
"452 7 LINE",
"384 -56 OFFCURVE",
"361 -97 OFFCURVE",
"361 -132 CURVE SMOOTH",
"361 -171 OFFCURVE",
"389 -199 OFFCURVE",
"424 -199 CURVE SMOOTH",
"451 -199 OFFCURVE",
"478 -183 OFFCURVE",
"499 -159 CURVE",
"485 -145 LINE",
"467 -165 OFFCURVE",
"447 -179 OFFCURVE",
"425 -179 CURVE SMOOTH",
"400 -179 OFFCURVE",
"381 -162 OFFCURVE",
"381 -131 CURVE SMOOTH",
"381 -100 OFFCURVE",
"398 -66 OFFCURVE",
"470 0 CURVE"
);
},
{
closed = 1;
nodes = (
"451 262 LINE",
"451 159.202 LINE",
"408 56 OFFCURVE",
"324 20 OFFCURVE",
"240 20 CURVE SMOOTH",
"134 20 OFFCURVE",
"83 78 OFFCURVE",
"83 146 CURVE SMOOTH",
"83 222 OFFCURVE",
"145 262 OFFCURVE",
"257 262 CURVE SMOOTH"
);
}
);
width = 566;
},
{
layerId = "5DA6E103-6A94-47F2-987D-4952DB8EA68E";
paths = (
{
closed = 1;
nodes = (
"578 0 LINE",
"578 354 LINE SMOOTH",
"578 483 OFFCURVE",
"483 557 OFFCURVE",
"323 557 CURVE SMOOTH",
"242 557 OFFCURVE",
"145 538 OFFCURVE",
"51 504 CURVE",
"101 354 LINE",
"164 377 OFFCURVE",
"228 389 OFFCURVE",
"270 389 CURVE SMOOTH",
"325 389 OFFCURVE",
"355 367 OFFCURVE",
"357 330 CURVE",
"356.973 329 LINE",
"229 329 LINE SMOOTH",
"89 327 OFFCURVE",
"15 270 OFFCURVE",
"15 162 CURVE SMOOTH",
"15 58 OFFCURVE",
"83 -11 OFFCURVE",
"200 -11 CURVE SMOOTH",
"271.044 -11 OFFCURVE",
"323.809 14.705 OFFCURVE",
"357 59.639 CURVE",
"357 0 LINE",
"425.858 0 LINE",
"402.094 -36 OFFCURVE",
"383 -75 OFFCURVE",
"383 -116 CURVE SMOOTH",
"383 -185 OFFCURVE",
"437 -204 OFFCURVE",
"479 -204 CURVE SMOOTH",
"528 -204 OFFCURVE",
"571 -179 OFFCURVE",
"599 -128 CURVE",
"544 -64 LINE",
"533 -83 OFFCURVE",
"520 -94 OFFCURVE",
"507 -94 CURVE SMOOTH",
"499 -94 OFFCURVE",
"493 -89 OFFCURVE",
"493 -79 CURVE SMOOTH",
"493 -63 OFFCURVE",
"508.768 -33 OFFCURVE",
"531.251 0 CURVE"
);
},
{
closed = 1;
nodes = (
"357 225 LINE",
"357 175 LINE",
"338 148 OFFCURVE",
"308 133 OFFCURVE",
"278 133 CURVE SMOOTH",
"245 133 OFFCURVE",
"226 151 OFFCURVE",
"226 181 CURVE SMOOTH",
"226 210 OFFCURVE",
"244 225 OFFCURVE",
"276 225 CURVE SMOOTH"
);
}
);
width = 618;
},
{
layerId = "1C84A7F3-C40A-4DC1-B8B4-102D183C348F";
paths = (
{
closed = 1;
nodes = (
"517 0 LINE",
"517 349 LINE",
"515 465 OFFCURVE",
"438 535 OFFCURVE",
"301 535 CURVE SMOOTH",
"199 535 OFFCURVE",
"146 511 OFFCURVE",
"72 466 CURVE",
"119 392 LINE",
"172 428 OFFCURVE",
"225 447 OFFCURVE",
"275 447 CURVE SMOOTH",
"360 447 OFFCURVE",
"402 406 OFFCURVE",
"403 336 CURVE SMOOTH",
"403 319 LINE",
"241 319 LINE SMOOTH",
"114 318 OFFCURVE",
"41 256 OFFCURVE",
"41 160 CURVE SMOOTH",
"41 67 OFFCURVE",
"112 -5 OFFCURVE",
"228 -5 CURVE SMOOTH",
"305 -5 OFFCURVE",
"366 18 OFFCURVE",
"404 65 CURVE",
"404 0 LINE",
"425 0 LINE",
"390 -47 OFFCURVE",
"371 -87 OFFCURVE",
"371 -124 CURVE SMOOTH",
"371 -178 OFFCURVE",
"411 -201 OFFCURVE",
"450 -201 CURVE SMOOTH",
"487 -201 OFFCURVE",
"522 -180 OFFCURVE",
"545 -145 CURVE",
"512 -108 LINE",
"497 -127 OFFCURVE",
"481 -140 OFFCURVE",
"463 -140 CURVE SMOOTH",
"445 -140 OFFCURVE",
"433 -128 OFFCURVE",
"433 -107 CURVE SMOOTH",
"433 -83 OFFCURVE",
"448 -49 OFFCURVE",
"483 0 CURVE"
);
},
{
closed = 1;
nodes = (
"404 237 LINE",
"404 187 LINE",
"401 133 OFFCURVE",
"332 83 OFFCURVE",
"252 83 CURVE SMOOTH",
"188 83 OFFCURVE",
"149 115 OFFCURVE",
"149 164 CURVE SMOOTH",
"149 216 OFFCURVE",
"183 237 OFFCURVE",
"259 237 CURVE SMOOTH"
);
}
);
width = 590;
}
);
leftKerningGroup = a;
rightKerningGroup = n;
unicode = 0105;
},
{
glyphname = ae;
lastChange = "2016-08-01 01:22:09 +0000";
layers = (
{
anchors = (
{
name = top;
position = "{494, 517}";
}
);
background = {
paths = (
{
closed = 1;
nodes = (
"567 20 OFFCURVE",
"470 118 OFFCURVE",
"470 259 CURVE",
"940 259 LINE",
"940 409 OFFCURVE",
"843 517 OFFCURVE",
"700 517 CURVE SMOOTH",
"591 517 OFFCURVE",
"503 455 OFFCURVE",
"467 359 CURVE",
"461 456 OFFCURVE",
"397 517 OFFCURVE",
"283 517 CURVE SMOOTH",
"209 517 OFFCURVE",
"148 487 OFFCURVE",
"89 441 CURVE",
"101 425 LINE",
"158 469 OFFCURVE",
"213 497 OFFCURVE",
"283 497 CURVE SMOOTH",
"392 497 OFFCURVE",
"447 440 OFFCURVE",
"448 345 CURVE SMOOTH",
"449 282 LINE",
"256 282 LINE SMOOTH",
"138 282 OFFCURVE",
"63 233 OFFCURVE",
"63 149 CURVE SMOOTH",
"63 63 OFFCURVE",
"132 0 OFFCURVE",
"232 0 CURVE SMOOTH",
"339 0 OFFCURVE",
"424 46 OFFCURVE",
"469 155 CURVE",
"505 61 OFFCURVE",
"593 0 OFFCURVE",
"700 0 CURVE SMOOTH",
"780 0 OFFCURVE",
"849 30 OFFCURVE",
"897 81 CURVE",
"883 95 LINE",
"839 47 OFFCURVE",
"775 20 OFFCURVE",
"700 20 CURVE SMOOTH"
);
},
{
closed = 1;
nodes = (
"827 497 OFFCURVE",
"911 408 OFFCURVE",
"920 279 CURVE",
"471 279 LINE",
"479 408 OFFCURVE",
"573 497 OFFCURVE",
"700 497 CURVE SMOOTH"
);
},
{
closed = 1;
nodes = (
"142 20 OFFCURVE",
"83 73 OFFCURVE",
"83 149 CURVE SMOOTH",
"83 221 OFFCURVE",
"146 262 OFFCURVE",
"256 262 CURVE SMOOTH",
"450 262 LINE",
"450 259 LINE SMOOTH",
"450 232 OFFCURVE",
"453 207 OFFCURVE",
"460 184 CURVE",
"414 62 OFFCURVE",
"336 20 OFFCURVE",
"232 20 CURVE SMOOTH"
);
}
);
};
layerId = UUID0;
paths = (
{
closed = 1;
nodes = (
"470 259 LINE",
"940 259 LINE",
"940 411 OFFCURVE",
"841 517 OFFCURVE",
"700 517 CURVE SMOOTH",
"593 517 OFFCURVE",
"504 457 OFFCURVE",
"467 359 CURVE",
"461 459 OFFCURVE",
"393 517 OFFCURVE",
"283 517 CURVE SMOOTH",
"217 517 OFFCURVE",
"156 493 OFFCURVE",
"89 441 CURVE",
"101 425 LINE",
"166 475 OFFCURVE",
"221 497 OFFCURVE",
"283 497 CURVE SMOOTH",
"389 497 OFFCURVE",
"447 443 OFFCURVE",
"448 345 CURVE SMOOTH",
"449 282 LINE",
"256 282 LINE SMOOTH",
"136 282 OFFCURVE",
"63 232 OFFCURVE",
"63 149 CURVE SMOOTH",
"63 62 OFFCURVE",
"133 0 OFFCURVE",
"232 0 CURVE SMOOTH",
"342 0 OFFCURVE",
"418 54 OFFCURVE",
"462 160 CURVE",
"497 67 OFFCURVE",
"591 0 OFFCURVE",
"700 0 CURVE SMOOTH",
"778 0 OFFCURVE",
"848 29 OFFCURVE",
"897 81 CURVE",
"883 95 LINE",
"838 46 OFFCURVE",
"774 20 OFFCURVE",
"700 20 CURVE SMOOTH",
"578 20 OFFCURVE",
"470 120 OFFCURVE",
"470 232 CURVE SMOOTH"
);
},
{
closed = 1;
nodes = (
"450 262 LINE",
"450 184 LINE SMOOTH",
"406 68 OFFCURVE",
"342 20 OFFCURVE",
"232 20 CURVE SMOOTH",
"143 20 OFFCURVE",
"83 72 OFFCURVE",
"83 149 CURVE SMOOTH",
"83 221 OFFCURVE",
"146 262 OFFCURVE",
"256 262 CURVE SMOOTH"
);
},
{
closed = 1;
nodes = (
"471 279 LINE",
"479 408 OFFCURVE",
"573 497 OFFCURVE",
"700 497 CURVE SMOOTH",
"824 497 OFFCURVE",
"911 411 OFFCURVE",
"920 279 CURVE"
);
}
);
width = 988;
},
{
anchors = (
{
name = top;
position = "{481, 547}";
}
);
layerId = "5DA6E103-6A94-47F2-987D-4952DB8EA68E";
paths = (
{
closed = 1;
nodes = (
"585 223 LINE",
"942 223 LINE",
"954 425 OFFCURVE",
"842 555 OFFCURVE",
"650 555 CURVE SMOOTH",
"589 555 OFFCURVE",
"538 540 OFFCURVE",
"497 512 CURVE",
"454 542 OFFCURVE",
"395 557 OFFCURVE",
"322 557 CURVE SMOOTH",
"241 557 OFFCURVE",
"145 538 OFFCURVE",
"51 504 CURVE",
"101 354 LINE",
"163 377 OFFCURVE",
"227 389 OFFCURVE",
"269 389 CURVE SMOOTH",
"320 389 OFFCURVE",
"349 370 OFFCURVE",
"354 338 CURVE SMOOTH",
"355 329 LINE",
"228 329 LINE SMOOTH",
"89 327 OFFCURVE",
"15 270 OFFCURVE",
"15 162 CURVE SMOOTH",
"15 58 OFFCURVE",
"91 -11 OFFCURVE",
"220 -11 CURVE SMOOTH",
"322 -11 OFFCURVE",
"395 27 OFFCURVE",
"436 93 CURVE",
"480 29 OFFCURVE",
"554 -8 OFFCURVE",
"656 -8 CURVE SMOOTH",
"763 -8 OFFCURVE",
"847 28 OFFCURVE",
"905 92 CURVE",
"788 207 LINE",
"754 175 OFFCURVE",
"715 158 OFFCURVE",
"676 158 CURVE SMOOTH",
"634 158 OFFCURVE",
"600 178 OFFCURVE",
"587 217 CURVE SMOOTH"
);
},
{
closed = 1;
nodes = (
"355 225 LINE",
"355 175 LINE",
"336 148 OFFCURVE",
"306 133 OFFCURVE",
"277 133 CURVE SMOOTH",
"245 133 OFFCURVE",
"226 151 OFFCURVE",
"226 181 CURVE SMOOTH",
"226 210 OFFCURVE",
"244 225 OFFCURVE",
"275 225 CURVE SMOOTH"
);
},
{
closed = 1;
nodes = (
"580 327 LINE",
"589 373 OFFCURVE",
"613 405 OFFCURVE",
"652 405 CURVE SMOOTH",
"692 405 OFFCURVE",
"720 372 OFFCURVE",
"717 327 CURVE"
);
}
);
width = 958;
},
{
anchors = (
{
name = top;
position = "{488, 531}";
}
);
background = {
paths = (
{
closed = 1;
nodes = (
"332 -5 OFFCURVE",
"411 38 OFFCURVE",
"454 124 CURVE",
"495 44 OFFCURVE",
"575 -4 OFFCURVE",
"680 -4 CURVE SMOOTH",
"772 -4 OFFCURVE",
"848 29 OFFCURVE",
"901 86 CURVE",
"839 147 LINE",
"800 106 OFFCURVE",
"747 84 OFFCURVE",
"689 84 CURVE SMOOTH",
"608 84 OFFCURVE",
"545 133 OFFCURVE",
"526 213 CURVE SMOOTH",
"524 222 OFFCURVE",
"522 232 OFFCURVE",
"521 242 CURVE",
"941 242 LINE",
"947 416 OFFCURVE",
"843 535 OFFCURVE",
"677 535 CURVE SMOOTH",
"598 535 OFFCURVE",
"533 506 OFFCURVE",
"488 455 CURVE",
"453 506 OFFCURVE",
"389 535 OFFCURVE",
"301 535 CURVE SMOOTH",
"224 535 OFFCURVE",
"147 511 OFFCURVE",
"72 470 CURVE",
"101 392 LINE",
"160 427 OFFCURVE",
"220 447 OFFCURVE",
"277 447 CURVE SMOOTH",
"361 447 OFFCURVE",
"405 406 OFFCURVE",
"405 337 CURVE SMOOTH",
"405 304 LINE",
"243 304 LINE SMOOTH",
"116 303 OFFCURVE",
"41 250 OFFCURVE",
"41 155 CURVE SMOOTH",
"41 61 OFFCURVE",
"113 -5 OFFCURVE",
"227 -5 CURVE SMOOTH"
);
},
{
closed = 1;
nodes = (
"190 72 OFFCURVE",
"149 109 OFFCURVE",
"149 164 CURVE SMOOTH",
"149 216 OFFCURVE",
"191 245 OFFCURVE",
"265 245 CURVE SMOOTH",
"405 245 LINE",
"406 169 LINE",
"372 98 OFFCURVE",
"318 72 OFFCURVE",
"253 72 CURVE SMOOTH"
);
},
{
closed = 1;
nodes = (
"532 391 OFFCURVE",
"592 455 OFFCURVE",
"678 455 CURVE SMOOTH",
"765 455 OFFCURVE",
"823 391 OFFCURVE",
"826 301 CURVE",
"521 301 LINE"
);
}
);
};
layerId = "1C84A7F3-C40A-4DC1-B8B4-102D183C348F";
paths = (
{
closed = 1;
nodes = (
"521 242 LINE",
"941 242 LINE",
"947 418 OFFCURVE",
"841 535 OFFCURVE",
"677 535 CURVE SMOOTH",
"600 535 OFFCURVE",
"534 507 OFFCURVE",
"488 455 CURVE",
"452 507 OFFCURVE",
"387 535 OFFCURVE",
"301 535 CURVE SMOOTH",
"228 535 OFFCURVE",
"151 513 OFFCURVE",
"72 470 CURVE",
"101 392 LINE",
"162 428 OFFCURVE",
"222 447 OFFCURVE",
"277 447 CURVE SMOOTH",
"359 447 OFFCURVE",
"405 408 OFFCURVE",
"405 337 CURVE SMOOTH",
"405 304 LINE",
"243 304 LINE SMOOTH",
"114 303 OFFCURVE",
"41 249 OFFCURVE",
"41 155 CURVE SMOOTH",
"41 59 OFFCURVE",
"115 -5 OFFCURVE",
"227 -5 CURVE SMOOTH",
"334 -5 OFFCURVE",
"412 39 OFFCURVE",
"454 124 CURVE",
"496 42 OFFCURVE",
"577 -4 OFFCURVE",
"680 -4 CURVE SMOOTH",
"769 -4 OFFCURVE",
"846 27 OFFCURVE",
"901 86 CURVE",
"839 147 LINE",
"800 106 OFFCURVE",
"747 84 OFFCURVE",
"689 84 CURVE SMOOTH",
"600 84 OFFCURVE",
"521 151 OFFCURVE",
"521 227 CURVE SMOOTH"
);
},
{
closed = 1;
nodes = (
"405 245 LINE",
"406 169 LINE",
"375 104 OFFCURVE",
"324 72 OFFCURVE",
"253 72 CURVE SMOOTH",
"190 72 OFFCURVE",
"149 109 OFFCURVE",
"149 164 CURVE SMOOTH",
"149 216 OFFCURVE",
"191 245 OFFCURVE",
"265 245 CURVE SMOOTH"
);
},
{
closed = 1;
nodes = (
"521 301 LINE",
"532 394 OFFCURVE",
"595 455 OFFCURVE",
"678 455 CURVE SMOOTH",
"763 455 OFFCURVE",
"823 393 OFFCURVE",
"826 301 CURVE"
);
}
);
width = 975;
},
{
anchors = (
{
name = top;
position = "{481, 547}";
}
);
associatedMasterId = "5DA6E103-6A94-47F2-987D-4952DB8EA68E";
layerId = "D5581161-1054-4A72-98C1-0512677BA3E4";
name = "Bold Dec 28 15, 16:31";
paths = (
{
closed = 1;
nodes = (
"547 327 LINE",
"547 223 LINE",
"942 223 LINE",
"954 425 OFFCURVE",
"842 555 OFFCURVE",
"650 555 CURVE SMOOTH",
"485 555 OFFCURVE",
"388 444 OFFCURVE",
"388 271 CURVE SMOOTH",
"388 102 OFFCURVE",
"480 -8 OFFCURVE",
"656 -8 CURVE SMOOTH",
"763 -8 OFFCURVE",
"847 28 OFFCURVE",
"905 92 CURVE",
"788 207 LINE",
"754 175 OFFCURVE",
"715 158 OFFCURVE",
"676 158 CURVE SMOOTH",
"615 158 OFFCURVE",
"576 202 OFFCURVE",
"576 284 CURVE SMOOTH",
"576 352 OFFCURVE",
"602 405 OFFCURVE",
"652 405 CURVE SMOOTH",
"692 405 OFFCURVE",
"720 372 OFFCURVE",
"717 327 CURVE"
);
},
{
closed = 1;
nodes = (
"374 225 LINE",
"374 329 LINE",
"228 329 LINE SMOOTH",
"89 327 OFFCURVE",
"15 270 OFFCURVE",
"15 162 CURVE SMOOTH",
"15 58 OFFCURVE",
"91 -11 OFFCURVE",
"220 -11 CURVE SMOOTH",
"339 -11 OFFCURVE",
"418 41 OFFCURVE",
"454 127 CURVE",
"355 175 LINE",
"336 148 OFFCURVE",
"306 133 OFFCURVE",
"277 133 CURVE SMOOTH",
"245 133 OFFCURVE",
"226 151 OFFCURVE",
"226 181 CURVE SMOOTH",
"226 210 OFFCURVE",
"244 225 OFFCURVE",
"275 225 CURVE SMOOTH"
);
},
{
closed = 1;
nodes = (
"355 114 LINE",
"576 114 LINE",
"576 354 LINE SMOOTH",
"576 483 OFFCURVE",
"481 557 OFFCURVE",
"322 557 CURVE SMOOTH",
"241 557 OFFCURVE",
"145 538 OFFCURVE",
"51 504 CURVE",
"101 354 LINE",
"163 377 OFFCURVE",
"227 389 OFFCURVE",
"269 389 CURVE SMOOTH",
"325 389 OFFCURVE",
"355 366 OFFCURVE",
"355 327 CURVE"
);
}
);
width = 958;
},
{
anchors = (
{
name = top;
position = "{494, 517}";
}
);
associatedMasterId = UUID0;
layerId = "7C7E88ED-44EE-476D-B2AE-5E89E54DD887";
name = "Light Dec 28 15, 16:31";
paths = (
{
closed = 1;
nodes = (
"462 279 LINE",
"462 259 LINE",
"940 259 LINE",
"940 409 OFFCURVE",
"843 517 OFFCURVE",
"700 517 CURVE SMOOTH",
"557 517 OFFCURVE",
"450 409 OFFCURVE",
"450 259 CURVE SMOOTH",
"450 108 OFFCURVE",
"557 0 OFFCURVE",
"700 0 CURVE SMOOTH",
"780 0 OFFCURVE",
"849 30 OFFCURVE",
"897 81 CURVE",
"883 95 LINE",
"839 47 OFFCURVE",
"775 20 OFFCURVE",
"700 20 CURVE SMOOTH",
"567 20 OFFCURVE",
"470 118 OFFCURVE",
"470 259 CURVE SMOOTH",
"470 399 OFFCURVE",
"567 497 OFFCURVE",
"700 497 CURVE SMOOTH",
"827 497 OFFCURVE",
"911 408 OFFCURVE",
"920 279 CURVE"
);
},
{
closed = 1;
nodes = (
"460 262 LINE",
"460 282 LINE",
"256 282 LINE",
"138 282 OFFCURVE",
"63 233 OFFCURVE",
"63 149 CURVE",
"63 63 OFFCURVE",
"132 0 OFFCURVE",
"232 0 CURVE",
"341 0 OFFCURVE",
"427 48 OFFCURVE",
"471 161 CURVE",
"465 199 LINE",
"420 65 OFFCURVE",
"340 20 OFFCURVE",
"232 20 CURVE",
"142 20 OFFCURVE",
"83 73 OFFCURVE",
"83 149 CURVE",
"83 221 OFFCURVE",
"146 262 OFFCURVE",
"256 262 CURVE"
);
},
{
closed = 1;
nodes = (
"450 259 LINE",
"470 259 LINE",
"468 345 LINE",
"467 450 OFFCURVE",
"402 517 OFFCURVE",
"283 517 CURVE",
"209 517 OFFCURVE",
"148 487 OFFCURVE",
"89 441 CURVE",
"101 425 LINE",
"158 469 OFFCURVE",
"213 497 OFFCURVE",
"283 497 CURVE",
"392 497 OFFCURVE",
"447 440 OFFCURVE",
"448 345 CURVE"
);
}
);
width = 988;
},
{
anchors = (
{
name = top;
position = "{488, 531}";
}
);
associatedMasterId = "1C84A7F3-C40A-4DC1-B8B4-102D183C348F";
layerId = "25B3BCFD-08DD-49E9-8DD1-89DB015187C0";
name = "Regular Dec 28 15, 16:31";
paths = (
{
closed = 1;
nodes = (
"501 301 LINE",
"501 242 LINE",
"941 242 LINE",
"947 416 OFFCURVE",
"843 535 OFFCURVE",
"677 535 CURVE SMOOTH",
"524 535 OFFCURVE",
"422 425 OFFCURVE",
"422 265 CURVE SMOOTH",
"422 105 OFFCURVE",
"522 -4 OFFCURVE",
"680 -4 CURVE SMOOTH",
"772 -4 OFFCURVE",
"848 29 OFFCURVE",
"901 86 CURVE",
"839 147 LINE",
"800 106 OFFCURVE",
"747 84 OFFCURVE",
"689 84 CURVE SMOOTH",
"589 84 OFFCURVE",
"519 157 OFFCURVE",
"519 271 CURVE SMOOTH",
"519 377 OFFCURVE",
"583 455 OFFCURVE",
"678 455 CURVE SMOOTH",
"765 455 OFFCURVE",
"823 391 OFFCURVE",
"826 301 CURVE"
);
},
{
closed = 1;
nodes = (
"420 245 LINE",
"420 304 LINE",
"243 304 LINE",
"116 303 OFFCURVE",
"41 250 OFFCURVE",
"41 155 CURVE",
"41 61 OFFCURVE",
"113 -5 OFFCURVE",
"227 -5 CURVE",
"340 -5 OFFCURVE",
"423 45 OFFCURVE",
"463 145 CURVE",
"414 188 LINE",
"381 103 OFFCURVE",
"324 72 OFFCURVE",
"253 72 CURVE",
"190 72 OFFCURVE",
"149 109 OFFCURVE",
"149 164 CURVE",
"149 216 OFFCURVE",
"191 245 OFFCURVE",
"265 245 CURVE"
);
},
{
closed = 1;
nodes = (
"406 132 LINE",
"519 132 LINE",
"518 349 LINE",
"517 465 OFFCURVE",
"439 535 OFFCURVE",
"301 535 CURVE",
"224 535 OFFCURVE",
"147 511 OFFCURVE",
"72 470 CURVE",
"101 392 LINE",
"160 427 OFFCURVE",
"220 447 OFFCURVE",
"277 447 CURVE",
"361 447 OFFCURVE",
"405 406 OFFCURVE",
"405 337 CURVE"
);
}
);
width = 974;
},
{
anchors = (
{
name = top;
position = "{481, 547}";
}
);
associatedMasterId = "5DA6E103-6A94-47F2-987D-4952DB8EA68E";
layerId = "B101E7D7-4702-4121-973B-F9A3B0E1C3AA";
name = "Bold Dec 28 15, 16:31";
paths = (
{
closed = 1;
nodes = (
"547 327 LINE",
"547 223 LINE",
"942 223 LINE",
"954 425 OFFCURVE",
"842 555 OFFCURVE",
"650 555 CURVE SMOOTH",
"485 555 OFFCURVE",
"388 444 OFFCURVE",
"388 271 CURVE SMOOTH",
"388 102 OFFCURVE",
"480 -8 OFFCURVE",
"656 -8 CURVE SMOOTH",
"763 -8 OFFCURVE",
"847 28 OFFCURVE",
"905 92 CURVE",
"788 207 LINE",
"754 175 OFFCURVE",
"715 158 OFFCURVE",
"676 158 CURVE SMOOTH",
"615 158 OFFCURVE",
"576 202 OFFCURVE",
"576 284 CURVE SMOOTH",
"576 352 OFFCURVE",
"602 405 OFFCURVE",
"652 405 CURVE SMOOTH",
"692 405 OFFCURVE",
"720 372 OFFCURVE",
"717 327 CURVE"
);
},
{
closed = 1;
nodes = (
"374 225 LINE",
"374 329 LINE",
"228 329 LINE SMOOTH",
"89 327 OFFCURVE",
"15 270 OFFCURVE",
"15 162 CURVE SMOOTH",
"15 58 OFFCURVE",
"91 -11 OFFCURVE",
"220 -11 CURVE SMOOTH",
"339 -11 OFFCURVE",
"418 41 OFFCURVE",
"454 127 CURVE",
"355 175 LINE",
"336 148 OFFCURVE",
"306 133 OFFCURVE",
"277 133 CURVE SMOOTH",
"245 133 OFFCURVE",
"226 151 OFFCURVE",
"226 181 CURVE SMOOTH",
"226 210 OFFCURVE",
"244 225 OFFCURVE",
"275 225 CURVE SMOOTH"
);
},
{
closed = 1;
nodes = (
"355 114 LINE",
"576 114 LINE",
"576 354 LINE SMOOTH",
"576 483 OFFCURVE",
"481 557 OFFCURVE",
"322 557 CURVE SMOOTH",
"241 557 OFFCURVE",
"145 538 OFFCURVE",
"51 504 CURVE",
"101 354 LINE",
"163 377 OFFCURVE",
"227 389 OFFCURVE",
"269 389 CURVE SMOOTH",
"325 389 OFFCURVE",
"355 366 OFFCURVE",
"355 327 CURVE"
);
}
);
width = 958;
},
{
anchors = (
{
name = top;
position = "{494, 517}";
}
);
associatedMasterId = UUID0;
layerId = "356C851E-97E8-477F-8BB1-BAEAF2ADFEC0";
name = "Light Dec 28 15, 16:32";
paths = (
{
closed = 1;
nodes = (
"462 279 LINE",
"462 259 LINE",
"940 259 LINE",
"940 409 OFFCURVE",
"843 517 OFFCURVE",
"700 517 CURVE SMOOTH",
"557 517 OFFCURVE",
"450 409 OFFCURVE",
"450 259 CURVE SMOOTH",
"450 108 OFFCURVE",
"557 0 OFFCURVE",
"700 0 CURVE SMOOTH",
"780 0 OFFCURVE",
"849 30 OFFCURVE",
"897 81 CURVE",
"883 95 LINE",
"839 47 OFFCURVE",
"775 20 OFFCURVE",
"700 20 CURVE SMOOTH",
"567 20 OFFCURVE",
"470 118 OFFCURVE",
"470 259 CURVE SMOOTH",
"470 399 OFFCURVE",
"567 497 OFFCURVE",
"700 497 CURVE SMOOTH",
"827 497 OFFCURVE",
"911 408 OFFCURVE",
"920 279 CURVE"
);
},
{
closed = 1;
nodes = (
"460 262 LINE",
"460 282 LINE",
"256 282 LINE",
"138 282 OFFCURVE",
"63 233 OFFCURVE",
"63 149 CURVE",
"63 63 OFFCURVE",
"132 0 OFFCURVE",
"232 0 CURVE",
"341 0 OFFCURVE",
"427 48 OFFCURVE",
"471 161 CURVE",
"465 199 LINE",
"420 65 OFFCURVE",
"340 20 OFFCURVE",
"232 20 CURVE",
"142 20 OFFCURVE",
"83 73 OFFCURVE",
"83 149 CURVE",
"83 221 OFFCURVE",
"146 262 OFFCURVE",
"256 262 CURVE"
);
},
{
closed = 1;
nodes = (
"450 259 LINE",
"470 259 LINE",
"468 345 LINE",
"467 450 OFFCURVE",
"402 517 OFFCURVE",
"283 517 CURVE",
"209 517 OFFCURVE",
"148 487 OFFCURVE",
"89 441 CURVE",
"101 425 LINE",
"158 469 OFFCURVE",
"213 497 OFFCURVE",
"283 497 CURVE",
"392 497 OFFCURVE",
"447 440 OFFCURVE",
"448 345 CURVE"
);
}
);
width = 988;
}
);
leftKerningGroup = a;
leftMetricsKey = a;
rightKerningGroup = e;
rightMetricsKey = e;
unicode = 00E6;
},
{
glyphname = ae.ss01;
lastChange = "2016-08-01 01:22:09 +0000";
layers = (
{
anchors = (
{
name = top;
position = "{487, 517}";
}
);
background = {
paths = (
{
closed = 1;
nodes = (
"596 20 OFFCURVE",
"512 83 OFFCURVE",
"483 180 CURVE",
"926 360 LINE",
"897 457 OFFCURVE",
"809 517 OFFCURVE",
"703 517 CURVE SMOOTH",
"593 517 OFFCURVE",
"505 454 OFFCURVE",
"469 359 CURVE",
"463 456 OFFCURVE",
"399 517 OFFCURVE",
"284 517 CURVE SMOOTH",
"210 517 OFFCURVE",
"148 487 OFFCURVE",
"89 441 CURVE",
"101 425 LINE",
"158 469 OFFCURVE",
"214 497 OFFCURVE",
"284 497 CURVE SMOOTH",
"394 497 OFFCURVE",
"449 440 OFFCURVE",
"450 345 CURVE SMOOTH",
"450 282 LINE",
"257 282 LINE SMOOTH",
"138 282 OFFCURVE",
"63 233 OFFCURVE",
"63 149 CURVE SMOOTH",
"63 63 OFFCURVE",
"132 0 OFFCURVE",
"233 0 CURVE SMOOTH",
"340 0 OFFCURVE",
"426 46 OFFCURVE",
"471 155 CURVE",
"507 61 OFFCURVE",
"594 0 OFFCURVE",
"704 0 CURVE SMOOTH",
"785 0 OFFCURVE",
"854 33 OFFCURVE",
"909 104 CURVE",
"892 115 LINE",
"843 50 OFFCURVE",
"780 20 OFFCURVE",
"705 20 CURVE SMOOTH"
);
},
{
closed = 1;
nodes = (
"795 497 OFFCURVE",
"871 451 OFFCURVE",
"900 371 CURVE",
"478 199 LINE",
"445 354 OFFCURVE",
"540 497 OFFCURVE",
"702 497 CURVE SMOOTH"
);
},
{
closed = 1;
nodes = (
"142 20 OFFCURVE",
"83 73 OFFCURVE",
"83 149 CURVE SMOOTH",
"83 221 OFFCURVE",
"146 262 OFFCURVE",
"257 262 CURVE SMOOTH",
"450 262 LINE",
"452 259 LINE",
"462 184 LINE",
"416 62 OFFCURVE",
"337 20 OFFCURVE",
"233 20 CURVE SMOOTH"
);
}
);
};
layerId = UUID0;
paths = (
{
closed = 1;
nodes = (
"465 193 LINE",
"464 171 LINE",
"922 358 LINE",
"887 458 OFFCURVE",
"805 517 OFFCURVE",
"700 517 CURVE SMOOTH",
"593 517 OFFCURVE",
"504 457 OFFCURVE",
"467 359 CURVE",
"461 459 OFFCURVE",
"393 517 OFFCURVE",
"283 517 CURVE SMOOTH",
"217 517 OFFCURVE",
"156 493 OFFCURVE",
"89 441 CURVE",
"101 425 LINE",
"166 475 OFFCURVE",
"221 497 OFFCURVE",
"283 497 CURVE SMOOTH",
"389 497 OFFCURVE",
"447 443 OFFCURVE",
"449 345 CURVE SMOOTH",
"449 282 LINE",
"256 282 LINE SMOOTH",
"136 282 OFFCURVE",
"63 232 OFFCURVE",
"63 149 CURVE SMOOTH",
"63 62 OFFCURVE",
"133 0 OFFCURVE",
"232 0 CURVE SMOOTH",
"341 0 OFFCURVE",
"418 53 OFFCURVE",
"462 160 CURVE",
"498 64 OFFCURVE",
"594 0 OFFCURVE",
"700 0 CURVE SMOOTH",
"778 0 OFFCURVE",
"848 29 OFFCURVE",
"897 81 CURVE",
"883 95 LINE",
"838 46 OFFCURVE",
"774 20 OFFCURVE",
"700 20 CURVE SMOOTH",
"576 20 OFFCURVE",
"475 113 OFFCURVE",
"473 242 CURVE",
"471 394 OFFCURVE",
"562 497 OFFCURVE",
"700 497 CURVE SMOOTH",
"791 497 OFFCURVE",
"861 451 OFFCURVE",
"896 369 CURVE"
);
},
{
closed = 1;
nodes = (
"449 262 LINE",
"449 184 LINE SMOOTH",
"406 68 OFFCURVE",
"342 20 OFFCURVE",
"232 20 CURVE SMOOTH",
"143 20 OFFCURVE",
"83 72 OFFCURVE",
"83 149 CURVE SMOOTH",
"83 221 OFFCURVE",
"146 262 OFFCURVE",
"256 262 CURVE SMOOTH"
);
}
);
width = 970;
},
{
anchors = (
{
name = top;
position = "{476, 547}";
}
);
background = {
paths = (
{
closed = 1;
nodes = (
"579 204 LINE",
"936 273 LINE",
"936 444 OFFCURVE",
"834 555 OFFCURVE",
"661 555 CURVE SMOOTH",
"596 555 OFFCURVE",
"542 540 OFFCURVE",
"500 512 CURVE",
"457 541 OFFCURVE",
"397 557 OFFCURVE",
"323 557 CURVE SMOOTH",
"242 557 OFFCURVE",
"145 538 OFFCURVE",
"51 504 CURVE",
"101 354 LINE",
"164 377 OFFCURVE",
"228 389 OFFCURVE",
"270 389 CURVE SMOOTH",
"326 389 OFFCURVE",
"356 367 OFFCURVE",
"357 329 CURVE",
"229 329 LINE SMOOTH",
"89 327 OFFCURVE",
"15 269 OFFCURVE",
"15 164 CURVE SMOOTH",
"15 58 OFFCURVE",
"89 -11 OFFCURVE",
"223 -11 CURVE SMOOTH",
"325 -11 OFFCURVE",
"399 29 OFFCURVE",
"440 96 CURVE",
"486 30 OFFCURVE",
"562 -8 OFFCURVE",
"662 -8 CURVE SMOOTH",
"758 -8 OFFCURVE",
"852 27 OFFCURVE",
"919 104 CURVE",
"794 216 LINE",
"756 179 OFFCURVE",
"714 158 OFFCURVE",
"675 158 CURVE SMOOTH",
"633 158 OFFCURVE",
"602 181 OFFCURVE",
"588 224 CURVE",
"578 293 LINE",
"581 361 OFFCURVE",
"608 405 OFFCURVE",
"656 405 CURVE SMOOTH",
"688 405 OFFCURVE",
"717 386 OFFCURVE",
"722 339 CURVE",
"564 311 LINE"
);
},
{
closed = 1;
nodes = (
"245 133 OFFCURVE",
"226 151 OFFCURVE",
"226 181 CURVE SMOOTH",
"226 210 OFFCURVE",
"244 225 OFFCURVE",
"276 225 CURVE SMOOTH",
"357 225 LINE",
"357 175 LINE",
"338 148 OFFCURVE",
"308 133 OFFCURVE",
"278 133 CURVE SMOOTH"
);
}
);
};
layerId = "5DA6E103-6A94-47F2-987D-4952DB8EA68E";
paths = (
{
closed = 1;
nodes = (
"564 311 LINE",
"579 204 LINE",
"936 273 LINE",
"936 447 OFFCURVE",
"831 555 OFFCURVE",
"661 555 CURVE SMOOTH",
"598 555 OFFCURVE",
"544 540 OFFCURVE",
"500 512 CURVE",
"456 542 OFFCURVE",
"397 557 OFFCURVE",
"323 557 CURVE SMOOTH",
"242 557 OFFCURVE",
"145 538 OFFCURVE",
"51 504 CURVE",
"101 354 LINE",
"159 375 OFFCURVE",
"224 389 OFFCURVE",
"270 389 CURVE SMOOTH",
"319 389 OFFCURVE",
"352 370 OFFCURVE",
"356 338 CURVE SMOOTH",
"357 329 LINE",
"229 329 LINE SMOOTH",
"90 327 OFFCURVE",
"15 269 OFFCURVE",
"15 164 CURVE SMOOTH",
"15 55 OFFCURVE",
"93 -11 OFFCURVE",
"223 -11 CURVE SMOOTH",
"321 -11 OFFCURVE",
"397 26 OFFCURVE",
"440 96 CURVE",
"487 28 OFFCURVE",
"564 -8 OFFCURVE",
"662 -8 CURVE SMOOTH",
"765 -8 OFFCURVE",
"856 32 OFFCURVE",
"919 104 CURVE",
"794 216 LINE",
"755 178 OFFCURVE",
"713 158 OFFCURVE",
"675 158 CURVE SMOOTH",
"609 158 OFFCURVE",
"578 225 OFFCURVE",
"578 289 CURVE SMOOTH",
"578 348 OFFCURVE",
"604 405 OFFCURVE",
"656 405 CURVE SMOOTH",
"693 405 OFFCURVE",
"718 380 OFFCURVE",
"722 339 CURVE"
);
},
{
closed = 1;
nodes = (
"357 225 LINE",
"357 175 LINE",
"339 149 OFFCURVE",
"309 133 OFFCURVE",
"278 133 CURVE SMOOTH",
"245 133 OFFCURVE",
"226 151 OFFCURVE",
"226 181 CURVE SMOOTH",
"226 210 OFFCURVE",
"244 225 OFFCURVE",
"276 225 CURVE SMOOTH"
);
}
);
width = 951;
},
{
anchors = (
{
name = top;
position = "{477, 531}";
}
);
background = {
paths = (
{
closed = 1;
nodes = (
"531 181 LINE",
"934 306 LINE",
"925 449 OFFCURVE",
"828 537 OFFCURVE",
"683 535 CURVE SMOOTH",
"600 534 OFFCURVE",
"532 505 OFFCURVE",
"486 456 CURVE",
"451 506 OFFCURVE",
"388 535 OFFCURVE",
"301 535 CURVE SMOOTH",
"199 535 OFFCURVE",
"146 511 OFFCURVE",
"72 466 CURVE",
"119 392 LINE",
"172 428 OFFCURVE",
"225 447 OFFCURVE",
"275 447 CURVE SMOOTH",
"360 447 OFFCURVE",
"402 406 OFFCURVE",
"403 336 CURVE SMOOTH",
"403 319 LINE",
"241 319 LINE SMOOTH",
"114 318 OFFCURVE",
"41 256 OFFCURVE",
"41 160 CURVE SMOOTH",
"41 67 OFFCURVE",
"113 -5 OFFCURVE",
"228 -5 CURVE SMOOTH",
"332 -5 OFFCURVE",
"411 35 OFFCURVE",
"456 116 CURVE",
"503 41 OFFCURVE",
"587 -4 OFFCURVE",
"692 -4 CURVE SMOOTH",
"785 -4 OFFCURVE",
"863 31 OFFCURVE",
"923 104 CURVE",
"856 161 LINE",
"812 110 OFFCURVE",
"759 83 OFFCURVE",
"700 83 CURVE SMOOTH",
"622 83 OFFCURVE",
"563 129 OFFCURVE",
"540 202 CURVE",
"531 247 LINE",
"523 374 OFFCURVE",
"582 446 OFFCURVE",
"689 446 CURVE SMOOTH",
"753 446 OFFCURVE",
"798 420 OFFCURVE",
"823 359 CURVE",
"515 263 LINE"
);
},
{
closed = 1;
nodes = (
"188 83 OFFCURVE",
"149 115 OFFCURVE",
"149 164 CURVE SMOOTH",
"149 216 OFFCURVE",
"184 237 OFFCURVE",
"259 237 CURVE SMOOTH",
"404 237 LINE",
"404 185 LINE",
"394 126 OFFCURVE",
"331 83 OFFCURVE",
"252 83 CURVE SMOOTH"
);
}
);
};
layerId = "1C84A7F3-C40A-4DC1-B8B4-102D183C348F";
paths = (
{
closed = 1;
nodes = (
"515 263 LINE",
"531 181 LINE",
"934 306 LINE",
"925 447 OFFCURVE",
"830 535 OFFCURVE",
"688 535 CURVE SMOOTH",
"604 535 OFFCURVE",
"533 507 OFFCURVE",
"486 456 CURVE",
"450 507 OFFCURVE",
"385 535 OFFCURVE",
"301 535 CURVE SMOOTH",
"212 535 OFFCURVE",
"159 519 OFFCURVE",
"72 466 CURVE",
"119 392 LINE",
"172 428 OFFCURVE",
"225 447 OFFCURVE",
"275 447 CURVE SMOOTH",
"357 447 OFFCURVE",
"402 408 OFFCURVE",
"403 336 CURVE SMOOTH",
"403 319 LINE",
"241 319 LINE SMOOTH",
"117 318 OFFCURVE",
"41 258 OFFCURVE",
"41 160 CURVE SMOOTH",
"41 63 OFFCURVE",
"118 -5 OFFCURVE",
"228 -5 CURVE SMOOTH",
"334 -5 OFFCURVE",
"412 36 OFFCURVE",
"456 116 CURVE",
"504 39 OFFCURVE",
"589 -4 OFFCURVE",
"692 -4 CURVE SMOOTH",
"787 -4 OFFCURVE",
"864 32 OFFCURVE",
"923 104 CURVE",
"856 161 LINE",
"812 110 OFFCURVE",
"759 83 OFFCURVE",
"700 83 CURVE SMOOTH",
"600 83 OFFCURVE",
"530 160 OFFCURVE",
"530 269 CURVE SMOOTH",
"530 382 OFFCURVE",
"588 446 OFFCURVE",
"689 446 CURVE SMOOTH",
"755 446 OFFCURVE",
"799 418 OFFCURVE",
"823 359 CURVE"
);
},
{
closed = 1;
nodes = (
"404 237 LINE",
"404 185 LINE",
"394 126 OFFCURVE",
"330 83 OFFCURVE",
"252 83 CURVE SMOOTH",
"189 83 OFFCURVE",
"149 114 OFFCURVE",
"149 164 CURVE SMOOTH",
"149 215 OFFCURVE",
"182 237 OFFCURVE",
"259 237 CURVE SMOOTH"
);
}
);
width = 967;
},
{
anchors = (
{
name = top;
position = "{487, 517}";
}
);
associatedMasterId = UUID0;
background = {
paths = (
{
closed = 0;
nodes = (
"558 124 LINE"
);
},
{
closed = 1;
nodes = (
"257 282 LINE",
"138 282 OFFCURVE",
"63 233 OFFCURVE",
"63 149 CURVE",
"63 63 OFFCURVE",
"132 0 OFFCURVE",
"233 0 CURVE",
"342 0 OFFCURVE",
"429 48 OFFCURVE",
"473 161 CURVE",
"467 199 LINE",
"422 65 OFFCURVE",
"341 20 OFFCURVE",
"233 20 CURVE",
"142 20 OFFCURVE",
"83 73 OFFCURVE",
"83 149 CURVE",
"83 221 OFFCURVE",
"146 262 OFFCURVE",
"257 262 CURVE",
"462 262 LINE",
"462 282 LINE"
);
},
{
closed = 1;
nodes = (
"101 425 LINE",
"158 469 OFFCURVE",
"214 497 OFFCURVE",
"284 497 CURVE",
"394 497 OFFCURVE",
"449 440 OFFCURVE",
"450 345 CURVE",
"450 259 LINE",
"470 259 LINE",
"470 345 LINE",
"469 450 OFFCURVE",
"404 517 OFFCURVE",
"284 517 CURVE",
"210 517 OFFCURVE",
"148 487 OFFCURVE",
"89 441 CURVE"
);
},
{
closed = 1;
nodes = (
"843 50 OFFCURVE",
"780 20 OFFCURVE",
"705 20 CURVE SMOOTH",
"568 20 OFFCURVE",
"472 119 OFFCURVE",
"472 259 CURVE SMOOTH",
"472 398 OFFCURVE",
"568 497 OFFCURVE",
"702 497 CURVE SMOOTH",
"795 497 OFFCURVE",
"871 451 OFFCURVE",
"900 371 CURVE",
"464 193 LINE",
"471 175 LINE",
"926 360 LINE",
"897 457 OFFCURVE",
"809 517 OFFCURVE",
"703 517 CURVE SMOOTH",
"558 517 OFFCURVE",
"452 408 OFFCURVE",
"452 259 CURVE SMOOTH",
"452 109 OFFCURVE",
"558 0 OFFCURVE",
"704 0 CURVE SMOOTH",
"785 0 OFFCURVE",
"854 33 OFFCURVE",
"909 104 CURVE",
"892 115 LINE"
);
}
);
};
layerId = "0836C52A-6338-4105-BF4B-3EB14646D580";
name = "Light Dec 28 15, 16:36";
paths = (
{
closed = 1;
nodes = (
"464 193 LINE",
"471 175 LINE",
"926 360 LINE",
"897 457 OFFCURVE",
"809 517 OFFCURVE",
"703 517 CURVE SMOOTH",
"558 517 OFFCURVE",
"452 408 OFFCURVE",
"452 259 CURVE SMOOTH",
"452 109 OFFCURVE",
"558 0 OFFCURVE",
"704 0 CURVE SMOOTH",
"785 0 OFFCURVE",
"854 33 OFFCURVE",
"909 104 CURVE",
"892 115 LINE",
"843 50 OFFCURVE",
"780 20 OFFCURVE",
"705 20 CURVE SMOOTH",
"568 20 OFFCURVE",
"472 119 OFFCURVE",
"472 259 CURVE SMOOTH",
"472 398 OFFCURVE",
"568 497 OFFCURVE",
"702 497 CURVE SMOOTH",
"795 497 OFFCURVE",
"871 451 OFFCURVE",
"900 371 CURVE"
);
},
{
closed = 1;
nodes = (
"462 262 LINE",
"462 282 LINE",
"257 282 LINE",
"138 282 OFFCURVE",
"63 233 OFFCURVE",
"63 149 CURVE",
"63 63 OFFCURVE",
"132 0 OFFCURVE",
"233 0 CURVE",
"342 0 OFFCURVE",
"429 48 OFFCURVE",
"473 161 CURVE",
"467 199 LINE",
"422 65 OFFCURVE",
"341 20 OFFCURVE",
"233 20 CURVE",
"142 20 OFFCURVE",
"83 73 OFFCURVE",
"83 149 CURVE",
"83 221 OFFCURVE",
"146 262 OFFCURVE",
"257 262 CURVE"
);
},
{
closed = 1;
nodes = (
"450 259 LINE",
"470 259 LINE",
"470 345 LINE",
"469 450 OFFCURVE",
"404 517 OFFCURVE",
"284 517 CURVE",
"210 517 OFFCURVE",
"148 487 OFFCURVE",
"89 441 CURVE",
"101 425 LINE",
"158 469 OFFCURVE",
"214 497 OFFCURVE",
"284 497 CURVE",
"394 497 OFFCURVE",
"449 440 OFFCURVE",
"450 345 CURVE"
);
}
);
width = 974;
},
{
anchors = (
{
name = top;
position = "{477, 531}";
}
);
associatedMasterId = "1C84A7F3-C40A-4DC1-B8B4-102D183C348F";
layerId = "4D34E560-C733-4D06-A4EF-DA7BB17BEC1A";
name = "Regular Dec 28 15, 16:36";
paths = (
{
closed = 1;
nodes = (
"509 261 LINE",
"513 176 LINE",
"934 306 LINE",
"925 449 OFFCURVE",
"828 537 OFFCURVE",
"683 535 CURVE SMOOTH",
"519 533 OFFCURVE",
"416 421 OFFCURVE",
"416 266 CURVE SMOOTH",
"416 105 OFFCURVE",
"528 -4 OFFCURVE",
"692 -4 CURVE SMOOTH",
"785 -4 OFFCURVE",
"863 31 OFFCURVE",
"923 104 CURVE",
"856 161 LINE",
"812 110 OFFCURVE",
"759 83 OFFCURVE",
"700 83 CURVE SMOOTH",
"600 83 OFFCURVE",
"530 159 OFFCURVE",
"530 271 CURVE SMOOTH",
"530 385 OFFCURVE",
"592 446 OFFCURVE",
"689 446 CURVE SMOOTH",
"753 446 OFFCURVE",
"798 420 OFFCURVE",
"823 359 CURVE"
);
},
{
closed = 1;
nodes = (
"418 237 LINE",
"418 319 LINE",
"241 319 LINE",
"114 318 OFFCURVE",
"41 256 OFFCURVE",
"41 160 CURVE",
"41 67 OFFCURVE",
"113 -5 OFFCURVE",
"228 -5 CURVE",
"344 -5 OFFCURVE",
"429 45 OFFCURVE",
"470 145 CURVE",
"405 198 LINE",
"403 132 OFFCURVE",
"337 83 OFFCURVE",
"252 83 CURVE",
"188 83 OFFCURVE",
"149 115 OFFCURVE",
"149 164 CURVE",
"149 216 OFFCURVE",
"184 237 OFFCURVE",
"259 237 CURVE"
);
},
{
closed = 1;
nodes = (
"404 152 LINE",
"517 152 LINE",
"516 349 LINE",
"515 465 OFFCURVE",
"438 535 OFFCURVE",
"301 535 CURVE",
"199 535 OFFCURVE",
"146 511 OFFCURVE",
"72 466 CURVE",
"119 392 LINE",
"172 428 OFFCURVE",
"225 447 OFFCURVE",
"275 447 CURVE",
"360 447 OFFCURVE",
"402 406 OFFCURVE",
"403 336 CURVE"
);
}
);
width = 967;
},
{
anchors = (
{
name = top;
position = "{476, 547}";
}
);
associatedMasterId = "5DA6E103-6A94-47F2-987D-4952DB8EA68E";
layerId = "F889E819-AF16-4A8D-8621-BF412CBCCD98";
name = "Bold Dec 28 15, 16:36";
paths = (
{
closed = 1;
nodes = (
"542 307 LINE",
"542 197 LINE",
"936 273 LINE",
"936 444 OFFCURVE",
"834 555 OFFCURVE",
"661 555 CURVE SMOOTH",
"487 555 OFFCURVE",
"390 443 OFFCURVE",
"390 275 CURVE SMOOTH",
"390 102 OFFCURVE",
"492 -8 OFFCURVE",
"662 -8 CURVE SMOOTH",
"758 -8 OFFCURVE",
"852 27 OFFCURVE",
"919 104 CURVE",
"794 216 LINE",
"756 179 OFFCURVE",
"714 158 OFFCURVE",
"675 158 CURVE SMOOTH",
"616 158 OFFCURVE",
"579 204 OFFCURVE",
"579 287 CURVE SMOOTH",
"579 359 OFFCURVE",
"607 405 OFFCURVE",
"656 405 CURVE SMOOTH",
"688 405 OFFCURVE",
"717 386 OFFCURVE",
"722 339 CURVE"
);
},
{
closed = 1;
nodes = (
"376 225 LINE",
"376 329 LINE",
"229 329 LINE SMOOTH",
"89 327 OFFCURVE",
"15 269 OFFCURVE",
"15 164 CURVE SMOOTH",
"15 58 OFFCURVE",
"89 -11 OFFCURVE",
"223 -11 CURVE SMOOTH",
"340 -11 OFFCURVE",
"420 41 OFFCURVE",
"456 127 CURVE",
"357 175 LINE",
"338 148 OFFCURVE",
"308 133 OFFCURVE",
"278 133 CURVE SMOOTH",
"245 133 OFFCURVE",
"226 151 OFFCURVE",
"226 181 CURVE SMOOTH",
"226 210 OFFCURVE",
"244 225 OFFCURVE",
"276 225 CURVE SMOOTH"
);
},
{
closed = 1;
nodes = (
"357 140 LINE",
"578 87 LINE",
"578 354 LINE SMOOTH",
"578 483 OFFCURVE",
"483 557 OFFCURVE",
"323 557 CURVE SMOOTH",
"242 557 OFFCURVE",
"145 538 OFFCURVE",
"51 504 CURVE",
"101 354 LINE",
"164 377 OFFCURVE",
"228 389 OFFCURVE",
"270 389 CURVE SMOOTH",
"327 389 OFFCURVE",
"357 366 OFFCURVE",
"357 327 CURVE"
);
}
);
width = 951;
}
);
leftKerningGroup = ae.ss01;
leftMetricsKey = a;
rightKerningGroup = ae.ss01;
rightMetricsKey = e;
},
{
glyphname = b;
lastChange = "2016-08-01 01:22:09 +0000";
layers = (
{
layerId = UUID0;
paths = (
{
closed = 1;
nodes = (
"221 517 OFFCURVE",
"115 408 OFFCURVE",
"115 258 CURVE",
"115 109 OFFCURVE",
"221 0 OFFCURVE",
"366 0 CURVE SMOOTH",
"511 0 OFFCURVE",
"617 109 OFFCURVE",
"617 258 CURVE SMOOTH",
"617 408 OFFCURVE",
"511 517 OFFCURVE",
"366 517 CURVE SMOOTH"
);
},
{
closed = 1;
nodes = (
"500 497 OFFCURVE",
"597 396 OFFCURVE",
"597 258 CURVE SMOOTH",
"597 120 OFFCURVE",
"500 20 OFFCURVE",
"366 20 CURVE SMOOTH",
"232 20 OFFCURVE",
"135 120 OFFCURVE",
"135 258 CURVE SMOOTH",
"135 396 OFFCURVE",
"232 497 OFFCURVE",
"366 497 CURVE SMOOTH"
);
},
{
closed = 1;
nodes = (
"115 0 LINE",
"135 0 LINE",
"135 742 LINE",
"115 742 LINE"
);
}
);
width = 669;
},
{
layerId = "5DA6E103-6A94-47F2-987D-4952DB8EA68E";
paths = (
{
closed = 1;
nodes = (
"298 555 OFFCURVE",
"217 443 OFFCURVE",
"217 271 CURVE",
"217 102 OFFCURVE",
"301 -8 OFFCURVE",
"430 -8 CURVE SMOOTH",
"579 -8 OFFCURVE",
"675 101 OFFCURVE",
"675 270 CURVE SMOOTH",
"675 443 OFFCURVE",
"576 555 OFFCURVE",
"424 555 CURVE SMOOTH"
);
},
{
closed = 1;
nodes = (
"416 382 OFFCURVE",
"448 340 OFFCURVE",
"448 276 CURVE SMOOTH",
"448 212 OFFCURVE",
"416 170 OFFCURVE",
"366 170 CURVE SMOOTH",
"317 170 OFFCURVE",
"285 212 OFFCURVE",
"285 276 CURVE SMOOTH",
"285 340 OFFCURVE",
"317 382 OFFCURVE",
"366 382 CURVE SMOOTH"
);
},
{
closed = 1;
nodes = (
"60 0 LINE",
"285 0 LINE",
"285 742 LINE",
"60 742 LINE"
);
}
);
width = 690;
},
{
layerId = "1C84A7F3-C40A-4DC1-B8B4-102D183C348F";
paths = (
{
closed = 1;
nodes = (
"248 535 OFFCURVE",
"162 435 OFFCURVE",
"163 264 CURVE",
"162 97 OFFCURVE",
"247 -4 OFFCURVE",
"393 -4 CURVE SMOOTH",
"545 -4 OFFCURVE",
"645 105 OFFCURVE",
"645 264 CURVE SMOOTH",
"645 425 OFFCURVE",
"542 535 OFFCURVE",
"391 535 CURVE SMOOTH"
);
},
{
closed = 1;
nodes = (
"462 444 OFFCURVE",
"529 369 OFFCURVE",
"529 267 CURVE SMOOTH",
"529 163 OFFCURVE",
"462 89 OFFCURVE",
"367 89 CURVE SMOOTH",
"272 89 OFFCURVE",
"205 162 OFFCURVE",
"205 267 CURVE SMOOTH",
"205 370 OFFCURVE",
"272 444 OFFCURVE",
"367 444 CURVE SMOOTH"
);
},
{
closed = 1;
nodes = (
"90 0 LINE",
"205 0 LINE",
"205 742 LINE",
"90 742 LINE"
);
}
);
width = 679.924;
}
);
leftKerningGroup = h;
rightKerningGroup = o;
unicode = 0062;
},
{
glyphname = c;
lastChange = "2016-08-01 01:22:09 +0000";
layers = (
{
anchors = (
{
name = bottom;
position = "{289, 0}";
},
{
name = top;
position = "{279, 517}";
}
);
layerId = UUID0;
paths = (
{
closed = 1;
nodes = (
"479 448 LINE",
"434 491 OFFCURVE",
"372 517 OFFCURVE",
"303 517 CURVE SMOOTH",
"159 517 OFFCURVE",
"52 409 OFFCURVE",
"52 259 CURVE SMOOTH",
"52 108 OFFCURVE",
"159 0 OFFCURVE",
"303 0 CURVE SMOOTH",
"379 0 OFFCURVE",
"445 30 OFFCURVE",
"490 81 CURVE",
"477 95 LINE",
"435 47 OFFCURVE",
"374 20 OFFCURVE",
"303 20 CURVE SMOOTH",
"169 20 OFFCURVE",
"71 118 OFFCURVE",
"71 259 CURVE SMOOTH",
"71 399 OFFCURVE",
"169 497 OFFCURVE",
"303 497 CURVE SMOOTH",
"368 497 OFFCURVE",
"423 473 OFFCURVE",
"466 434 CURVE"
);
}
);
width = 557;
},
{
anchors = (
{
name = bottom;
position = "{290, 0}";
},
{
name = top;
position = "{298, 547}";
}
);
layerId = "5DA6E103-6A94-47F2-987D-4952DB8EA68E";
paths = (
{
closed = 1;
nodes = (
"563 397 LINE",
"518 497 OFFCURVE",
"423 555 OFFCURVE",
"304 555 CURVE SMOOTH",
"129 555 OFFCURVE",
"15 443 OFFCURVE",
"15 271 CURVE SMOOTH",
"15 102 OFFCURVE",
"128 -8 OFFCURVE",
"302 -8 CURVE SMOOTH",
"427 -8 OFFCURVE",
"523 48 OFFCURVE",
"563 145 CURVE",
"381 229 LINE",
"369 188 OFFCURVE",
"346 170 OFFCURVE",
"314 170 CURVE SMOOTH",
"270 170 OFFCURVE",
"242 210 OFFCURVE",
"242 272 CURVE SMOOTH",
"242 333 OFFCURVE",
"270 373 OFFCURVE",
"314 373 CURVE SMOOTH",
"346 373 OFFCURVE",
"370 354 OFFCURVE",
"384 321 CURVE"
);
}
);
width = 561;
},
{
anchors = (
{
name = bottom;
position = "{289.461, 0}";
},
{
name = top;
position = "{287.769, 530.846}";
}
);
layerId = "1C84A7F3-C40A-4DC1-B8B4-102D183C348F";
paths = (
{
closed = 1;
nodes = (
"522.579 452.737 LINE",
"473.789 505.211 OFFCURVE",
"398.526 535 OFFCURVE",
"303.461 534.539 CURVE SMOOTH",
"145.154 534.539 OFFCURVE",
"34.923 424.692 OFFCURVE",
"34.923 264.538 CURVE SMOOTH",
"34.923 105.231 OFFCURVE",
"144.692 -4 OFFCURVE",
"302.539 -4 CURVE SMOOTH",
"403.632 -4 OFFCURVE",
"481 30.947 OFFCURVE",
"528.842 91.421 CURVE",
"464.684 153.737 LINE",
"429.316 111.421 OFFCURVE",
"374.947 89.158 OFFCURVE",
"308.077 89.231 CURVE SMOOTH",
"215.615 89.231 OFFCURVE",
"149.923 160.462 OFFCURVE",
"149.923 265 CURVE SMOOTH",
"149.923 368.538 OFFCURVE",
"215.615 439.769 OFFCURVE",
"308.077 439.769 CURVE SMOOTH",
"371.789 440.158 OFFCURVE",
"423 417.105 OFFCURVE",
"460.316 379.053 CURVE"
);
}
);
width = 564;
}
);
leftKerningGroup = o;
rightKerningGroup = c;
unicode = 0063;
},
{
glyphname = d;
lastChange = "2016-08-01 01:22:09 +0000";
layers = (
{
anchors = (
{
name = center;
position = "{-7, 0}";
}
);
layerId = UUID0;
paths = (
{
closed = 1;
nodes = (
"159 519 OFFCURVE",
"52 409 OFFCURVE",
"52 258 CURVE SMOOTH",
"52 108 OFFCURVE",
"159 -2 OFFCURVE",
"305 -2 CURVE SMOOTH",
"451 -2 OFFCURVE",
"558 108 OFFCURVE",
"558 258 CURVE",
"558 409 OFFCURVE",
"451 519 OFFCURVE",
"305 519 CURVE SMOOTH"
);
},
{
closed = 1;
nodes = (
"440 499 OFFCURVE",
"538 397 OFFCURVE",
"538 258 CURVE SMOOTH",
"538 119 OFFCURVE",
"440 18 OFFCURVE",
"305 18 CURVE SMOOTH",
"170 18 OFFCURVE",
"72 119 OFFCURVE",
"72 258 CURVE SMOOTH",
"72 397 OFFCURVE",
"170 499 OFFCURVE",
"305 499 CURVE SMOOTH"
);
},
{
closed = 1;
nodes = (
"538 0 LINE",
"558 0 LINE",
"558 742 LINE",
"538 742 LINE"
);
}
);
width = 673;
},
{
anchors = (
{
name = center;
position = "{-17, 0}";
}
);
layerId = "5DA6E103-6A94-47F2-987D-4952DB8EA68E";
paths = (
{
closed = 1;
nodes = (
"111 555 OFFCURVE",
"15 446 OFFCURVE",
"15 277 CURVE SMOOTH",
"15 104 OFFCURVE",
"114 -8 OFFCURVE",
"266 -8 CURVE SMOOTH",
"392 -8 OFFCURVE",
"473 104 OFFCURVE",
"473 276 CURVE",
"473 445 OFFCURVE",
"389 555 OFFCURVE",
"260 555 CURVE SMOOTH"
);
},
{
closed = 1;
nodes = (
"373 377 OFFCURVE",
"405 335 OFFCURVE",
"405 271 CURVE SMOOTH",
"405 207 OFFCURVE",
"373 165 OFFCURVE",
"324 165 CURVE SMOOTH",
"274 165 OFFCURVE",
"242 207 OFFCURVE",
"242 271 CURVE SMOOTH",
"242 335 OFFCURVE",
"274 377 OFFCURVE",
"324 377 CURVE SMOOTH"
);
},
{
closed = 1;
nodes = (
"405 0 LINE",
"630 0 LINE",
"630 742 LINE",
"405 742 LINE"
);
}
);
width = 690;
},
{
anchors = (
{
name = center;
position = "{-12, 0}";
}
);
layerId = "1C84A7F3-C40A-4DC1-B8B4-102D183C348F";
paths = (
{
closed = 1;
nodes = (
"138 536 OFFCURVE",
"35 427 OFFCURVE",
"35 267 CURVE SMOOTH",
"35 106 OFFCURVE",
"137 -5 OFFCURVE",
"290 -5 CURVE SMOOTH",
"436 -5 OFFCURVE",
"520 97 OFFCURVE",
"519 266 CURVE",
"520 434 OFFCURVE",
"435 536 OFFCURVE",
"288 536 CURVE SMOOTH"
);
},
{
closed = 1;
nodes = (
"410 443 OFFCURVE",
"477 369 OFFCURVE",
"477 264 CURVE SMOOTH",
"477 160 OFFCURVE",
"410 86 OFFCURVE",
"314 86 CURVE SMOOTH",
"217 86 OFFCURVE",
"151 160 OFFCURVE",
"150 264 CURVE SMOOTH",
"151 368 OFFCURVE",
"218 443 OFFCURVE",
"314 443 CURVE SMOOTH"
);
},
{
closed = 1;
nodes = (
"477 0 LINE",
"592 0 LINE",
"592 742 LINE",
"477 742 LINE"
);
}
);
width = 682;
}
);
leftKerningGroup = o;
rightKerningGroup = l;
unicode = 0064;
},
{
glyphname = eth;
lastChange = "2016-08-01 01:22:09 +0000";
layers = (
{
layerId = "5DA6E103-6A94-47F2-987D-4952DB8EA68E";
paths = (
{
closed = 1;
nodes = (
"84 663 LINE",
"228 602 OFFCURVE",
"345 502 OFFCURVE",
"381 409 CURVE",
"349 433 OFFCURVE",
"292 448 OFFCURVE",
"236 448 CURVE SMOOTH",
"98 448 OFFCURVE",
"9 361 OFFCURVE",
"9 227 CURVE SMOOTH",
"9 83 OFFCURVE",
"117 -10 OFFCURVE",
"284 -10 CURVE SMOOTH",
"477 -10 OFFCURVE",
"602 113 OFFCURVE",
"602 303 CURVE SMOOTH",
"602 501 OFFCURVE",
"458 677 OFFCURVE",
"235 752 CURVE"
);
},
{
closed = 1;
nodes = (
"334 300 OFFCURVE",
"361 275 OFFCURVE",
"361 237 CURVE SMOOTH",
"361 199 OFFCURVE",
"334 174 OFFCURVE",
"292 174 CURVE SMOOTH",
"251 174 OFFCURVE",
"224 199 OFFCURVE",
"224 238 CURVE SMOOTH",
"224 276 OFFCURVE",
"250 300 OFFCURVE",
"291 300 CURVE SMOOTH"
);
},
{
closed = 1;
nodes = (
"98 556 LINE",
"132 456 LINE",
"592 614 LINE",
"558 715 LINE"
);
}
);
width = 617;
},
{
layerId = UUID0;
paths = (
{
closed = 1;
nodes = (
"156 724 LINE",
"318 635 OFFCURVE",
"451 475 OFFCURVE",
"493 315 CURVE",
"461 390 OFFCURVE",
"380 438 OFFCURVE",
"287 438 CURVE SMOOTH",
"149 438 OFFCURVE",
"60 353 OFFCURVE",
"60 222 CURVE SMOOTH",
"60 87 OFFCURVE",
"147 0 OFFCURVE",
"281 0 CURVE SMOOTH",
"424 0 OFFCURVE",
"516 89 OFFCURVE",
"516 227 CURVE SMOOTH",
"516 417 OFFCURVE",
"379 619 OFFCURVE",
"168 742 CURVE"
);
},
{
closed = 1;
nodes = (
"414 418 OFFCURVE",
"496 339 OFFCURVE",
"496 216 CURVE",
"496 97 OFFCURVE",
"414 20 OFFCURVE",
"286 20 CURVE SMOOTH",
"161 20 OFFCURVE",
"80 100 OFFCURVE",
"80 224 CURVE SMOOTH",
"80 342 OFFCURVE",
"161 418 OFFCURVE",
"287 418 CURVE SMOOTH"
);
},
{
closed = 1;
nodes = (
"160 601 LINE",
"165 582 LINE",
"427 657 LINE",
"422 677 LINE"
);
}
);
width = 566;
},
{
layerId = "1C84A7F3-C40A-4DC1-B8B4-102D183C348F";
paths = (
{
closed = 1;
nodes = (
"122.769 695.846 LINE",
"276.462 619.769 OFFCURVE",
"402.077 487.462 OFFCURVE",
"441.308 358.385 CURVE",
"409.308 409.846 OFFCURVE",
"339.384 442.616 OFFCURVE",
"263.462 442.616 CURVE SMOOTH",
"125.462 442.616 OFFCURVE",
"36.462 356.692 OFFCURVE",
"36.462 224.308 CURVE SMOOTH",
"36.462 85.154 OFFCURVE",
"133.154 -5 OFFCURVE",
"282.385 -5 CURVE SMOOTH",
"448.462 -5 OFFCURVE",
"555.692 100.077 OFFCURVE",
"555.692 262.077 CURVE SMOOTH",
"555.692 455.769 OFFCURVE",
"415.461 645.769 OFFCURVE",
"198.923 746.616 CURVE"
);
},
{
closed = 1;
nodes = (
"377.077 363.539 OFFCURVE",
"433.693 309.462 OFFCURVE",
"433.693 225.693 CURVE",
"433.693 144.077 OFFCURVE",
"377.077 91.077 OFFCURVE",
"288.769 91.077 CURVE SMOOTH",
"202.538 91.077 OFFCURVE",
"146.462 145.693 OFFCURVE",
"146.462 230.462 CURVE SMOOTH",
"146.462 311.538 OFFCURVE",
"202.077 363.539 OFFCURVE",
"288.846 363.539 CURVE SMOOTH"
);
},
{
closed = 1;
nodes = (
"131.385 580.231 LINE",
"149.769 523.846 LINE",
"503.154 637.154 LINE",
"484.769 694.539 LINE"
);
}
);
width = 590;
}
);
leftKerningGroup = o;
rightKerningGroup = O;
rightMetricsKey = O;
unicode = 00F0;
},
{
glyphname = dcroat;
lastChange = "2016-08-01 01:22:09 +0000";
layers = (
{
components = (
{
name = d;
}
);
layerId = UUID0;
paths = (
{
closed = 1;
nodes = (
"417 657 LINE",
"634 657 LINE",
"634 677 LINE",
"417 677 LINE"
);
}
);
width = 673;
},
{
components = (
{
name = d;
}
);
layerId = "5DA6E103-6A94-47F2-987D-4952DB8EA68E";
paths = (
{
closed = 1;
nodes = (
"332 574 LINE",
"692 574 LINE",
"692 687 LINE",
"332 687 LINE"
);
}
);
width = 701;
},
{
components = (
{
name = d;
}
);
layerId = "1C84A7F3-C40A-4DC1-B8B4-102D183C348F";
paths = (
{
closed = 1;
nodes = (
"377.769 618.692 LINE",
"660.769 618.692 LINE",
"660.769 681.616 LINE",
"377.769 681.616 LINE"
);
}
);
width = 681;
}
);
leftKerningGroup = o;
rightKerningGroup = l;
unicode = 0111;
},
{
glyphname = e;
lastChange = "2016-08-01 01:22:09 +0000";
layers = (
{
anchors = (
{
name = bottom;
position = "{295, 0}";
},
{
name = ogonek;
position = "{509, 10}";
},
{
name = top;
position = "{295, 517}";
}
);
layerId = UUID0;
paths = (
{
closed = 1;
nodes = (
"64 279 LINE",
"64 259 LINE",
"541 259 LINE",
"541 409 OFFCURVE",
"445 517 OFFCURVE",
"301 517 CURVE SMOOTH",
"158 517 OFFCURVE",
"52 409 OFFCURVE",
"52 259 CURVE SMOOTH",
"52 108 OFFCURVE",
"158 0 OFFCURVE",
"301 0 CURVE SMOOTH",
"381 0 OFFCURVE",
"451 30 OFFCURVE",
"498 81 CURVE",
"484 95 LINE",
"441 47 OFFCURVE",
"376 20 OFFCURVE",
"301 20 CURVE SMOOTH",
"168 20 OFFCURVE",
"72 118 OFFCURVE",
"72 259 CURVE SMOOTH",
"72 399 OFFCURVE",
"168 497 OFFCURVE",
"301 497 CURVE SMOOTH",
"429 497 OFFCURVE",
"512 408 OFFCURVE",
"521 279 CURVE"
);
}
);
width = 589;
},
{
anchors = (
{
name = bottom;
position = "{307, 0}";
},
{
name = ogonek;
position = "{552, 10}";
},
{
name = top;
position = "{303, 547}";
}
);
layerId = "5DA6E103-6A94-47F2-987D-4952DB8EA68E";
paths = (
{
closed = 1;
nodes = (
"204 327 LINE",
"204 223 LINE",
"598 223 LINE",
"610 425 OFFCURVE",
"498 555 OFFCURVE",
"307 555 CURVE SMOOTH",
"131 555 OFFCURVE",
"15 444 OFFCURVE",
"15 271 CURVE SMOOTH",
"15 102 OFFCURVE",
"126 -8 OFFCURVE",
"313 -8 CURVE SMOOTH",
"419 -8 OFFCURVE",
"503 28 OFFCURVE",
"561 92 CURVE",
"444 207 LINE",
"410 175 OFFCURVE",
"371 158 OFFCURVE",
"333 158 CURVE SMOOTH",
"272 158 OFFCURVE",
"233 202 OFFCURVE",
"233 284 CURVE SMOOTH",
"233 352 OFFCURVE",
"259 405 OFFCURVE",
"309 405 CURVE SMOOTH",
"348 405 OFFCURVE",
"376 372 OFFCURVE",
"373 327 CURVE"
);
}
);
width = 614;
},
{
anchors = (
{
name = bottom;
position = "{300.538, 0}";
},
{
name = ogonek;
position = "{528.846, 10}";
},
{
name = top;
position = "{298.692, 530.846}";
}
);
layerId = "1C84A7F3-C40A-4DC1-B8B4-102D183C348F";
paths = (
{
closed = 1;
nodes = (
"128 304 LINE",
"128.421 222.053 LINE",
"553.316 222.053 LINE",
"566.579 413.737 OFFCURVE",
"491.421 535 OFFCURVE",
"303.769 534.539 CURVE SMOOTH",
"145.684 534.053 OFFCURVE",
"34.923 425.154 OFFCURVE",
"34.923 264.538 CURVE SMOOTH",
"34.923 105.231 OFFCURVE",
"143.231 -4 OFFCURVE",
"306.538 -4 CURVE SMOOTH",
"398.539 -4 OFFCURVE",
"475 29.077 OFFCURVE",
"527.077 86.077 CURVE",
"465.539 146.692 LINE",
"426.692 106.077 OFFCURVE",
"373.692 83.692 OFFCURVE",
"315.769 83.692 CURVE SMOOTH",
"216 83.692 OFFCURVE",
"146.308 156.769 OFFCURVE",
"146.308 270.538 CURVE SMOOTH",
"146.308 377.308 OFFCURVE",
"209.684 446.789 OFFCURVE",
"304.789 446.789 CURVE SMOOTH",
"392.053 446.789 OFFCURVE",
"449 393 OFFCURVE",
"453 304 CURVE"
);
}
);
width = 588;
}
);
leftKerningGroup = o;
rightKerningGroup = o;
unicode = 0065;
},
{
glyphname = e.ss01;
lastChange = "2016-08-01 01:22:09 +0000";
layers = (
{
anchors = (
{
name = bottom;
position = "{296, 0}";
},
{
name = ogonek;
position = "{533, 10}";
},
{
name = top;
position = "{296, 517}";
}
);
layerId = UUID0;
paths = (
{
closed = 1;
nodes = (
"64 193 LINE",
"71 175 LINE",
"526 360 LINE",
"497 457 OFFCURVE",
"409 517 OFFCURVE",
"303 517 CURVE SMOOTH",
"158 517 OFFCURVE",
"52 408 OFFCURVE",
"52 259 CURVE SMOOTH",
"52 109 OFFCURVE",
"158 0 OFFCURVE",
"304 0 CURVE SMOOTH",
"385 0 OFFCURVE",
"454 33 OFFCURVE",
"509 104 CURVE",
"492 115 LINE",
"443 50 OFFCURVE",
"380 20 OFFCURVE",
"305 20 CURVE SMOOTH",
"168 20 OFFCURVE",
"72 119 OFFCURVE",
"72 259 CURVE SMOOTH",
"72 398 OFFCURVE",
"168 497 OFFCURVE",
"302 497 CURVE SMOOTH",
"395 497 OFFCURVE",
"471 451 OFFCURVE",
"500 371 CURVE"
);
}
);
width = 569;
},
{
anchors = (
{
name = bottom;
position = "{309, 0}";
},
{
name = ogonek;
position = "{556, 10}";
},
{
name = top;
position = "{309, 547}";
}
);
layerId = "5DA6E103-6A94-47F2-987D-4952DB8EA68E";
paths = (
{
closed = 1;
nodes = (
"204 313 LINE",
"204 203 LINE",
"598 278 LINE",
"598 449 OFFCURVE",
"484 555 OFFCURVE",
"309 555 CURVE SMOOTH",
"130 555 OFFCURVE",
"15 443 OFFCURVE",
"15 270 CURVE SMOOTH",
"15 102 OFFCURVE",
"135 -8 OFFCURVE",
"319 -8 CURVE SMOOTH",
"428 -8 OFFCURVE",
"516 30 OFFCURVE",
"581 104 CURVE",
"456 216 LINE",
"418 179 OFFCURVE",
"376 158 OFFCURVE",
"337 158 CURVE SMOOTH",
"278 158 OFFCURVE",
"241 206 OFFCURVE",
"241 284 CURVE SMOOTH",
"241 360 OFFCURVE",
"269 405 OFFCURVE",
"317 405 CURVE SMOOTH",
"348 405 OFFCURVE",
"371 383 OFFCURVE",
"375 344 CURVE"
);
}
);
width = 608;
},
{
anchors = (
{
name = bottom;
position = "{284, 0}";
},
{
name = ogonek;
position = "{511, 10}";
},
{
name = top;
position = "{284, 547}";
}
);
associatedMasterId = "5DA6E103-6A94-47F2-987D-4952DB8EA68E";
background = {
paths = (
{
closed = 0;
nodes = (
"290 -8 LINE SMOOTH",
"395 -8 OFFCURVE",
"473 23 OFFCURVE",
"537 59 CURVE",
"474 208 LINE",
"408 177 OFFCURVE",
"362 160 OFFCURVE",
"319 160 CURVE SMOOTH"
);
}
);
};
layerId = "7299B6D7-F5E8-420C-BFC5-F60B989FEFA3";
name = "Bold (1000)";
paths = (
{
closed = 1;
nodes = (
"175 339 LINE",
"175 209 LINE",
"737 209 LINE",
"576 432 OFFCURVE",
"459 555 OFFCURVE",
"284 555 CURVE SMOOTH",
"121 555 OFFCURVE",
"0 449 OFFCURVE",
"0 269 CURVE SMOOTH",
"0 98 OFFCURVE",
"108 -8 OFFCURVE",
"287 -8 CURVE",
"373 -8 OFFCURVE",
"447 11 OFFCURVE",
"521 49 CURVE",
"460 188 LINE",
"398 159 OFFCURVE",
"360 148 OFFCURVE",
"312 148 CURVE",
"248 148 OFFCURVE",
"215 187 OFFCURVE",
"215 289 CURVE SMOOTH",
"215 369 OFFCURVE",
"235 406 OFFCURVE",
"282 406 CURVE SMOOTH",
"309 406 OFFCURVE",
"343 394 OFFCURVE",
"344 339 CURVE"
);
}
);
width = 568;
},
{
anchors = (
{
name = bottom;
position = "{302, 0}";
},
{
name = ogonek;
position = "{543, 10}";
},
{
name = top;
position = "{302, 531}";
}
);
layerId = "1C84A7F3-C40A-4DC1-B8B4-102D183C348F";
paths = (
{
closed = 1;
nodes = (
"128 261 LINE",
"133 176 LINE",
"553 306 LINE",
"544 449 OFFCURVE",
"447 537 OFFCURVE",
"302 535 CURVE SMOOTH",
"138 533 OFFCURVE",
"35 421 OFFCURVE",
"35 266 CURVE SMOOTH",
"35 105 OFFCURVE",
"148 -4 OFFCURVE",
"312 -4 CURVE SMOOTH",
"404 -4 OFFCURVE",
"482 31 OFFCURVE",
"542 104 CURVE",
"475 162 LINE",
"432 110 OFFCURVE",
"378 83 OFFCURVE",
"319 83 CURVE SMOOTH",
"219 83 OFFCURVE",
"150 159 OFFCURVE",
"150 271 CURVE SMOOTH",
"150 385 OFFCURVE",
"212 446 OFFCURVE",
"309 446 CURVE SMOOTH",
"372 446 OFFCURVE",
"417 420 OFFCURVE",
"442 359 CURVE"
);
}
);
width = 580;
}
);
leftKerningGroup = o;
leftMetricsKey = o;
rightKerningGroup = e;
},
{
glyphname = eogonek;
lastChange = "2016-08-01 01:22:09 +0000";
layers = (
{
layerId = UUID0;
paths = (
{
closed = 1;
nodes = (
"484 95 LINE",
"441 47 OFFCURVE",
"376 20 OFFCURVE",
"301 20 CURVE SMOOTH",
"168 20 OFFCURVE",
"72 118 OFFCURVE",
"72 259 CURVE",
"541 259 LINE",
"541 409 OFFCURVE",
"445 517 OFFCURVE",
"301 517 CURVE SMOOTH",
"158 517 OFFCURVE",
"52 409 OFFCURVE",
"52 259 CURVE SMOOTH",
"52 108 OFFCURVE",
"158 0 OFFCURVE",
"301 0 CURVE SMOOTH",
"360 0 OFFCURVE",
"413 18 OFFCURVE",
"457 51 CURVE",
"401 -28 OFFCURVE",
"382 -84 OFFCURVE",
"382 -131 CURVE SMOOTH",
"382 -172 OFFCURVE",
"410 -199 OFFCURVE",
"446 -199 CURVE SMOOTH",
"472 -199 OFFCURVE",
"500 -181 OFFCURVE",
"519 -159 CURVE",
"505 -145 LINE",
"487 -165 OFFCURVE",
"467 -179 OFFCURVE",
"446 -179 CURVE SMOOTH",
"421 -179 OFFCURVE",
"402 -162 OFFCURVE",
"402 -131 CURVE SMOOTH",
"402 -81 OFFCURVE",
"418 -23 OFFCURVE",
"498 81 CURVE"
);
},
{
closed = 1;
nodes = (
"72.673 279 LINE",
"81 408 OFFCURVE",
"175 497 OFFCURVE",
"301 497 CURVE SMOOTH",
"429 497 OFFCURVE",
"512 408 OFFCURVE",
"521 279 CURVE"
);
}
);
width = 589;
},
{
layerId = "5DA6E103-6A94-47F2-987D-4952DB8EA68E";
paths = (
{
closed = 1;
nodes = (
"444 207 LINE",
"410 175 OFFCURVE",
"371 158 OFFCURVE",
"333 158 CURVE SMOOTH",
"290 158 OFFCURVE",
"258 180 OFFCURVE",
"242.434 223 CURVE",
"598 223 LINE",
"610 425 OFFCURVE",
"498 555 OFFCURVE",
"307 555 CURVE SMOOTH",
"131 555 OFFCURVE",
"15 444 OFFCURVE",
"15 271 CURVE SMOOTH",
"15 102 OFFCURVE",
"126 -8 OFFCURVE",
"313 -8 CURVE SMOOTH",
"337 -8 OFFCURVE",
"362 -3 OFFCURVE",
"385 5 CURVE",
"358 -32 OFFCURVE",
"337 -74 OFFCURVE",
"337 -116 CURVE SMOOTH",
"337 -185 OFFCURVE",
"391 -204 OFFCURVE",
"433 -204 CURVE SMOOTH",
"482 -204 OFFCURVE",
"524 -179 OFFCURVE",
"552 -128 CURVE",
"497 -64 LINE",
"486 -83 OFFCURVE",
"474 -94 OFFCURVE",
"461 -94 CURVE SMOOTH",
"453 -94 OFFCURVE",
"447 -89 OFFCURVE",
"447 -79 CURVE SMOOTH",
"447 -32 OFFCURVE",
"527 55 OFFCURVE",
"561 92 CURVE"
);
},
{
closed = 1;
nodes = (
"237.029 327 LINE",
"246 373 OFFCURVE",
"271 405 OFFCURVE",
"309 405 CURVE SMOOTH",
"348 405 OFFCURVE",
"376 372 OFFCURVE",
"373 327 CURVE"
);
}
);
width = 614;
},
{
layerId = "1C84A7F3-C40A-4DC1-B8B4-102D183C348F";
paths = (
{
closed = 1;
nodes = (
"466 147 LINE",
"427 106 OFFCURVE",
"372 83 OFFCURVE",
"316 83 CURVE SMOOTH",
"226 83 OFFCURVE",
"169 139 OFFCURVE",
"151 222 CURVE",
"554 222 LINE",
"567 418 OFFCURVE",
"481 539 OFFCURVE",
"304 534 CURVE SMOOTH",
"130 529 OFFCURVE",
"35 416 OFFCURVE",
"35 267 CURVE SMOOTH",
"35 105 OFFCURVE",
"145 -4 OFFCURVE",
"302 -4 CURVE SMOOTH",
"348 -4 OFFCURVE",
"385 6 OFFCURVE",
"424 30 CURVE",
"383 -27 OFFCURVE",
"361 -79 OFFCURVE",
"361 -122 CURVE SMOOTH",
"361 -179 OFFCURVE",
"401 -201 OFFCURVE",
"440 -201 CURVE SMOOTH",
"479 -201 OFFCURVE",
"512 -178 OFFCURVE",
"534 -145 CURVE",
"501 -108 LINE",
"488 -125 OFFCURVE",
"472 -140 OFFCURVE",
"453 -140 CURVE SMOOTH",
"435 -140 OFFCURVE",
"423 -129 OFFCURVE",
"423 -105 CURVE SMOOTH",
"423 -60 OFFCURVE",
"467 12 OFFCURVE",
"527 86 CURVE"
);
},
{
closed = 1;
nodes = (
"149 304 LINE",
"157 389 OFFCURVE",
"220 447 OFFCURVE",
"306 447 CURVE SMOOTH",
"392 447 OFFCURVE",
"449 389 OFFCURVE",
"453 304 CURVE"
);
}
);
width = 588;
}
);
leftKerningGroup = o;
rightKerningGroup = e;
unicode = 0119;
},
{
glyphname = eogonek.ss01;
lastChange = "2016-08-01 01:22:10 +0000";
layers = (
{
layerId = UUID0;
paths = (
{
closed = 1;
nodes = (
"64 193 LINE",
"71 175 LINE",
"526 360 LINE",
"497 457 OFFCURVE",
"409 517 OFFCURVE",
"303 517 CURVE SMOOTH",
"158 517 OFFCURVE",
"52 408 OFFCURVE",
"52 259 CURVE SMOOTH",
"52 109 OFFCURVE",
"158 0 OFFCURVE",
"304 0 CURVE",
"363 0 OFFCURVE",
"416 18 OFFCURVE",
"460 51 CURVE",
"404 -28 OFFCURVE",
"385 -84 OFFCURVE",
"385 -131 CURVE SMOOTH",
"385 -172 OFFCURVE",
"413 -199 OFFCURVE",
"449 -199 CURVE SMOOTH",
"475 -199 OFFCURVE",
"503 -181 OFFCURVE",
"522 -159 CURVE",
"508 -145 LINE",
"490 -165 OFFCURVE",
"470 -179 OFFCURVE",
"449 -179 CURVE SMOOTH",
"424 -179 OFFCURVE",
"405 -162 OFFCURVE",
"405 -131 CURVE SMOOTH",
"405 -81 OFFCURVE",
"421 -23 OFFCURVE",
"501 81 CURVE",
"487 95 LINE",
"444 47 OFFCURVE",
"380 20 OFFCURVE",
"305 20 CURVE",
"168 20 OFFCURVE",
"72 119 OFFCURVE",
"72 259 CURVE SMOOTH",
"72 398 OFFCURVE",
"168 497 OFFCURVE",
"302 497 CURVE SMOOTH",
"395 497 OFFCURVE",
"471 451 OFFCURVE",
"500 371 CURVE"
);
}
);
width = 592;
},
{
layerId = "5DA6E103-6A94-47F2-987D-4952DB8EA68E";
paths = (
{
closed = 1;
nodes = (
"204 313 LINE",
"204 203 LINE",
"598 278 LINE",
"598 449 OFFCURVE",
"484 555 OFFCURVE",
"309 555 CURVE SMOOTH",
"130 555 OFFCURVE",
"15 443 OFFCURVE",
"15 270 CURVE SMOOTH",
"15 102 OFFCURVE",
"135 -8 OFFCURVE",
"319 -8 CURVE",
"343 -8 OFFCURVE",
"368 -3 OFFCURVE",
"391 5 CURVE",
"364 -32 OFFCURVE",
"343 -74 OFFCURVE",
"343 -116 CURVE SMOOTH",
"343 -185 OFFCURVE",
"397 -204 OFFCURVE",
"439 -204 CURVE SMOOTH",
"488 -204 OFFCURVE",
"530 -179 OFFCURVE",
"558 -128 CURVE",
"503 -64 LINE",
"492 -83 OFFCURVE",
"480 -94 OFFCURVE",
"467 -94 CURVE SMOOTH",
"459 -94 OFFCURVE",
"453 -89 OFFCURVE",
"453 -79 CURVE SMOOTH",
"453 -32 OFFCURVE",
"533 55 OFFCURVE",
"567 92 CURVE",
"450 207 LINE",
"416 175 OFFCURVE",
"375 158 OFFCURVE",
"337 158 CURVE",
"278 158 OFFCURVE",
"241 206 OFFCURVE",
"241 284 CURVE SMOOTH",
"241 360 OFFCURVE",
"269 405 OFFCURVE",
"317 405 CURVE SMOOTH",
"348 405 OFFCURVE",
"371 383 OFFCURVE",
"375 344 CURVE"
);
}
);
width = 618;
},
{
layerId = "1C84A7F3-C40A-4DC1-B8B4-102D183C348F";
paths = (
{
closed = 1;
nodes = (
"128 261 LINE",
"133 176 LINE",
"553 306 LINE",
"544 449 OFFCURVE",
"447 537 OFFCURVE",
"302 535 CURVE SMOOTH",
"138 533 OFFCURVE",
"35 421 OFFCURVE",
"35 266 CURVE SMOOTH",
"35 105 OFFCURVE",
"148 -4 OFFCURVE",
"312 -4 CURVE",
"354 -4 OFFCURVE",
"394 9 OFFCURVE",
"429 30 CURVE",
"386 -30 OFFCURVE",
"366 -79 OFFCURVE",
"366 -124 CURVE SMOOTH",
"366 -178 OFFCURVE",
"406 -201 OFFCURVE",
"445 -201 CURVE SMOOTH",
"482 -201 OFFCURVE",
"516 -180 OFFCURVE",
"539 -145 CURVE",
"506 -108 LINE",
"492 -127 OFFCURVE",
"475 -140 OFFCURVE",
"458 -140 CURVE SMOOTH",
"441 -140 OFFCURVE",
"428 -128 OFFCURVE",
"428 -107 CURVE SMOOTH",
"428 -58 OFFCURVE",
"473 13 OFFCURVE",
"532 86 CURVE",
"471 147 LINE",
"432 106 OFFCURVE",
"377 83 OFFCURVE",
"319 83 CURVE",
"219 83 OFFCURVE",
"150 159 OFFCURVE",
"150 271 CURVE SMOOTH",
"150 385 OFFCURVE",
"212 446 OFFCURVE",
"309 446 CURVE SMOOTH",
"372 446 OFFCURVE",
"417 420 OFFCURVE",
"442 359 CURVE"
);
}
);
width = 598;
}
);
leftKerningGroup = o;
rightKerningGroup = e;
},
{
glyphname = f;
lastChange = "2016-08-01 01:22:10 +0000";
layers = (
{
layerId = UUID0;
paths = (
{
closed = 1;
nodes = (
"117 0 LINE",
"137 0 LINE",
"137 580 LINE",
"137 662 OFFCURVE",
"192 723 OFFCURVE",
"263 722 CURVE",
"295 721 OFFCURVE",
"327 709 OFFCURVE",
"353 689 CURVE",
"365 705 LINE",
"337 727 OFFCURVE",
"299 741 OFFCURVE",
"263 742 CURVE",
"182 743 OFFCURVE",
"117 672 OFFCURVE",
"117 580 CURVE"
);
},
{
closed = 1;
nodes = (
"52 487 LINE",
"305 487 LINE",
"305 507 LINE",
"52 507 LINE"
);
}
);
width = 295;
},
{
layerId = "5DA6E103-6A94-47F2-987D-4952DB8EA68E";
paths = (
{
closed = 1;
nodes = (
"95 0 LINE",
"319 0 LINE",
"319 532 LINE",
"319 561 OFFCURVE",
"339 579 OFFCURVE",
"371 578 CURVE",
"387 578 OFFCURVE",
"409 571 OFFCURVE",
"426 559 CURVE",
"501 713 LINE",
"455 737 OFFCURVE",
"384 752 OFFCURVE",
"322 752 CURVE",
"184 753 OFFCURVE",
"95 680 OFFCURVE",
"95 566 CURVE SMOOTH"
);
},
{
closed = 1;
nodes = (
"20 375 LINE",
"425 375 LINE",
"425 517 LINE",
"20 517 LINE"
);
}
);
width = 426;
},
{
layerId = "1C84A7F3-C40A-4DC1-B8B4-102D183C348F";
paths = (
{
closed = 1;
nodes = (
"107 0 LINE",
"221 0 LINE",
"221 578 LINE",
"221 630 OFFCURVE",
"254 652 OFFCURVE",
"293 652 CURVE SMOOTH",
"317 652 OFFCURVE",
"344 643 OFFCURVE",
"366 627 CURVE",
"410 710 LINE",
"376 735 OFFCURVE",
"333 747 OFFCURVE",
"290 747 CURVE SMOOTH",
"198 747 OFFCURVE",
"107 689 OFFCURVE",
"107 564 CURVE"
);
},
{
closed = 1;
nodes = (
"37 430 LINE",
"360 430 LINE",
"360 512 LINE",
"37 512 LINE"
);
}
);
width = 343;
}
);
leftKerningGroup = f;
rightKerningGroup = f;
unicode = 0066;
},
{
glyphname = f.ss01;
lastChange = "2016-08-01 01:22:10 +0000";
layers = (
{
layerId = UUID0;
paths = (
{
closed = 1;
nodes = (
"93 0 LINE",
"113 0 LINE",
"113 590 LINE",
"113 672 OFFCURVE",
"168 733 OFFCURVE",
"239 732 CURVE",
"271 731 OFFCURVE",
"303 719 OFFCURVE",
"329 699 CURVE",
"341 715 LINE",
"313 737 OFFCURVE",
"275 751 OFFCURVE",
"239 752 CURVE",
"158 753 OFFCURVE",
"93 682 OFFCURVE",
"93 590 CURVE"
);
},
{
closed = 1;
nodes = (
"98 487 LINE",
"281 487 LINE",
"281 507 LINE",
"98 507 LINE"
);
}
);
width = 271;
},
{
layerId = "5DA6E103-6A94-47F2-987D-4952DB8EA68E";
paths = (
{
closed = 1;
nodes = (
"47 0 LINE",
"271 0 LINE",
"271 532 LINE",
"271 561 OFFCURVE",
"291 579 OFFCURVE",
"323 578 CURVE",
"339 578 OFFCURVE",
"361 571 OFFCURVE",
"378 559 CURVE",
"453 713 LINE",
"407 737 OFFCURVE",
"336 752 OFFCURVE",
"274 752 CURVE",
"136 753 OFFCURVE",
"47 680 OFFCURVE",
"47 566 CURVE"
);
},
{
closed = 1;
nodes = (
"72 375 LINE",
"377 375 LINE",
"377 517 LINE",
"72 517 LINE"
);
}
);
width = 378;
},
{
layerId = "1C84A7F3-C40A-4DC1-B8B4-102D183C348F";
paths = (
{
closed = 1;
nodes = (
"76 0 LINE",
"190 0 LINE",
"190 578 LINE",
"190 630 OFFCURVE",
"223 652 OFFCURVE",
"262 652 CURVE SMOOTH",
"286 652 OFFCURVE",
"313 643 OFFCURVE",
"335 627 CURVE",
"379 710 LINE",
"345 735 OFFCURVE",
"302 747 OFFCURVE",
"259 747 CURVE SMOOTH",
"167 747 OFFCURVE",
"76 689 OFFCURVE",
"76 564 CURVE"
);
},
{
closed = 1;
nodes = (
"86 430 LINE",
"329 430 LINE",
"329 512 LINE",
"86 512 LINE"
);
}
);
width = 312;
}
);
leftKerningGroup = f.ss01;
rightKerningGroup = f.ss01;
rightMetricsKey = "=f";
},
{
glyphname = g;
lastChange = "2016-08-01 01:22:10 +0000";
layers = (
{
anchors = (
{
name = top;
position = "{315, 517}";
}
);
layerId = UUID0;
paths = (
{
closed = 1;
nodes = (
"536 517 LINE",
"516 517 LINE",
"516 59 LINE",
"516 -83 OFFCURVE",
"427 -174 OFFCURVE",
"290 -173 CURVE SMOOTH",
"212 -170 OFFCURVE",
"151 -144 OFFCURVE",
"96 -89 CURVE",
"82 -103 LINE",
"142 -162 OFFCURVE",
"207 -190 OFFCURVE",
"290 -193 CURVE SMOOTH",
"439 -194 OFFCURVE",
"536 -95 OFFCURVE",
"536 59 CURVE"
);
},
{
closed = 1;
nodes = (
"154 517 OFFCURVE",
"52 412 OFFCURVE",
"52 267 CURVE SMOOTH",
"52 124 OFFCURVE",
"154 19 OFFCURVE",
"293 19 CURVE SMOOTH",
"433 19 OFFCURVE",
"535 124 OFFCURVE",
"535 267 CURVE",
"535 412 OFFCURVE",
"433 517 OFFCURVE",
"293 517 CURVE SMOOTH"
);
},
{
closed = 1;
nodes = (
"422 498 OFFCURVE",
"516 400 OFFCURVE",
"516 267 CURVE SMOOTH",
"516 135 OFFCURVE",
"422 38 OFFCURVE",
"293 38 CURVE SMOOTH",
"164 38 OFFCURVE",
"71 135 OFFCURVE",
"71 267 CURVE SMOOTH",
"71 400 OFFCURVE",
"164 498 OFFCURVE",
"293 498 CURVE SMOOTH"
);
}
);
width = 630;
},
{
anchors = (
{
name = top;
position = "{327, 547}";
}
);
layerId = "5DA6E103-6A94-47F2-987D-4952DB8EA68E";
paths = (
{
closed = 1;
nodes = (
"601 547 LINE",
"377 547 LINE",
"377 39 LINE SMOOTH",
"377 -3 OFFCURVE",
"341 -30 OFFCURVE",
"275 -30 CURVE SMOOTH",
"222 -30 OFFCURVE",
"156 -12 OFFCURVE",
"108 18 CURVE",
"37 -133 LINE",
"94 -171 OFFCURVE",
"190 -204 OFFCURVE",
"295 -204 CURVE SMOOTH",
"476 -204 OFFCURVE",
"601 -107 OFFCURVE",
"601 45 CURVE SMOOTH"
);
},
{
closed = 1;
nodes = (
"107 555 OFFCURVE",
"15 454 OFFCURVE",
"15 297 CURVE SMOOTH",
"15 136 OFFCURVE",
"111 33 OFFCURVE",
"240 33 CURVE SMOOTH",
"368 33 OFFCURVE",
"440 136 OFFCURVE",
"440 296 CURVE",
"440 453 OFFCURVE",
"365 555 OFFCURVE",
"236 555 CURVE SMOOTH"
);
},
{
closed = 1;
nodes = (
"347 390 OFFCURVE",
"377 351 OFFCURVE",
"377 291 CURVE SMOOTH",
"377 232 OFFCURVE",
"347 193 OFFCURVE",
"301 193 CURVE SMOOTH",
"255 193 OFFCURVE",
"225 232 OFFCURVE",
"225 291 CURVE SMOOTH",
"225 351 OFFCURVE",
"255 390 OFFCURVE",
"301 390 CURVE SMOOTH"
);
}
);
width = 654;
},
{
anchors = (
{
name = top;
position = "{320, 531}";
}
);
layerId = "1C84A7F3-C40A-4DC1-B8B4-102D183C348F";
paths = (
{
closed = 1;
nodes = (
"565 531 LINE",
"451 531 LINE",
"451 50 LINE",
"451 -46 OFFCURVE",
"385 -107 OFFCURVE",
"284 -107 CURVE SMOOTH",
"219 -107 OFFCURVE",
"167 -86 OFFCURVE",
"117 -48 CURVE",
"68 -127 LINE",
"133 -171 OFFCURVE",
"206 -197 OFFCURVE",
"289 -197 CURVE SMOOTH",
"456 -197 OFFCURVE",
"565 -101 OFFCURVE",
"565 53 CURVE"
);
},
{
closed = 1;
nodes = (
"130 534 OFFCURVE",
"35 431 OFFCURVE",
"35 282 CURVE SMOOTH",
"35 130 OFFCURVE",
"131 25 OFFCURVE",
"275 25 CURVE SMOOTH",
"413 25 OFFCURVE",
"492 121 OFFCURVE",
"491 281 CURVE",
"492 440 OFFCURVE",
"411 536 OFFCURVE",
"271 535 CURVE SMOOTH"
);
},
{
closed = 1;
nodes = (
"388 447 OFFCURVE",
"451 378 OFFCURVE",
"451 279 CURVE SMOOTH",
"451 181 OFFCURVE",
"388 111 OFFCURVE",
"298 111 CURVE SMOOTH",
"206 111 OFFCURVE",
"144 181 OFFCURVE",
"143 279 CURVE SMOOTH",
"144 377 OFFCURVE",
"207 447 OFFCURVE",
"298 447 CURVE SMOOTH"
);
}
);
width = 640;
}
);
leftKerningGroup = o;
rightKerningGroup = j;
unicode = 0067;
},
{
glyphname = g.ss01;
lastChange = "2016-08-01 01:22:10 +0000";
layers = (
{
anchors = (
{
name = top;
position = "{312, 517}";
}
);
layerId = UUID0;
paths = (
{
closed = 1;
nodes = (
"536 517 LINE",
"516 517 LINE",
"516 59 LINE",
"516 -83 OFFCURVE",
"427 -174 OFFCURVE",
"290 -173 CURVE",
"206 -169 OFFCURVE",
"138 -122 OFFCURVE",
"116 -55 CURVE",
"98 -62 LINE",
"121 -138 OFFCURVE",
"196 -189 OFFCURVE",
"290 -193 CURVE",
"439 -194 OFFCURVE",
"536 -95 OFFCURVE",
"536 59 CURVE"
);
},
{
closed = 1;
nodes = (
"154 517 OFFCURVE",
"52 412 OFFCURVE",
"52 267 CURVE SMOOTH",
"52 124 OFFCURVE",
"154 19 OFFCURVE",
"293 19 CURVE SMOOTH",
"433 19 OFFCURVE",
"535 124 OFFCURVE",
"535 267 CURVE",
"535 412 OFFCURVE",
"433 517 OFFCURVE",
"293 517 CURVE SMOOTH"
);
},
{
closed = 1;
nodes = (
"422 498 OFFCURVE",
"516 400 OFFCURVE",
"516 267 CURVE SMOOTH",
"516 135 OFFCURVE",
"422 38 OFFCURVE",
"293 38 CURVE SMOOTH",
"164 38 OFFCURVE",
"71 135 OFFCURVE",
"71 267 CURVE SMOOTH",
"71 400 OFFCURVE",
"164 498 OFFCURVE",
"293 498 CURVE SMOOTH"
);
}
);
width = 630;
},
{
anchors = (
{
name = top;
position = "{320, 547}";
}
);
layerId = "5DA6E103-6A94-47F2-987D-4952DB8EA68E";
paths = (
{
closed = 1;
nodes = (
"600 547 LINE",
"376 547 LINE",
"376 39 LINE SMOOTH",
"376 -3 OFFCURVE",
"338 -30 OFFCURVE",
"279 -30 CURVE SMOOTH",
"220 -30 OFFCURVE",
"162 -6 OFFCURVE",
"118 33 CURVE",
"23 -86 LINE",
"83 -162 OFFCURVE",
"190 -204 OFFCURVE",
"289 -204 CURVE SMOOTH",
"478 -204 OFFCURVE",
"600 -107 OFFCURVE",
"600 45 CURVE SMOOTH"
);
},
{
closed = 1;
nodes = (
"104 554 OFFCURVE",
"15 453 OFFCURVE",
"15 297 CURVE SMOOTH",
"15 136 OFFCURVE",
"107 33 OFFCURVE",
"248 33 CURVE SMOOTH",
"364 33 OFFCURVE",
"439 136 OFFCURVE",
"439 296 CURVE",
"439 453 OFFCURVE",
"362 554 OFFCURVE",
"242 554 CURVE SMOOTH"
);
},
{
closed = 1;
nodes = (
"347 389 OFFCURVE",
"376 351 OFFCURVE",
"376 291 CURVE SMOOTH",
"376 232 OFFCURVE",
"347 193 OFFCURVE",
"301 193 CURVE SMOOTH",
"255 193 OFFCURVE",
"225 232 OFFCURVE",
"225 291 CURVE SMOOTH",
"225 351 OFFCURVE",
"255 389 OFFCURVE",
"301 389 CURVE SMOOTH"
);
}
);
width = 653;
},
{
anchors = (
{
name = top;
position = "{315, 531}";
}
);
layerId = "1C84A7F3-C40A-4DC1-B8B4-102D183C348F";
paths = (
{
closed = 1;
nodes = (
"565 531 LINE",
"451 531 LINE",
"451 50 LINE",
"451 -46 OFFCURVE",
"385 -108 OFFCURVE",
"284 -107 CURVE",
"216 -105 OFFCURVE",
"160 -64 OFFCURVE",
"125 -5 CURVE",
"63 -73 LINE",
"103 -149 OFFCURVE",
"192 -196 OFFCURVE",
"289 -198 CURVE",
"456 -199 OFFCURVE",
"565 -101 OFFCURVE",
"565 53 CURVE"
);
},
{
closed = 1;
nodes = (
"130 534 OFFCURVE",
"35 431 OFFCURVE",
"35 282 CURVE SMOOTH",
"35 130 OFFCURVE",
"131 25 OFFCURVE",
"275 25 CURVE SMOOTH",
"413 25 OFFCURVE",
"492 121 OFFCURVE",
"491 281 CURVE",
"492 440 OFFCURVE",
"411 536 OFFCURVE",
"271 535 CURVE SMOOTH"
);
},
{
closed = 1;
nodes = (
"388 447 OFFCURVE",
"450 378 OFFCURVE",
"451 279 CURVE SMOOTH",
"450 181 OFFCURVE",
"388 111 OFFCURVE",
"298 111 CURVE SMOOTH",
"206 111 OFFCURVE",
"144 181 OFFCURVE",
"143 279 CURVE SMOOTH",
"144 377 OFFCURVE",
"207 447 OFFCURVE",
"298 447 CURVE SMOOTH"
);
}
);
width = 640;
}
);
leftKerningGroup = o;
leftMetricsKey = o;
rightKerningGroup = j;
rightMetricsKey = j;
},
{
glyphname = h;
lastChange = "2016-08-01 01:22:10 +0000";
layers = (
{
anchors = (
{
name = bottom;
position = "{570, 0}";
},
{
name = center;
position = "{327, 259}";
},
{
name = top;
position = "{126, 742}";
},
{
name = topright;
position = "{223, 517}";
}
);
layerId = UUID0;
paths = (
{
closed = 1;
nodes = (
"537 0 LINE SMOOTH",
"557 0 LINE",
"557 313 LINE",
"557 441 OFFCURVE",
"482 517 OFFCURVE",
"354 517 CURVE",
"205 514 OFFCURVE",
"117 416 OFFCURVE",
"117 253 CURVE",
"135 253 LINE",
"135 403 OFFCURVE",
"216 494 OFFCURVE",
"354 497 CURVE",
"469 497 OFFCURVE",
"537 429 OFFCURVE",
"537 313 CURVE"
);
},
{
closed = 1;
nodes = (
"115 0 LINE",
"135 0 LINE",
"135 742 LINE",
"115 742 LINE"
);
}
);
width = 650;
},
{
anchors = (
{
name = bottom;
position = "{680, 0}";
},
{
name = center;
position = "{339, 274}";
},
{
name = top;
position = "{166, 742}";
},
{
name = topright;
position = "{315, 547}";
}
);
layerId = "5DA6E103-6A94-47F2-987D-4952DB8EA68E";
paths = (
{
closed = 1;
nodes = (
"422 0 LINE",
"647 0 LINE",
"647 349 LINE SMOOTH",
"647 475 OFFCURVE",
"566 557 OFFCURVE",
"451 557 CURVE SMOOTH",
"316 557 OFFCURVE",
"235 445 OFFCURVE",
"235 271 CURVE",
"285 271 LINE",
"285 324 OFFCURVE",
"313 359 OFFCURVE",
"357 359 CURVE SMOOTH",
"396 359 OFFCURVE",
"422 330 OFFCURVE",
"422 284 CURVE SMOOTH"
);
},
{
closed = 1;
nodes = (
"60 0 LINE",
"285 0 LINE",
"285 742 LINE",
"60 742 LINE"
);
}
);
width = 687;
},
{
anchors = (
{
name = bottom;
position = "{620, 0}";
},
{
name = center;
position = "{335, 266}";
},
{
name = top;
position = "{146, 742}";
},
{
name = topright;
position = "{261, 534}";
}
);
layerId = "1C84A7F3-C40A-4DC1-B8B4-102D183C348F";
paths = (
{
closed = 1;
nodes = (
"485 0 LINE SMOOTH",
"600 0 LINE",
"600 330 LINE",
"600 457 OFFCURVE",
"526 535 OFFCURVE",
"402 535 CURVE",
"261 534 OFFCURVE",
"173 458 OFFCURVE",
"173 261 CURVE",
"205 261 LINE",
"205 358 OFFCURVE",
"262 432 OFFCURVE",
"357 433 CURVE",
"437 433 OFFCURVE",
"485 383 OFFCURVE",
"485 300 CURVE"
);
},
{
closed = 1;
nodes = (
"90 0 LINE",
"205 0 LINE",
"205 742 LINE",
"90 742 LINE"
);
}
);
width = 669;
}
);
leftKerningGroup = h;
rightKerningGroup = n;
unicode = 0068;
},
{
glyphname = hbar;
lastChange = "2016-08-01 01:22:10 +0000";
layers = (
{
components = (
{
name = h;
}
);
layerId = UUID0;
paths = (
{
closed = 1;
nodes = (
"25 615 LINE",
"315 615 LINE",
"315 635 LINE",
"25 635 LINE"
);
}
);
width = 650;
},
{
components = (
{
name = h;
}
);
layerId = "5DA6E103-6A94-47F2-987D-4952DB8EA68E";
paths = (
{
closed = 1;
nodes = (
"-16 563 LINE",
"382 563 LINE",
"382 682 LINE",
"-16 682 LINE"
);
}
);
width = 687;
},
{
components = (
{
name = h;
}
);
layerId = "1C84A7F3-C40A-4DC1-B8B4-102D183C348F";
paths = (
{
closed = 1;
nodes = (
"6.077 591 LINE",
"345.923 591 LINE",
"345.923 656.692 LINE",
"6.077 656.692 LINE"
);
}
);
width = 669;
}
);
leftKerningGroup = h;
rightKerningGroup = n;
rightMetricsKey = h;
unicode = 0127;
},
{
glyphname = idotless;
lastChange = "2016-08-01 01:22:10 +0000";
layers = (
{
anchors = (
{
name = ogonek;
position = "{189, 10}";
},
{
name = top;
position = "{120, 517}";
}
);
layerId = UUID0;
paths = (
{
closed = 1;
nodes = (
"110 0 LINE",
"130 0 LINE",
"130 517 LINE",
"110 517 LINE"
);
}
);
width = 240;
},
{
anchors = (
{
name = ogonek;
position = "{291, 10}";
},
{
name = top;
position = "{168, 547}";
}
);
layerId = "5DA6E103-6A94-47F2-987D-4952DB8EA68E";
paths = (
{
closed = 1;
nodes = (
"55 0 LINE",
"280 0 LINE",
"280 547 LINE",
"55 547 LINE"
);
}
);
width = 335;
},
{
anchors = (
{
name = ogonek;
position = "{249, 10}";
},
{
name = top;
position = "{142, 531}";
}
);
layerId = "1C84A7F3-C40A-4DC1-B8B4-102D183C348F";
paths = (
{
closed = 1;
nodes = (
"85 0 LINE",
"199 0 LINE",
"199 531 LINE",
"85 531 LINE"
);
}
);
width = 284;
}
);
leftKerningGroup = i;
rightKerningGroup = i;
unicode = 0131;
},
{
glyphname = iogonek;
lastChange = "2016-08-01 01:22:10 +0000";
layers = (
{
layerId = UUID0;
paths = (
{
closed = 1;
nodes = (
"125 0 LINE",
"125 517 LINE",
"105 517 LINE",
"105 0 LINE",
"106 0 LINE",
"68 -62 OFFCURVE",
"53 -99 OFFCURVE",
"53 -131 CURVE SMOOTH",
"53 -172 OFFCURVE",
"81 -199 OFFCURVE",
"117 -199 CURVE SMOOTH",
"144 -199 OFFCURVE",
"172 -181 OFFCURVE",
"191 -159 CURVE",
"177 -145 LINE",
"159 -165 OFFCURVE",
"139 -179 OFFCURVE",
"117 -179 CURVE SMOOTH",
"92 -179 OFFCURVE",
"73 -162 OFFCURVE",
"73 -131 CURVE SMOOTH",
"73 -100 OFFCURVE",
"82 -66 OFFCURVE",
"124 0 CURVE"
);
},
{
closed = 1;
nodes = (
"101 692 OFFCURVE",
"89 680 OFFCURVE",
"89 666 CURVE SMOOTH",
"89 652 OFFCURVE",
"101 640 OFFCURVE",
"115 640 CURVE SMOOTH",
"129 640 OFFCURVE",
"141 652 OFFCURVE",
"141 666 CURVE SMOOTH",
"141 680 OFFCURVE",
"129 692 OFFCURVE",
"115 692 CURVE SMOOTH"
);
}
);
width = 230;
},
{
layerId = "5DA6E103-6A94-47F2-987D-4952DB8EA68E";
paths = (
{
closed = 1;
nodes = (
"268 0 LINE",
"268 547 LINE",
"43 547 LINE",
"43 0 LINE",
"106.858 0 LINE",
"83.094 -36 OFFCURVE",
"64 -75 OFFCURVE",
"64 -116 CURVE SMOOTH",
"64 -185 OFFCURVE",
"118 -204 OFFCURVE",
"160 -204 CURVE SMOOTH",
"209 -204 OFFCURVE",
"252 -179 OFFCURVE",
"280 -128 CURVE",
"225 -64 LINE",
"214 -83 OFFCURVE",
"201 -94 OFFCURVE",
"188 -94 CURVE SMOOTH",
"180 -94 OFFCURVE",
"174 -89 OFFCURVE",
"174 -79 CURVE SMOOTH",
"174 -63 OFFCURVE",
"189.768 -33 OFFCURVE",
"212.251 0 CURVE"
);
},
{
closed = 1;
nodes = (
"89 817 OFFCURVE",
"42 770 OFFCURVE",
"42 703 CURVE SMOOTH",
"42 636 OFFCURVE",
"89 589 OFFCURVE",
"156 589 CURVE SMOOTH",
"223 589 OFFCURVE",
"270 636 OFFCURVE",
"270 703 CURVE SMOOTH",
"270 770 OFFCURVE",
"223 817 OFFCURVE",
"156 817 CURVE SMOOTH"
);
}
);
width = 311;
},
{
layerId = "1C84A7F3-C40A-4DC1-B8B4-102D183C348F";
paths = (
{
closed = 1;
nodes = (
"193 0 LINE",
"193 531 LINE",
"78 531 LINE",
"78 0 LINE",
"110 0 LINE",
"77 -48 OFFCURVE",
"58 -87 OFFCURVE",
"58 -124 CURVE SMOOTH",
"58 -178 OFFCURVE",
"98 -201 OFFCURVE",
"137 -201 CURVE SMOOTH",
"174 -201 OFFCURVE",
"209 -180 OFFCURVE",
"232 -145 CURVE",
"199 -108 LINE",
"184 -127 OFFCURVE",
"168 -140 OFFCURVE",
"150 -140 CURVE SMOOTH",
"132 -140 OFFCURVE",
"120 -128 OFFCURVE",
"120 -107 CURVE SMOOTH",
"120 -83 OFFCURVE",
"135 -49 OFFCURVE",
"169 0 CURVE"
);
},
{
closed = 1;
nodes = (
"97 750 OFFCURVE",
"68 722 OFFCURVE",
"68 683 CURVE SMOOTH",
"68 644 OFFCURVE",
"97 616 OFFCURVE",
"135 616 CURVE SMOOTH",
"174 616 OFFCURVE",
"202 644 OFFCURVE",
"202 683 CURVE SMOOTH",
"202 722 OFFCURVE",
"174 750 OFFCURVE",
"135 750 CURVE SMOOTH"
);
}
);
width = 267;
}
);
leftKerningGroup = i;
rightKerningGroup = i;
unicode = 012F;
},
{
glyphname = j;
lastChange = "2016-08-01 01:22:10 +0000";
layers = (
{
layerId = UUID0;
paths = (
{
closed = 1;
nodes = (
"125 517 LINE",
"105 517 LINE",
"105 -31 LINE",
"105 -125 OFFCURVE",
"72 -174 OFFCURVE",
"9 -173 CURVE",
"-23 -172 OFFCURVE",
"-55 -161 OFFCURVE",
"-81 -140 CURVE",
"-93 -156 LINE",
"-63 -179 OFFCURVE",
"-28 -192 OFFCURVE",
"9 -193 CURVE",
"85 -194 OFFCURVE",
"125 -139 OFFCURVE",
"125 -31 CURVE"
);
},
{
closed = 1;
nodes = (
"101 692 OFFCURVE",
"89 680 OFFCURVE",
"89 666 CURVE SMOOTH",
"89 652 OFFCURVE",
"101 640 OFFCURVE",
"115 640 CURVE SMOOTH",
"129 640 OFFCURVE",
"141 652 OFFCURVE",
"141 666 CURVE SMOOTH",
"141 680 OFFCURVE",
"129 692 OFFCURVE",
"115 692 CURVE SMOOTH"
);
}
);
width = 235;
},
{
layerId = "5DA6E103-6A94-47F2-987D-4952DB8EA68E";
paths = (
{
closed = 1;
nodes = (
"285 547 LINE",
"60 547 LINE",
"60 17 LINE",
"60 -14 OFFCURVE",
"44 -30 OFFCURVE",
"16 -29 CURVE",
"-2 -29 OFFCURVE",
"-20 -24 OFFCURVE",
"-39 -15 CURVE",
"-89 -169 LINE",
"-46 -191 OFFCURVE",
"8 -203 OFFCURVE",
"68 -203 CURVE",
"200 -204 OFFCURVE",
"285 -132 OFFCURVE",
"285 -17 CURVE"
);
},
{
closed = 1;
nodes = (
"100 817 OFFCURVE",
"49 770 OFFCURVE",
"49 703 CURVE SMOOTH",
"49 636 OFFCURVE",
"100 589 OFFCURVE",
"172 589 CURVE SMOOTH",
"245 589 OFFCURVE",
"295 636 OFFCURVE",
"295 703 CURVE SMOOTH",
"295 770 OFFCURVE",
"245 817 OFFCURVE",
"172 817 CURVE SMOOTH"
);
}
);
width = 348;
},
{
layerId = "1C84A7F3-C40A-4DC1-B8B4-102D183C348F";
paths = (
{
closed = 1;
nodes = (
"198 531 LINE",
"84 531 LINE",
"84 -29 LINE",
"84 -81 OFFCURVE",
"56 -103 OFFCURVE",
"21 -103 CURVE SMOOTH",
"-1 -103 OFFCURVE",
"-26 -94 OFFCURVE",
"-47 -78 CURVE",
"-85 -163 LINE",
"-54 -186 OFFCURVE",
"-14 -199 OFFCURVE",
"26 -199 CURVE SMOOTH",
"111 -199 OFFCURVE",
"198 -142 OFFCURVE",
"198 -15 CURVE"
);
},
{
closed = 1;
nodes = (
"101 750 OFFCURVE",
"71 722 OFFCURVE",
"71 683 CURVE SMOOTH",
"71 645 OFFCURVE",
"101 616 OFFCURVE",
"141 616 CURVE SMOOTH",
"183 616 OFFCURVE",
"212 645 OFFCURVE",
"212 683 CURVE SMOOTH",
"212 722 OFFCURVE",
"183 750 OFFCURVE",
"141 750 CURVE SMOOTH"
);
}
);
width = 287;
}
);
leftKerningGroup = j;
rightKerningGroup = j;
unicode = 006A;
},
{
glyphname = jdotless;
lastChange = "2016-08-01 01:22:10 +0000";
layers = (
{
anchors = (
{
name = top;
position = "{115, 517}";
}
);
layerId = UUID0;
paths = (
{
closed = 1;
nodes = (
"125 517 LINE",
"105 517 LINE",
"105 -31 LINE",
"105 -125 OFFCURVE",
"72 -174 OFFCURVE",
"9 -173 CURVE",
"-23 -172 OFFCURVE",
"-55 -161 OFFCURVE",
"-81 -140 CURVE",
"-93 -156 LINE",
"-63 -179 OFFCURVE",
"-28 -192 OFFCURVE",
"9 -193 CURVE",
"85 -194 OFFCURVE",
"125 -139 OFFCURVE",
"125 -31 CURVE"
);
}
);
width = 219;
},
{
anchors = (
{
name = top;
position = "{164, 547}";
}
);
layerId = "5DA6E103-6A94-47F2-987D-4952DB8EA68E";
paths = (
{
closed = 1;
nodes = (
"285 547 LINE",
"60 547 LINE",
"60 17 LINE",
"60 -14 OFFCURVE",
"44 -30 OFFCURVE",
"16 -29 CURVE",
"-2 -29 OFFCURVE",
"-20 -24 OFFCURVE",
"-39 -15 CURVE",
"-89 -169 LINE",
"-46 -191 OFFCURVE",
"8 -203 OFFCURVE",
"68 -203 CURVE",
"200 -204 OFFCURVE",
"285 -132 OFFCURVE",
"285 -17 CURVE"
);
}
);
width = 338;
},
{
anchors = (
{
name = top;
position = "{137, 531}";
}
);
layerId = "1C84A7F3-C40A-4DC1-B8B4-102D183C348F";
paths = (
{
closed = 1;
nodes = (
"199 531 LINE",
"84 531 LINE",
"84 -9 LINE",
"84 -74 OFFCURVE",
"59 -108 OFFCURVE",
"12 -107 CURVE",
"-14 -106 OFFCURVE",
"-39 -98 OFFCURVE",
"-62 -82 CURVE",
"-91 -162 LINE",
"-55 -185 OFFCURVE",
"-11 -197 OFFCURVE",
"36 -198 CURVE",
"138 -199 OFFCURVE",
"199 -136 OFFCURVE",
"199 -24 CURVE"
);
}
);
width = 274;
}
);
leftKerningGroup = j;
rightKerningGroup = j;
rightMetricsKey = i;
unicode = 0237;
},
{
glyphname = k;
lastChange = "2016-08-01 01:22:10 +0000";
layers = (
{
anchors = (
{
name = bottom;
position = "{295, 0}";
},
{
name = top;
position = "{125, 742}";
},
{
name = topright;
position = "{223, 517}";
}
);
layerId = UUID0;
paths = (
{
closed = 1;
nodes = (
"115 0 LINE",
"135 0 LINE",
"135 742 LINE",
"115 742 LINE"
);
},
{
closed = 1;
nodes = (
"128 178 LINE",
"128 147 LINE",
"492 517 LINE",
"464 517 LINE"
);
},
{
closed = 1;
nodes = (
"271.88 314.164 LINE",
"498 0 LINE",
"522 0 LINE",
"288.12 325.836 LINE"
);
}
);
width = 538;
},
{
anchors = (
{
name = bottom;
position = "{323, 0}";
},
{
name = top;
position = "{173, 742}";
},
{
name = topright;
position = "{315, 547}";
}
);
layerId = "5DA6E103-6A94-47F2-987D-4952DB8EA68E";
paths = (
{
closed = 1;
nodes = (
"60 0 LINE",
"285 0 LINE",
"285 742 LINE",
"60 742 LINE"
);
},
{
closed = 1;
nodes = (
"275 394 LINE",
"275 133 LINE",
"666 547 LINE",
"412 547 LINE"
);
},
{
closed = 1;
nodes = (
"287 224 LINE",
"396 0 LINE",
"663 0 LINE",
"453 360 LINE"
);
}
);
width = 662;
},
{
anchors = (
{
name = bottom;
position = "{303, 0}";
},
{
name = top;
position = "{148, 742}";
},
{
name = topright;
position = "{266, 531}";
}
);
layerId = "1C84A7F3-C40A-4DC1-B8B4-102D183C348F";
paths = (
{
closed = 1;
nodes = (
"90 0 LINE",
"205 0 LINE",
"205 742 LINE",
"90 742 LINE"
);
},
{
closed = 1;
nodes = (
"195.846 277.693 LINE",
"195.846 140.538 LINE",
"572.307 530.846 LINE",
"440 530.846 LINE"
);
},
{
closed = 1;
nodes = (
"278.858 272.55 LINE",
"450.923 0 LINE",
"587.077 0 LINE",
"364.218 341.604 LINE"
);
}
);
width = 595;
}
);
leftKerningGroup = h;
rightKerningGroup = x;
unicode = 006B;
},
